<?xml version="1.0" encoding="UTF-8" standalone="no"?>
<!DOCTYPE svg PUBLIC "-//W3C//DTD SVG 1.1//EN"
 "http://www.w3.org/Graphics/SVG/1.1/DTD/svg11.dtd">
<!-- Generated by graphviz version 2.36.0 (20140111.2315)
 -->
<!-- Title: AstropyCoordinateTransformGraph Pages: 1 -->
<svg width="303pt" height="230pt"
 viewBox="0.00 0.00 303.00 230.00" xmlns="http://www.w3.org/2000/svg" xmlns:xlink="http://www.w3.org/1999/xlink">
<g id="graph0" class="graph" transform="scale(1 1) rotate(0) translate(4 226)">
<title>AstropyCoordinateTransformGraph</title>
<polygon fill="white" stroke="none" points="-4,4 -4,-226 299,-226 299,4 -4,4"/>
<!-- FK4NoETerms -->
<g id="node1" class="node"><title>FK4NoETerms</title>
<ellipse fill="none" stroke="black" cx="134" cy="-201" rx="56.9149" ry="21.4286"/>
<text text-anchor="middle" x="134" y="-204" font-family="Helvetica Neue, Helvetica, Arial, sans-serif" font-size="10.00">FK4NoETerms</text>
<text text-anchor="middle" x="134" y="-193" font-family="Helvetica Neue, Helvetica, Arial, sans-serif" font-size="10.00">`fk4noeterms`</text>
</g>
<!-- FK4NoETerms&#45;&gt;FK4NoETerms -->
<g id="edge1" class="edge"><title>FK4NoETerms&#45;&gt;FK4NoETerms</title>
<path fill="none" stroke="black" d="M186.913,-209.104C199.6,-208.471 209,-205.77 209,-201 209,-197.646 204.353,-195.315 197.183,-194.006"/>
<polygon fill="black" stroke="black" points="197.232,-190.491 186.913,-192.896 196.479,-197.451 197.232,-190.491"/>
<text text-anchor="middle" x="216" y="-198.5" font-family="Helvetica Neue, Helvetica, Arial, sans-serif" font-size="10.00">1.0</text>
</g>
<!-- FK4 -->
<g id="node2" class="node"><title>FK4</title>
<ellipse fill="none" stroke="black" cx="27" cy="-111" rx="27" ry="21.4286"/>
<text text-anchor="middle" x="27" y="-114" font-family="Helvetica Neue, Helvetica, Arial, sans-serif" font-size="10.00">FK4</text>
<text text-anchor="middle" x="27" y="-103" font-family="Helvetica Neue, Helvetica, Arial, sans-serif" font-size="10.00">`fk4`</text>
</g>
<!-- FK4NoETerms&#45;&gt;FK4 -->
<g id="edge2" class="edge"><title>FK4NoETerms&#45;&gt;FK4</title>
<path fill="none" stroke="black" d="M84.5988,-190.003C67.9968,-184.349 50.7343,-175.572 39,-162 34.2926,-156.555 31.36,-149.581 29.5513,-142.58"/>
<polygon fill="black" stroke="black" points="32.937,-141.649 27.6296,-132.48 26.0604,-142.958 32.937,-141.649"/>
<text text-anchor="middle" x="46" y="-153.5" font-family="Helvetica Neue, Helvetica, Arial, sans-serif" font-size="10.00">1.0</text>
</g>
<!-- FK5 -->
<g id="node3" class="node"><title>FK5</title>
<ellipse fill="none" stroke="black" cx="131" cy="-111" rx="27" ry="21.4286"/>
<text text-anchor="middle" x="131" y="-114" font-family="Helvetica Neue, Helvetica, Arial, sans-serif" font-size="10.00">FK5</text>
<text text-anchor="middle" x="131" y="-103" font-family="Helvetica Neue, Helvetica, Arial, sans-serif" font-size="10.00">`fk5`</text>
</g>
<!-- FK4NoETerms&#45;&gt;FK5 -->
<g id="edge3" class="edge"><title>FK4NoETerms&#45;&gt;FK5</title>
<path fill="none" stroke="black" d="M123.183,-180.026C120.642,-174.361 118.298,-168.079 117,-162 115.508,-155.011 116.283,-147.555 118.063,-140.592"/>
<polygon fill="black" stroke="black" points="121.466,-141.448 121.245,-130.855 114.812,-139.273 121.466,-141.448"/>
<text text-anchor="middle" x="124" y="-153.5" font-family="Helvetica Neue, Helvetica, Arial, sans-serif" font-size="10.00">1.0</text>
</g>
<!-- Galactic -->
<g id="node4" class="node"><title>Galactic</title>
<ellipse fill="none" stroke="black" cx="209" cy="-21" rx="39.3965" ry="21.4286"/>
<text text-anchor="middle" x="209" y="-24" font-family="Helvetica Neue, Helvetica, Arial, sans-serif" font-size="10.00">Galactic</text>
<text text-anchor="middle" x="209" y="-13" font-family="Helvetica Neue, Helvetica, Arial, sans-serif" font-size="10.00">`galactic`</text>
</g>
<!-- FK4NoETerms&#45;&gt;Galactic -->
<g id="edge4" class="edge"><title>FK4NoETerms&#45;&gt;Galactic</title>
<path fill="none" stroke="black" d="M158.37,-181.685C172.816,-169.354 190.009,-151.773 199,-132 210.374,-106.984 212.148,-75.5062 211.505,-52.6394"/>
<polygon fill="black" stroke="black" points="214.994,-52.3148 211.047,-42.4829 208.001,-52.6307 214.994,-52.3148"/>
<text text-anchor="middle" x="216" y="-108.5" font-family="Helvetica Neue, Helvetica, Arial, sans-serif" font-size="10.00">1.0</text>
</g>
<!-- FK4&#45;&gt;FK4NoETerms -->
<g id="edge5" class="edge"><title>FK4&#45;&gt;FK4NoETerms</title>
<path fill="none" stroke="black" d="M45.0528,-126.847C61.0206,-139.98 84.6478,-159.411 103.538,-174.947"/>
<polygon fill="black" stroke="black" points="101.361,-177.689 111.308,-181.337 105.808,-172.282 101.361,-177.689"/>
<text text-anchor="middle" x="94" y="-153.5" font-family="Helvetica Neue, Helvetica, Arial, sans-serif" font-size="10.00">1.0</text>
</g>
<!-- FK4&#45;&gt;FK4 -->
<g id="edge6" class="edge"><title>FK4&#45;&gt;FK4</title>
<path fill="none" stroke="black" d="M51.9889,-119.151C62.7697,-119.819 72,-117.102 72,-111 72,-106.996 68.0248,-104.449 62.245,-103.36"/>
<polygon fill="black" stroke="black" points="62.1509,-99.8513 51.9889,-102.849 61.8021,-106.843 62.1509,-99.8513"/>
<text text-anchor="middle" x="79" y="-108.5" font-family="Helvetica Neue, Helvetica, Arial, sans-serif" font-size="10.00">1.0</text>
</g>
<!-- FK5&#45;&gt;FK4NoETerms -->
<g id="edge8" class="edge"><title>FK5&#45;&gt;FK4NoETerms</title>
<path fill="none" stroke="black" d="M131.692,-132.299C132.066,-143.276 132.536,-157.058 132.954,-169.317"/>
<polygon fill="black" stroke="black" points="129.465,-169.715 133.304,-179.59 136.461,-169.476 129.465,-169.715"/>
<text text-anchor="middle" x="140" y="-153.5" font-family="Helvetica Neue, Helvetica, Arial, sans-serif" font-size="10.00">1.0</text>
</g>
<!-- FK5&#45;&gt;FK5 -->
<g id="edge10" class="edge"><title>FK5&#45;&gt;FK5</title>
<path fill="none" stroke="black" d="M155.989,-119.151C166.77,-119.819 176,-117.102 176,-111 176,-106.996 172.025,-104.449 166.245,-103.36"/>
<polygon fill="black" stroke="black" points="166.151,-99.8513 155.989,-102.849 165.802,-106.843 166.151,-99.8513"/>
<text text-anchor="middle" x="183" y="-108.5" font-family="Helvetica Neue, Helvetica, Arial, sans-serif" font-size="10.00">1.0</text>
</g>
<!-- FK5&#45;&gt;Galactic -->
<g id="edge11" class="edge"><title>FK5&#45;&gt;Galactic</title>
<path fill="none" stroke="black" d="M140.354,-90.8701C145.654,-81.0691 152.849,-69.2786 161,-60 165.713,-54.635 171.258,-49.4686 176.875,-44.7662"/>
<polygon fill="black" stroke="black" points="179.426,-47.2087 185.065,-38.2394 175.063,-41.7343 179.426,-47.2087"/>
<text text-anchor="middle" x="168" y="-63.5" font-family="Helvetica Neue, Helvetica, Arial, sans-serif" font-size="10.00">1.0</text>
</g>
<!-- ICRS -->
<g id="node5" class="node"><title>ICRS</title>
<ellipse fill="none" stroke="black" cx="110" cy="-21" rx="28.4872" ry="21.4286"/>
<text text-anchor="middle" x="110" y="-24" font-family="Helvetica Neue, Helvetica, Arial, sans-serif" font-size="10.00">ICRS</text>
<text text-anchor="middle" x="110" y="-13" font-family="Helvetica Neue, Helvetica, Arial, sans-serif" font-size="10.00">`icrs`</text>
</g>
<!-- FK5&#45;&gt;ICRS -->
<g id="edge9" class="edge"><title>FK5&#45;&gt;ICRS</title>
<path fill="none" stroke="black" d="M114.778,-93.6234C109.664,-87.3801 104.657,-79.862 102,-72 99.8572,-65.6602 99.6962,-58.6696 100.528,-51.9759"/>
<polygon fill="black" stroke="black" points="104.026,-52.3234 102.51,-41.8376 97.1561,-50.9804 104.026,-52.3234"/>
<text text-anchor="middle" x="109" y="-63.5" font-family="Helvetica Neue, Helvetica, Arial, sans-serif" font-size="10.00">1.0</text>
</g>
<!-- Galactic&#45;&gt;FK4NoETerms -->
<g id="edge12" class="edge"><title>Galactic&#45;&gt;FK4NoETerms</title>
<path fill="none" stroke="black" d="M218.406,-41.7777C227.763,-64.3575 239.114,-102.04 227,-132 218.457,-153.131 199.092,-168.923 180.233,-179.943"/>
<polygon fill="black" stroke="black" points="178.433,-176.938 171.355,-184.822 181.805,-183.072 178.433,-176.938"/>
<text text-anchor="middle" x="239" y="-108.5" font-family="Helvetica Neue, Helvetica, Arial, sans-serif" font-size="10.00">1.0</text>
</g>
<!-- Galactic&#45;&gt;FK5 -->
<g id="edge13" class="edge"><title>Galactic&#45;&gt;FK5</title>
<path fill="none" stroke="black" d="M197.503,-41.3775C191.374,-51.0206 183.38,-62.5948 175,-72 169.83,-77.8028 163.789,-83.5526 157.87,-88.7565"/>
<polygon fill="black" stroke="black" points="155.323,-86.3274 149.965,-95.4678 159.853,-91.6634 155.323,-86.3274"/>
<text text-anchor="middle" x="192" y="-63.5" font-family="Helvetica Neue, Helvetica, Arial, sans-serif" font-size="10.00">1.0</text>
</g>
<!-- ICRS&#45;&gt;FK5 -->
<g id="edge7" class="edge"><title>ICRS&#45;&gt;FK5</title>
<path fill="none" stroke="black" d="M114.819,-42.1942C117.495,-53.4061 120.874,-67.5687 123.852,-80.0473"/>
<polygon fill="black" stroke="black" points="120.509,-81.117 126.235,-90.0314 127.318,-79.4921 120.509,-81.117"/>
<text text-anchor="middle" x="129" y="-63.5" font-family="Helvetica Neue, Helvetica, Arial, sans-serif" font-size="10.00">1.0</text>
</g>
<!-- AltAz -->
<g id="node6" class="node"><title>AltAz</title>
<ellipse fill="none" stroke="black" cx="268" cy="-201" rx="27" ry="18"/>
<text text-anchor="middle" x="268" y="-198.5" font-family="Helvetica Neue, Helvetica, Arial, sans-serif" font-size="10.00">AltAz</text>
</g>
</g>
</svg>
