<?xml version="1.0" encoding="UTF-8" standalone="no"?>
<!DOCTYPE svg PUBLIC "-//W3C//DTD SVG 1.1//EN"
 "http://www.w3.org/Graphics/SVG/1.1/DTD/svg11.dtd">
<!-- Generated by graphviz version 2.36.0 (20140111.2315)
 -->
<!-- Title: inheritancecc8b866a55 Pages: 1 -->
<svg width="576pt" height="209pt"
 viewBox="0.00 0.00 576.00 208.82" xmlns="http://www.w3.org/2000/svg" xmlns:xlink="http://www.w3.org/1999/xlink">
<g id="graph0" class="graph" transform="scale(0.989691 0.989691) rotate(0) translate(4 207)">
<title>inheritancecc8b866a55</title>
<polygon fill="white" stroke="none" points="-4,4 -4,-207 578,-207 578,4 -4,4"/>
<!-- Chebyshev1D -->
<g id="node1" class="node"><title>Chebyshev1D</title>
<g id="a_node1"><a xlink:href="../api/astropy.modeling.polynomial.Chebyshev1D.html#astropy.modeling.polynomial.Chebyshev1D" xlink:title="1D Chebyshev polynomial of the 1st kind.">
<polygon fill="none" stroke="black" stroke-width="0.5" points="573.5,-203.5 490.5,-203.5 490.5,-184.5 573.5,-184.5 573.5,-203.5"/>
<text text-anchor="middle" x="532" y="-191.5" font-family="Vera Sans, DejaVu Sans, Liberation Sans, Arial, Helvetica, sans" font-size="10.00">Chebyshev1D</text>
</a>
</g>
</g>
<!-- PolynomialModel -->
<g id="node2" class="node"><title>PolynomialModel</title>
<g id="a_node2"><a xlink:href="../api/astropy.modeling.polynomial.PolynomialModel.html#astropy.modeling.polynomial.PolynomialModel" xlink:title="Base class for polynomial models.">
<polygon fill="none" stroke="black" stroke-width="0.5" points="442.5,-129.5 345.5,-129.5 345.5,-110.5 442.5,-110.5 442.5,-129.5"/>
<text text-anchor="middle" x="394" y="-117.5" font-family="Vera Sans, DejaVu Sans, Liberation Sans, Arial, Helvetica, sans" font-size="10.00">PolynomialModel</text>
</a>
</g>
</g>
<!-- PolynomialModel&#45;&gt;Chebyshev1D -->
<g id="edge1" class="edge"><title>PolynomialModel&#45;&gt;Chebyshev1D</title>
<path fill="none" stroke="black" stroke-width="0.5" d="M410.228,-129.392C428.793,-140.706 461.254,-160.057 490,-175 494.903,-177.549 500.212,-180.133 505.332,-182.541"/>
<polygon fill="black" stroke="black" stroke-width="0.5" points="504.693,-184.174 509.964,-184.696 506.169,-181 504.693,-184.174"/>
</g>
<!-- Legendre1D -->
<g id="node8" class="node"><title>Legendre1D</title>
<g id="a_node8"><a xlink:href="../api/astropy.modeling.polynomial.Legendre1D.html#astropy.modeling.polynomial.Legendre1D" xlink:title="1D Legendre polynomial.">
<polygon fill="none" stroke="black" stroke-width="0.5" points="569.5,-166.5 494.5,-166.5 494.5,-147.5 569.5,-147.5 569.5,-166.5"/>
<text text-anchor="middle" x="532" y="-154.5" font-family="Vera Sans, DejaVu Sans, Liberation Sans, Arial, Helvetica, sans" font-size="10.00">Legendre1D</text>
</a>
</g>
</g>
<!-- PolynomialModel&#45;&gt;Legendre1D -->
<g id="edge5" class="edge"><title>PolynomialModel&#45;&gt;Legendre1D</title>
<path fill="none" stroke="black" stroke-width="0.5" d="M429.319,-129.337C448.324,-134.507 472.027,-140.956 491.765,-146.326"/>
<polygon fill="black" stroke="black" stroke-width="0.5" points="491.408,-148.042 496.692,-147.666 492.327,-144.665 491.408,-148.042"/>
</g>
<!-- Polynomial1D -->
<g id="node11" class="node"><title>Polynomial1D</title>
<g id="a_node11"><a xlink:href="../api/astropy.modeling.polynomial.Polynomial1D.html#astropy.modeling.polynomial.Polynomial1D" xlink:title="1D Polynomial model.">
<polygon fill="none" stroke="black" stroke-width="0.5" points="573,-129.5 491,-129.5 491,-110.5 573,-110.5 573,-129.5"/>
<text text-anchor="middle" x="532" y="-117.5" font-family="Vera Sans, DejaVu Sans, Liberation Sans, Arial, Helvetica, sans" font-size="10.00">Polynomial1D</text>
</a>
</g>
</g>
<!-- PolynomialModel&#45;&gt;Polynomial1D -->
<g id="edge8" class="edge"><title>PolynomialModel&#45;&gt;Polynomial1D</title>
<path fill="none" stroke="black" stroke-width="0.5" d="M442.566,-120C456.62,-120 471.957,-120 485.853,-120"/>
<polygon fill="black" stroke="black" stroke-width="0.5" points="485.902,-121.75 490.902,-120 485.902,-118.25 485.902,-121.75"/>
</g>
<!-- Polynomial2D -->
<g id="node12" class="node"><title>Polynomial2D</title>
<g id="a_node12"><a xlink:href="../api/astropy.modeling.polynomial.Polynomial2D.html#astropy.modeling.polynomial.Polynomial2D" xlink:title="2D Polynomial &#160;model.">
<polygon fill="none" stroke="black" stroke-width="0.5" points="573,-92.5 491,-92.5 491,-73.5 573,-73.5 573,-92.5"/>
<text text-anchor="middle" x="532" y="-80.5" font-family="Vera Sans, DejaVu Sans, Liberation Sans, Arial, Helvetica, sans" font-size="10.00">Polynomial2D</text>
</a>
</g>
</g>
<!-- PolynomialModel&#45;&gt;Polynomial2D -->
<g id="edge9" class="edge"><title>PolynomialModel&#45;&gt;Polynomial2D</title>
<path fill="none" stroke="black" stroke-width="0.5" d="M429.319,-110.663C448.324,-105.493 472.027,-99.0442 491.765,-93.6742"/>
<polygon fill="black" stroke="black" stroke-width="0.5" points="492.327,-95.335 496.692,-92.3337 491.408,-91.9577 492.327,-95.335"/>
</g>
<!-- Chebyshev2D -->
<g id="node3" class="node"><title>Chebyshev2D</title>
<g id="a_node3"><a xlink:href="../api/astropy.modeling.polynomial.Chebyshev2D.html#astropy.modeling.polynomial.Chebyshev2D" xlink:title="2D Chebyshev polynomial of the 1st kind.">
<polygon fill="none" stroke="black" stroke-width="0.5" points="573.5,-55.5 490.5,-55.5 490.5,-36.5 573.5,-36.5 573.5,-55.5"/>
<text text-anchor="middle" x="532" y="-43.5" font-family="Vera Sans, DejaVu Sans, Liberation Sans, Arial, Helvetica, sans" font-size="10.00">Chebyshev2D</text>
</a>
</g>
</g>
<!-- OrthoPolynomialBase -->
<g id="node4" class="node"><title>OrthoPolynomialBase</title>
<g id="a_node4"><a xlink:href="../api/astropy.modeling.polynomial.OrthoPolynomialBase.html#astropy.modeling.polynomial.OrthoPolynomialBase" xlink:title="This is a base class for the 2D Chebyshev and Legendre models.">
<polygon fill="none" stroke="black" stroke-width="0.5" points="453.5,-55.5 334.5,-55.5 334.5,-36.5 453.5,-36.5 453.5,-55.5"/>
<text text-anchor="middle" x="394" y="-43.5" font-family="Vera Sans, DejaVu Sans, Liberation Sans, Arial, Helvetica, sans" font-size="10.00">OrthoPolynomialBase</text>
</a>
</g>
</g>
<!-- OrthoPolynomialBase&#45;&gt;Chebyshev2D -->
<g id="edge2" class="edge"><title>OrthoPolynomialBase&#45;&gt;Chebyshev2D</title>
<path fill="none" stroke="black" stroke-width="0.5" d="M453.861,-46C464.375,-46 475.187,-46 485.265,-46"/>
<polygon fill="black" stroke="black" stroke-width="0.5" points="485.463,-47.7501 490.463,-46 485.463,-44.2501 485.463,-47.7501"/>
</g>
<!-- Legendre2D -->
<g id="node9" class="node"><title>Legendre2D</title>
<g id="a_node9"><a xlink:href="../api/astropy.modeling.polynomial.Legendre2D.html#astropy.modeling.polynomial.Legendre2D" xlink:title="Legendre 2D polynomial.">
<polygon fill="none" stroke="black" stroke-width="0.5" points="569.5,-18.5 494.5,-18.5 494.5,0.5 569.5,0.5 569.5,-18.5"/>
<text text-anchor="middle" x="532" y="-6.5" font-family="Vera Sans, DejaVu Sans, Liberation Sans, Arial, Helvetica, sans" font-size="10.00">Legendre2D</text>
</a>
</g>
</g>
<!-- OrthoPolynomialBase&#45;&gt;Legendre2D -->
<g id="edge6" class="edge"><title>OrthoPolynomialBase&#45;&gt;Legendre2D</title>
<path fill="none" stroke="black" stroke-width="0.5" d="M429.319,-36.6633C448.324,-31.4926 472.027,-25.0442 491.765,-19.6742"/>
<polygon fill="black" stroke="black" stroke-width="0.5" points="492.327,-21.335 496.692,-18.3337 491.408,-17.9577 492.327,-21.335"/>
</g>
<!-- FittableModel -->
<g id="node5" class="node"><title>FittableModel</title>
<g id="a_node5"><a xlink:href="../api/astropy.modeling.FittableModel.html#astropy.modeling.FittableModel" xlink:title="Base class for models that can be fitted using the built&#45;in fitting">
<polygon fill="none" stroke="black" stroke-width="0.5" points="170,-92.5 90,-92.5 90,-73.5 170,-73.5 170,-92.5"/>
<text text-anchor="middle" x="130" y="-80.5" font-family="Vera Sans, DejaVu Sans, Liberation Sans, Arial, Helvetica, sans" font-size="10.00">FittableModel</text>
</a>
</g>
</g>
<!-- PolynomialBase -->
<g id="node10" class="node"><title>PolynomialBase</title>
<g id="a_node10"><a xlink:title="Base class for all polynomial&#45;like models with an arbitrary number of">
<polygon fill="none" stroke="black" stroke-width="0.5" points="298,-92.5 206,-92.5 206,-73.5 298,-73.5 298,-92.5"/>
<text text-anchor="middle" x="252" y="-80.5" font-family="Vera Sans, DejaVu Sans, Liberation Sans, Arial, Helvetica, sans" font-size="10.00">PolynomialBase</text>
</a>
</g>
</g>
<!-- FittableModel&#45;&gt;PolynomialBase -->
<g id="edge10" class="edge"><title>FittableModel&#45;&gt;PolynomialBase</title>
<path fill="none" stroke="black" stroke-width="0.5" d="M170.292,-83C179.955,-83 190.434,-83 200.542,-83"/>
<polygon fill="black" stroke="black" stroke-width="0.5" points="200.788,-84.7501 205.788,-83 200.788,-81.2501 200.788,-84.7501"/>
</g>
<!-- Model -->
<g id="node6" class="node"><title>Model</title>
<g id="a_node6"><a xlink:href="../api/astropy.modeling.Model.html#astropy.modeling.Model" xlink:title="Base class for all models.">
<polygon fill="none" stroke="black" stroke-width="0.5" points="54,-55.5 0,-55.5 0,-36.5 54,-36.5 54,-55.5"/>
<text text-anchor="middle" x="27" y="-43.5" font-family="Vera Sans, DejaVu Sans, Liberation Sans, Arial, Helvetica, sans" font-size="10.00">Model</text>
</a>
</g>
</g>
<!-- Model&#45;&gt;FittableModel -->
<g id="edge3" class="edge"><title>Model&#45;&gt;FittableModel</title>
<path fill="none" stroke="black" stroke-width="0.5" d="M53.4866,-55.3367C67.2424,-60.3759 84.3109,-66.6287 98.7386,-71.9141"/>
<polygon fill="black" stroke="black" stroke-width="0.5" points="98.2247,-73.5896 103.522,-73.6663 99.4287,-70.3031 98.2247,-73.5896"/>
</g>
<!-- InverseSIP -->
<g id="node7" class="node"><title>InverseSIP</title>
<g id="a_node7"><a xlink:href="../api/astropy.modeling.polynomial.InverseSIP.html#astropy.modeling.polynomial.InverseSIP" xlink:title="Inverse Simple Imaging Polynomial">
<polygon fill="none" stroke="black" stroke-width="0.5" points="163,-55.5 97,-55.5 97,-36.5 163,-36.5 163,-55.5"/>
<text text-anchor="middle" x="130" y="-43.5" font-family="Vera Sans, DejaVu Sans, Liberation Sans, Arial, Helvetica, sans" font-size="10.00">InverseSIP</text>
</a>
</g>
</g>
<!-- Model&#45;&gt;InverseSIP -->
<g id="edge4" class="edge"><title>Model&#45;&gt;InverseSIP</title>
<path fill="none" stroke="black" stroke-width="0.5" d="M54.01,-46C65.4659,-46 79.1403,-46 91.6559,-46"/>
<polygon fill="black" stroke="black" stroke-width="0.5" points="91.9389,-47.7501 96.9389,-46 91.9389,-44.2501 91.9389,-47.7501"/>
</g>
<!-- SIP -->
<g id="node13" class="node"><title>SIP</title>
<g id="a_node13"><a xlink:href="../api/astropy.modeling.polynomial.SIP.html#astropy.modeling.polynomial.SIP" xlink:title="Simple Imaging Polynomial (SIP) model.">
<polygon fill="none" stroke="black" stroke-width="0.5" points="157,-18.5 103,-18.5 103,0.5 157,0.5 157,-18.5"/>
<text text-anchor="middle" x="130" y="-6.5" font-family="Vera Sans, DejaVu Sans, Liberation Sans, Arial, Helvetica, sans" font-size="10.00">SIP</text>
</a>
</g>
</g>
<!-- Model&#45;&gt;SIP -->
<g id="edge12" class="edge"><title>Model&#45;&gt;SIP</title>
<path fill="none" stroke="black" stroke-width="0.5" d="M53.4866,-36.6633C67.2424,-31.6241 84.3109,-25.3713 98.7386,-20.0859"/>
<polygon fill="black" stroke="black" stroke-width="0.5" points="99.4287,-21.6969 103.522,-18.3337 98.2247,-18.4104 99.4287,-21.6969"/>
</g>
<!-- PolynomialBase&#45;&gt;PolynomialModel -->
<g id="edge11" class="edge"><title>PolynomialBase&#45;&gt;PolynomialModel</title>
<path fill="none" stroke="black" stroke-width="0.5" d="M288.328,-92.3367C307.893,-97.5074 332.292,-103.956 352.611,-109.326"/>
<polygon fill="black" stroke="black" stroke-width="0.5" points="352.402,-111.081 357.683,-110.666 353.297,-107.697 352.402,-111.081"/>
</g>
<!-- PolynomialBase&#45;&gt;OrthoPolynomialBase -->
<g id="edge7" class="edge"><title>PolynomialBase&#45;&gt;OrthoPolynomialBase</title>
<path fill="none" stroke="black" stroke-width="0.5" d="M288.328,-73.6633C307.893,-68.4926 332.292,-62.0442 352.611,-56.6742"/>
<polygon fill="black" stroke="black" stroke-width="0.5" points="353.297,-58.3032 357.683,-55.3337 352.402,-54.9194 353.297,-58.3032"/>
</g>
</g>
</svg>
