<?xml version="1.0" encoding="UTF-8" standalone="no"?>
<!DOCTYPE svg PUBLIC "-//W3C//DTD SVG 1.1//EN"
 "http://www.w3.org/Graphics/SVG/1.1/DTD/svg11.dtd">
<!-- Generated by graphviz version 2.36.0 (20140111.2315)
 -->
<!-- Title: inheritanced1c8716f0d Pages: 1 -->
<svg width="318pt" height="155pt"
 viewBox="0.00 0.00 318.00 155.00" xmlns="http://www.w3.org/2000/svg" xmlns:xlink="http://www.w3.org/1999/xlink">
<g id="graph0" class="graph" transform="scale(1 1) rotate(0) translate(4 151)">
<title>inheritanced1c8716f0d</title>
<polygon fill="white" stroke="none" points="-4,4 -4,-151 314,-151 314,4 -4,4"/>
<!-- AstropyWarning -->
<g id="node1" class="node"><title>AstropyWarning</title>
<g id="a_node1"><a xlink:href="../api/astropy.utils.exceptions.AstropyWarning.html#astropy.utils.exceptions.AstropyWarning" xlink:title="The base warning class from which all Astropy warnings should inherit.">
<polygon fill="none" stroke="black" stroke-width="0.5" points="97.5,-36.5 6.5,-36.5 6.5,-17.5 97.5,-17.5 97.5,-36.5"/>
<text text-anchor="middle" x="52" y="-24.5" font-family="Vera Sans, DejaVu Sans, Liberation Sans, Arial, Helvetica, sans" font-size="10.00">AstropyWarning</text>
</a>
</g>
</g>
<!-- ConfigurationMissingWarning -->
<g id="node6" class="node"><title>ConfigurationMissingWarning</title>
<g id="a_node6"><a xlink:href="../api/astropy.config.ConfigurationMissingWarning.html#astropy.config.ConfigurationMissingWarning" xlink:title="A Warning that is issued when the configuration directory cannot be">
<polygon fill="none" stroke="black" stroke-width="0.5" points="301.5,-55.5 148.5,-55.5 148.5,-36.5 301.5,-36.5 301.5,-55.5"/>
<text text-anchor="middle" x="225" y="-43.5" font-family="Vera Sans, DejaVu Sans, Liberation Sans, Arial, Helvetica, sans" font-size="10.00">ConfigurationMissingWarning</text>
</a>
</g>
</g>
<!-- AstropyWarning&#45;&gt;ConfigurationMissingWarning -->
<g id="edge3" class="edge"><title>AstropyWarning&#45;&gt;ConfigurationMissingWarning</title>
<path fill="none" stroke="black" stroke-width="0.5" d="M97.9282,-31.992C111.797,-33.533 127.52,-35.28 143.043,-37.0048"/>
<polygon fill="black" stroke="black" stroke-width="0.5" points="143.134,-38.7756 148.297,-37.5885 143.521,-35.297 143.134,-38.7756"/>
</g>
<!-- InvalidConfigurationItemWarning -->
<g id="node7" class="node"><title>InvalidConfigurationItemWarning</title>
<g id="a_node7"><a xlink:href="../api/astropy.config.InvalidConfigurationItemWarning.html#astropy.config.InvalidConfigurationItemWarning" xlink:title="A Warning that is issued when the configuration value specified in the">
<polygon fill="none" stroke="black" stroke-width="0.5" points="310,-18.5 140,-18.5 140,0.5 310,0.5 310,-18.5"/>
<text text-anchor="middle" x="225" y="-6.5" font-family="Vera Sans, DejaVu Sans, Liberation Sans, Arial, Helvetica, sans" font-size="10.00">InvalidConfigurationItemWarning</text>
</a>
</g>
</g>
<!-- AstropyWarning&#45;&gt;InvalidConfigurationItemWarning -->
<g id="edge4" class="edge"><title>AstropyWarning&#45;&gt;InvalidConfigurationItemWarning</title>
<path fill="none" stroke="black" stroke-width="0.5" d="M97.9282,-22.2707C109.372,-21.0661 122.078,-19.7286 134.893,-18.3797"/>
<polygon fill="black" stroke="black" stroke-width="0.5" points="135.21,-20.1061 139.999,-17.8422 134.843,-16.6253 135.21,-20.1061"/>
</g>
<!-- ConfigAlias -->
<g id="node2" class="node"><title>ConfigAlias</title>
<g id="a_node2"><a xlink:href="../api/astropy.config.ConfigAlias.html#astropy.config.ConfigAlias" xlink:title="A class that exists to support backward compatibility only.">
<polygon fill="none" stroke="black" stroke-width="0.5" points="259.5,-129.5 190.5,-129.5 190.5,-110.5 259.5,-110.5 259.5,-129.5"/>
<text text-anchor="middle" x="225" y="-117.5" font-family="Vera Sans, DejaVu Sans, Liberation Sans, Arial, Helvetica, sans" font-size="10.00">ConfigAlias</text>
</a>
</g>
</g>
<!-- ConfigItem -->
<g id="node3" class="node"><title>ConfigItem</title>
<g id="a_node3"><a xlink:href="../api/astropy.config.ConfigItem.html#astropy.config.ConfigItem" xlink:title="A setting and associated value stored in a configuration file.">
<polygon fill="none" stroke="black" stroke-width="0.5" points="86,-110.5 18,-110.5 18,-91.5 86,-91.5 86,-110.5"/>
<text text-anchor="middle" x="52" y="-98.5" font-family="Vera Sans, DejaVu Sans, Liberation Sans, Arial, Helvetica, sans" font-size="10.00">ConfigItem</text>
</a>
</g>
</g>
<!-- ConfigItem&#45;&gt;ConfigAlias -->
<g id="edge1" class="edge"><title>ConfigItem&#45;&gt;ConfigAlias</title>
<path fill="none" stroke="black" stroke-width="0.5" d="M86.3765,-104.708C114.767,-107.863 155.558,-112.395 185.359,-115.707"/>
<polygon fill="black" stroke="black" stroke-width="0.5" points="185.253,-117.455 190.416,-116.268 185.64,-113.977 185.253,-117.455"/>
</g>
<!-- ConfigurationItem -->
<g id="node5" class="node"><title>ConfigurationItem</title>
<g id="a_node5"><a xlink:href="../api/astropy.config.ConfigurationItem.html#astropy.config.ConfigurationItem" xlink:title="A backward&#45;compatibility layer to support the old">
<polygon fill="none" stroke="black" stroke-width="0.5" points="276,-92.5 174,-92.5 174,-73.5 276,-73.5 276,-92.5"/>
<text text-anchor="middle" x="225" y="-80.5" font-family="Vera Sans, DejaVu Sans, Liberation Sans, Arial, Helvetica, sans" font-size="10.00">ConfigurationItem</text>
</a>
</g>
</g>
<!-- ConfigItem&#45;&gt;ConfigurationItem -->
<g id="edge2" class="edge"><title>ConfigItem&#45;&gt;ConfigurationItem</title>
<path fill="none" stroke="black" stroke-width="0.5" d="M86.3765,-97.4867C109.801,-95.021 141.665,-91.6668 168.834,-88.8069"/>
<polygon fill="black" stroke="black" stroke-width="0.5" points="169.06,-90.5429 173.85,-88.279 168.694,-87.0621 169.06,-90.5429"/>
</g>
<!-- ConfigNamespace -->
<g id="node4" class="node"><title>ConfigNamespace</title>
<g id="a_node4"><a xlink:href="../api/astropy.config.ConfigNamespace.html#astropy.config.ConfigNamespace" xlink:title="A namespace of configuration items. &#160;Each subpackage with">
<polygon fill="none" stroke="black" stroke-width="0.5" points="104,-147.5 0,-147.5 0,-128.5 104,-128.5 104,-147.5"/>
<text text-anchor="middle" x="52" y="-135.5" font-family="Vera Sans, DejaVu Sans, Liberation Sans, Arial, Helvetica, sans" font-size="10.00">ConfigNamespace</text>
</a>
</g>
</g>
</g>
</svg>
