<?xml version="1.0" encoding="UTF-8" standalone="no"?>
<!DOCTYPE svg PUBLIC "-//W3C//DTD SVG 1.1//EN"
 "http://www.w3.org/Graphics/SVG/1.1/DTD/svg11.dtd">
<!-- Generated by graphviz version 2.36.0 (20140111.2315)
 -->
<!-- Title: inheritance0f2ce7df59 Pages: 1 -->
<svg width="478pt" height="174pt"
 viewBox="0.00 0.00 478.00 174.00" xmlns="http://www.w3.org/2000/svg" xmlns:xlink="http://www.w3.org/1999/xlink">
<g id="graph0" class="graph" transform="scale(1 1) rotate(0) translate(4 170)">
<title>inheritance0f2ce7df59</title>
<polygon fill="white" stroke="none" points="-4,4 -4,-170 474,-170 474,4 -4,4"/>
<!-- Cosmology -->
<g id="node1" class="node"><title>Cosmology</title>
<g id="a_node1"><a xlink:title="Placeholder for when a more general Cosmology class is">
<polygon fill="none" stroke="black" stroke-width="0.5" points="75,-92.5 5,-92.5 5,-73.5 75,-73.5 75,-92.5"/>
<text text-anchor="middle" x="40" y="-80.5" font-family="Vera Sans, DejaVu Sans, Liberation Sans, Arial, Helvetica, sans" font-size="10.00">Cosmology</text>
</a>
</g>
</g>
<!-- FLRW -->
<g id="node2" class="node"><title>FLRW</title>
<g id="a_node2"><a xlink:href="../api/astropy.cosmology.FLRW.html#astropy.cosmology.FLRW" xlink:title="A class describing an isotropic and homogeneous">
<polygon fill="none" stroke="black" stroke-width="0.5" points="197,-92.5 143,-92.5 143,-73.5 197,-73.5 197,-92.5"/>
<text text-anchor="middle" x="170" y="-80.5" font-family="Vera Sans, DejaVu Sans, Liberation Sans, Arial, Helvetica, sans" font-size="10.00">FLRW</text>
</a>
</g>
</g>
<!-- Cosmology&#45;&gt;FLRW -->
<g id="edge1" class="edge"><title>Cosmology&#45;&gt;FLRW</title>
<path fill="none" stroke="black" stroke-width="0.5" d="M75.3017,-83C94.6607,-83 118.678,-83 137.55,-83"/>
<polygon fill="black" stroke="black" stroke-width="0.5" points="137.728,-84.7501 142.728,-83 137.728,-81.2501 137.728,-84.7501"/>
</g>
<!-- LambdaCDM -->
<g id="node4" class="node"><title>LambdaCDM</title>
<g id="a_node4"><a xlink:href="../api/astropy.cosmology.LambdaCDM.html#astropy.cosmology.LambdaCDM" xlink:title="FLRW cosmology with a cosmological constant and curvature.">
<polygon fill="none" stroke="black" stroke-width="0.5" points="338,-166.5 260,-166.5 260,-147.5 338,-147.5 338,-166.5"/>
<text text-anchor="middle" x="299" y="-154.5" font-family="Vera Sans, DejaVu Sans, Liberation Sans, Arial, Helvetica, sans" font-size="10.00">LambdaCDM</text>
</a>
</g>
</g>
<!-- FLRW&#45;&gt;LambdaCDM -->
<g id="edge5" class="edge"><title>FLRW&#45;&gt;LambdaCDM</title>
<path fill="none" stroke="black" stroke-width="0.5" d="M197.174,-89.2103C206.097,-92.0076 215.866,-95.8633 224,-101 243.4,-113.251 241.479,-124.457 260,-138 263.673,-140.686 267.782,-143.18 271.904,-145.42"/>
<polygon fill="black" stroke="black" stroke-width="0.5" points="271.12,-146.984 276.362,-147.747 272.74,-143.882 271.12,-146.984"/>
</g>
<!-- w0waCDM -->
<g id="node6" class="node"><title>w0waCDM</title>
<g id="a_node6"><a xlink:href="../api/astropy.cosmology.w0waCDM.html#astropy.cosmology.w0waCDM" xlink:title="FLRW cosmology with a CPL dark energy equation of state and curvature.">
<polygon fill="none" stroke="black" stroke-width="0.5" points="331.5,-129.5 266.5,-129.5 266.5,-110.5 331.5,-110.5 331.5,-129.5"/>
<text text-anchor="middle" x="299" y="-117.5" font-family="Vera Sans, DejaVu Sans, Liberation Sans, Arial, Helvetica, sans" font-size="10.00">w0waCDM</text>
</a>
</g>
</g>
<!-- FLRW&#45;&gt;w0waCDM -->
<g id="edge7" class="edge"><title>FLRW&#45;&gt;w0waCDM</title>
<path fill="none" stroke="black" stroke-width="0.5" d="M197.007,-90.5768C215.549,-95.979 240.737,-103.317 261.32,-109.314"/>
<polygon fill="black" stroke="black" stroke-width="0.5" points="260.885,-111.01 266.175,-110.728 261.864,-107.649 260.885,-111.01"/>
</g>
<!-- wCDM -->
<g id="node8" class="node"><title>wCDM</title>
<g id="a_node8"><a xlink:href="../api/astropy.cosmology.wCDM.html#astropy.cosmology.wCDM" xlink:title="FLRW cosmology with a constant dark energy equation of state">
<polygon fill="none" stroke="black" stroke-width="0.5" points="326,-92.5 272,-92.5 272,-73.5 326,-73.5 326,-92.5"/>
<text text-anchor="middle" x="299" y="-80.5" font-family="Vera Sans, DejaVu Sans, Liberation Sans, Arial, Helvetica, sans" font-size="10.00">wCDM</text>
</a>
</g>
</g>
<!-- FLRW&#45;&gt;wCDM -->
<g id="edge9" class="edge"><title>FLRW&#45;&gt;wCDM</title>
<path fill="none" stroke="black" stroke-width="0.5" d="M197.007,-83C217.162,-83 245.168,-83 266.577,-83"/>
<polygon fill="black" stroke="black" stroke-width="0.5" points="266.592,-84.7501 271.592,-83 266.591,-81.2501 266.592,-84.7501"/>
</g>
<!-- w0wzCDM -->
<g id="node11" class="node"><title>w0wzCDM</title>
<g id="a_node11"><a xlink:href="../api/astropy.cosmology.w0wzCDM.html#astropy.cosmology.w0wzCDM" xlink:title="FLRW cosmology with a variable dark energy equation of state">
<polygon fill="none" stroke="black" stroke-width="0.5" points="331,-55.5 267,-55.5 267,-36.5 331,-36.5 331,-55.5"/>
<text text-anchor="middle" x="299" y="-43.5" font-family="Vera Sans, DejaVu Sans, Liberation Sans, Arial, Helvetica, sans" font-size="10.00">w0wzCDM</text>
</a>
</g>
</g>
<!-- FLRW&#45;&gt;w0wzCDM -->
<g id="edge8" class="edge"><title>FLRW&#45;&gt;w0wzCDM</title>
<path fill="none" stroke="black" stroke-width="0.5" d="M197.007,-75.4232C215.684,-69.9819 241.103,-62.5764 261.766,-56.5562"/>
<polygon fill="black" stroke="black" stroke-width="0.5" points="262.328,-58.2156 266.639,-55.1368 261.349,-54.8553 262.328,-58.2156"/>
</g>
<!-- wpwaCDM -->
<g id="node12" class="node"><title>wpwaCDM</title>
<g id="a_node12"><a xlink:href="../api/astropy.cosmology.wpwaCDM.html#astropy.cosmology.wpwaCDM" xlink:title="FLRW cosmology with a CPL dark energy equation of state, a pivot">
<polygon fill="none" stroke="black" stroke-width="0.5" points="331.5,-18.5 266.5,-18.5 266.5,0.5 331.5,0.5 331.5,-18.5"/>
<text text-anchor="middle" x="299" y="-6.5" font-family="Vera Sans, DejaVu Sans, Liberation Sans, Arial, Helvetica, sans" font-size="10.00">wpwaCDM</text>
</a>
</g>
</g>
<!-- FLRW&#45;&gt;wpwaCDM -->
<g id="edge10" class="edge"><title>FLRW&#45;&gt;wpwaCDM</title>
<path fill="none" stroke="black" stroke-width="0.5" d="M184.568,-73.749C201.76,-62.1945 232.474,-42.1088 260,-27 264.042,-24.7816 268.402,-22.5622 272.677,-20.4774"/>
<polygon fill="black" stroke="black" stroke-width="0.5" points="273.515,-22.0165 277.265,-18.2744 272,-18.8615 273.515,-22.0165"/>
</g>
<!-- FlatLambdaCDM -->
<g id="node3" class="node"><title>FlatLambdaCDM</title>
<g id="a_node3"><a xlink:href="../api/astropy.cosmology.FlatLambdaCDM.html#astropy.cosmology.FlatLambdaCDM" xlink:title="FLRW cosmology with a cosmological constant and no curvature.">
<polygon fill="none" stroke="black" stroke-width="0.5" points="469.5,-166.5 374.5,-166.5 374.5,-147.5 469.5,-147.5 469.5,-166.5"/>
<text text-anchor="middle" x="422" y="-154.5" font-family="Vera Sans, DejaVu Sans, Liberation Sans, Arial, Helvetica, sans" font-size="10.00">FlatLambdaCDM</text>
</a>
</g>
</g>
<!-- LambdaCDM&#45;&gt;FlatLambdaCDM -->
<g id="edge2" class="edge"><title>LambdaCDM&#45;&gt;FlatLambdaCDM</title>
<path fill="none" stroke="black" stroke-width="0.5" d="M338.285,-157C348.162,-157 358.957,-157 369.39,-157"/>
<polygon fill="black" stroke="black" stroke-width="0.5" points="369.478,-158.75 374.478,-157 369.478,-155.25 369.478,-158.75"/>
</g>
<!-- Flatw0waCDM -->
<g id="node5" class="node"><title>Flatw0waCDM</title>
<g id="a_node5"><a xlink:href="../api/astropy.cosmology.Flatw0waCDM.html#astropy.cosmology.Flatw0waCDM" xlink:title="FLRW cosmology with a CPL dark energy equation of state and no curvature.">
<polygon fill="none" stroke="black" stroke-width="0.5" points="463,-129.5 381,-129.5 381,-110.5 463,-110.5 463,-129.5"/>
<text text-anchor="middle" x="422" y="-117.5" font-family="Vera Sans, DejaVu Sans, Liberation Sans, Arial, Helvetica, sans" font-size="10.00">Flatw0waCDM</text>
</a>
</g>
</g>
<!-- w0waCDM&#45;&gt;Flatw0waCDM -->
<g id="edge3" class="edge"><title>w0waCDM&#45;&gt;Flatw0waCDM</title>
<path fill="none" stroke="black" stroke-width="0.5" d="M331.791,-120C345.137,-120 360.908,-120 375.45,-120"/>
<polygon fill="black" stroke="black" stroke-width="0.5" points="375.746,-121.75 380.746,-120 375.745,-118.25 375.746,-121.75"/>
</g>
<!-- FlatwCDM -->
<g id="node7" class="node"><title>FlatwCDM</title>
<g id="a_node7"><a xlink:href="../api/astropy.cosmology.FlatwCDM.html#astropy.cosmology.FlatwCDM" xlink:title="FLRW cosmology with a constant dark energy equation of state">
<polygon fill="none" stroke="black" stroke-width="0.5" points="453.5,-92.5 390.5,-92.5 390.5,-73.5 453.5,-73.5 453.5,-92.5"/>
<text text-anchor="middle" x="422" y="-80.5" font-family="Vera Sans, DejaVu Sans, Liberation Sans, Arial, Helvetica, sans" font-size="10.00">FlatwCDM</text>
</a>
</g>
</g>
<!-- wCDM&#45;&gt;FlatwCDM -->
<g id="edge4" class="edge"><title>wCDM&#45;&gt;FlatwCDM</title>
<path fill="none" stroke="black" stroke-width="0.5" d="M326.255,-83C343.409,-83 366.04,-83 384.881,-83"/>
<polygon fill="black" stroke="black" stroke-width="0.5" points="385.087,-84.7501 390.087,-83 385.087,-81.2501 385.087,-84.7501"/>
</g>
<!-- ScienceState -->
<g id="node9" class="node"><title>ScienceState</title>
<g id="a_node9"><a xlink:href="../api/astropy.utils.state.ScienceState.html#astropy.utils.state.ScienceState" xlink:title="Science state subclasses are used to manage global items that can">
<polygon fill="none" stroke="black" stroke-width="0.5" points="80,-129.5 0,-129.5 0,-110.5 80,-110.5 80,-129.5"/>
<text text-anchor="middle" x="40" y="-117.5" font-family="Vera Sans, DejaVu Sans, Liberation Sans, Arial, Helvetica, sans" font-size="10.00">ScienceState</text>
</a>
</g>
</g>
<!-- default_cosmology -->
<g id="node10" class="node"><title>default_cosmology</title>
<g id="a_node10"><a xlink:href="../api/astropy.cosmology.default_cosmology.html#astropy.cosmology.default_cosmology" xlink:title="The default cosmology to use. &#160;To change it::">
<polygon fill="none" stroke="black" stroke-width="0.5" points="223.5,-129.5 116.5,-129.5 116.5,-110.5 223.5,-110.5 223.5,-129.5"/>
<text text-anchor="middle" x="170" y="-117.5" font-family="Vera Sans, DejaVu Sans, Liberation Sans, Arial, Helvetica, sans" font-size="10.00">default_cosmology</text>
</a>
</g>
</g>
<!-- ScienceState&#45;&gt;default_cosmology -->
<g id="edge6" class="edge"><title>ScienceState&#45;&gt;default_cosmology</title>
<path fill="none" stroke="black" stroke-width="0.5" d="M80.0997,-120C89.9561,-120 100.746,-120 111.305,-120"/>
<polygon fill="black" stroke="black" stroke-width="0.5" points="111.464,-121.75 116.464,-120 111.464,-118.25 111.464,-121.75"/>
</g>
</g>
</svg>
