<?xml version="1.0" encoding="UTF-8" standalone="no"?>
<!DOCTYPE svg PUBLIC "-//W3C//DTD SVG 1.1//EN"
 "http://www.w3.org/Graphics/SVG/1.1/DTD/svg11.dtd">
<!-- Generated by graphviz version 2.36.0 (20140111.2315)
 -->
<!-- Title: inheritance3ceb671924 Pages: 1 -->
<svg width="484pt" height="183pt"
 viewBox="0.00 0.00 484.00 183.00" xmlns="http://www.w3.org/2000/svg" xmlns:xlink="http://www.w3.org/1999/xlink">
<g id="graph0" class="graph" transform="scale(1 1) rotate(0) translate(4 179)">
<title>inheritance3ceb671924</title>
<polygon fill="white" stroke="none" points="-4,4 -4,-179 480,-179 480,4 -4,4"/>
<!-- AstropyWarning -->
<g id="node1" class="node"><title>AstropyWarning</title>
<g id="a_node1"><a xlink:href="../api/astropy.utils.exceptions.AstropyWarning.html#astropy.utils.exceptions.AstropyWarning" xlink:title="The base warning class from which all Astropy warnings should inherit.">
<polygon fill="none" stroke="black" stroke-width="0.5" points="91.5,-18.5 0.5,-18.5 0.5,0.5 91.5,0.5 91.5,-18.5"/>
<text text-anchor="middle" x="46" y="-6.5" font-family="Vera Sans, DejaVu Sans, Liberation Sans, Arial, Helvetica, sans" font-size="10.00">AstropyWarning</text>
</a>
</g>
</g>
<!-- UnitsWarning -->
<g id="node11" class="node"><title>UnitsWarning</title>
<g id="a_node11"><a xlink:href="../api/astropy.units.UnitsWarning.html#astropy.units.UnitsWarning" xlink:title="The base class for unit&#45;specific exceptions.">
<polygon fill="none" stroke="black" stroke-width="0.5" points="211.5,-18.5 132.5,-18.5 132.5,0.5 211.5,0.5 211.5,-18.5"/>
<text text-anchor="middle" x="172" y="-6.5" font-family="Vera Sans, DejaVu Sans, Liberation Sans, Arial, Helvetica, sans" font-size="10.00">UnitsWarning</text>
</a>
</g>
</g>
<!-- AstropyWarning&#45;&gt;UnitsWarning -->
<g id="edge7" class="edge"><title>AstropyWarning&#45;&gt;UnitsWarning</title>
<path fill="none" stroke="black" stroke-width="0.5" d="M91.7668,-9C103.317,-9 115.734,-9 127.233,-9"/>
<polygon fill="black" stroke="black" stroke-width="0.5" points="127.445,-10.7501 132.445,-9 127.445,-7.2501 127.445,-10.7501"/>
</g>
<!-- CompositeUnit -->
<g id="node2" class="node"><title>CompositeUnit</title>
<g id="a_node2"><a xlink:href="../api/astropy.units.CompositeUnit.html#astropy.units.CompositeUnit" xlink:title="Create a composite unit using expressions of previously defined">
<polygon fill="none" stroke="black" stroke-width="0.5" points="216,-101.5 128,-101.5 128,-82.5 216,-82.5 216,-101.5"/>
<text text-anchor="middle" x="172" y="-89.5" font-family="Vera Sans, DejaVu Sans, Liberation Sans, Arial, Helvetica, sans" font-size="10.00">CompositeUnit</text>
</a>
</g>
</g>
<!-- UnitBase -->
<g id="node3" class="node"><title>UnitBase</title>
<g id="a_node3"><a xlink:href="../api/astropy.units.UnitBase.html#astropy.units.UnitBase" xlink:title="Abstract base class for units.">
<polygon fill="none" stroke="black" stroke-width="0.5" points="76,-73.5 16,-73.5 16,-54.5 76,-54.5 76,-73.5"/>
<text text-anchor="middle" x="46" y="-61.5" font-family="Vera Sans, DejaVu Sans, Liberation Sans, Arial, Helvetica, sans" font-size="10.00">UnitBase</text>
</a>
</g>
</g>
<!-- UnitBase&#45;&gt;CompositeUnit -->
<g id="edge1" class="edge"><title>UnitBase&#45;&gt;CompositeUnit</title>
<path fill="none" stroke="black" stroke-width="0.5" d="M76.0725,-70.5648C90.6039,-73.846 108.535,-77.895 124.885,-81.587"/>
<polygon fill="black" stroke="black" stroke-width="0.5" points="124.641,-83.3258 129.904,-82.7202 125.412,-79.9118 124.641,-83.3258"/>
</g>
<!-- NamedUnit -->
<g id="node5" class="node"><title>NamedUnit</title>
<g id="a_node5"><a xlink:href="../api/astropy.units.NamedUnit.html#astropy.units.NamedUnit" xlink:title="The base class of units that have a name.">
<polygon fill="none" stroke="black" stroke-width="0.5" points="207.5,-64.5 136.5,-64.5 136.5,-45.5 207.5,-45.5 207.5,-64.5"/>
<text text-anchor="middle" x="172" y="-52.5" font-family="Vera Sans, DejaVu Sans, Liberation Sans, Arial, Helvetica, sans" font-size="10.00">NamedUnit</text>
</a>
</g>
</g>
<!-- UnitBase&#45;&gt;NamedUnit -->
<g id="edge3" class="edge"><title>UnitBase&#45;&gt;NamedUnit</title>
<path fill="none" stroke="black" stroke-width="0.5" d="M76.0725,-61.8899C92.4203,-60.7034 113.071,-59.2045 130.933,-57.9081"/>
<polygon fill="black" stroke="black" stroke-width="0.5" points="131.519,-59.6202 136.379,-57.5128 131.266,-56.1294 131.519,-59.6202"/>
</g>
<!-- IrreducibleUnit -->
<g id="node4" class="node"><title>IrreducibleUnit</title>
<g id="a_node4"><a xlink:href="../api/astropy.units.IrreducibleUnit.html#astropy.units.IrreducibleUnit" xlink:title="Irreducible units are the units that all other units are defined">
<polygon fill="none" stroke="black" stroke-width="0.5" points="338,-82.5 252,-82.5 252,-63.5 338,-63.5 338,-82.5"/>
<text text-anchor="middle" x="295" y="-70.5" font-family="Vera Sans, DejaVu Sans, Liberation Sans, Arial, Helvetica, sans" font-size="10.00">IrreducibleUnit</text>
</a>
</g>
</g>
<!-- UnrecognizedUnit -->
<g id="node12" class="node"><title>UnrecognizedUnit</title>
<g id="a_node12"><a xlink:href="../api/astropy.units.UnrecognizedUnit.html#astropy.units.UnrecognizedUnit" xlink:title="A unit that did not parse correctly. &#160;This allows for">
<polygon fill="none" stroke="black" stroke-width="0.5" points="476,-82.5 374,-82.5 374,-63.5 476,-63.5 476,-82.5"/>
<text text-anchor="middle" x="425" y="-70.5" font-family="Vera Sans, DejaVu Sans, Liberation Sans, Arial, Helvetica, sans" font-size="10.00">UnrecognizedUnit</text>
</a>
</g>
</g>
<!-- IrreducibleUnit&#45;&gt;UnrecognizedUnit -->
<g id="edge8" class="edge"><title>IrreducibleUnit&#45;&gt;UnrecognizedUnit</title>
<path fill="none" stroke="black" stroke-width="0.5" d="M338.267,-73C347.94,-73 358.366,-73 368.501,-73"/>
<polygon fill="black" stroke="black" stroke-width="0.5" points="368.77,-74.7501 373.77,-73 368.77,-71.2501 368.77,-74.7501"/>
</g>
<!-- NamedUnit&#45;&gt;IrreducibleUnit -->
<g id="edge2" class="edge"><title>NamedUnit&#45;&gt;IrreducibleUnit</title>
<path fill="none" stroke="black" stroke-width="0.5" d="M207.674,-60.1581C219.757,-61.9556 233.533,-64.0049 246.477,-65.9305"/>
<polygon fill="black" stroke="black" stroke-width="0.5" points="246.379,-67.685 251.582,-66.6899 246.894,-64.2231 246.379,-67.685"/>
</g>
<!-- Unit -->
<g id="node7" class="node"><title>Unit</title>
<g id="a_node7"><a xlink:href="../api/astropy.units.Unit.html#astropy.units.Unit" xlink:title="The main unit class.">
<polygon fill="none" stroke="black" stroke-width="0.5" points="322,-45.5 268,-45.5 268,-26.5 322,-26.5 322,-45.5"/>
<text text-anchor="middle" x="295" y="-33.5" font-family="Vera Sans, DejaVu Sans, Liberation Sans, Arial, Helvetica, sans" font-size="10.00">Unit</text>
</a>
</g>
</g>
<!-- NamedUnit&#45;&gt;Unit -->
<g id="edge6" class="edge"><title>NamedUnit&#45;&gt;Unit</title>
<path fill="none" stroke="black" stroke-width="0.5" d="M207.674,-49.5554C225.015,-46.8324 245.84,-43.5623 262.692,-40.9162"/>
<polygon fill="black" stroke="black" stroke-width="0.5" points="263.118,-42.6208 267.786,-40.1163 262.575,-39.1632 263.118,-42.6208"/>
</g>
<!-- PrefixUnit -->
<g id="node6" class="node"><title>PrefixUnit</title>
<g id="a_node6"><a xlink:href="../api/astropy.units.PrefixUnit.html#astropy.units.PrefixUnit" xlink:title="A unit that is simply a SI&#45;prefixed version of another unit.">
<polygon fill="none" stroke="black" stroke-width="0.5" points="456,-45.5 394,-45.5 394,-26.5 456,-26.5 456,-45.5"/>
<text text-anchor="middle" x="425" y="-33.5" font-family="Vera Sans, DejaVu Sans, Liberation Sans, Arial, Helvetica, sans" font-size="10.00">PrefixUnit</text>
</a>
</g>
</g>
<!-- Unit&#45;&gt;PrefixUnit -->
<g id="edge4" class="edge"><title>Unit&#45;&gt;PrefixUnit</title>
<path fill="none" stroke="black" stroke-width="0.5" d="M322.212,-36C341.361,-36 367.542,-36 388.556,-36"/>
<polygon fill="black" stroke="black" stroke-width="0.5" points="388.78,-37.7501 393.78,-36 388.78,-34.2501 388.78,-37.7501"/>
</g>
<!-- Quantity -->
<g id="node8" class="node"><title>Quantity</title>
<g id="a_node8"><a xlink:href="../api/astropy.units.quantity.Quantity.html#astropy.units.quantity.Quantity" xlink:title="A `Quantity` represents a number with some associated unit.">
<polygon fill="none" stroke="black" stroke-width="0.5" points="200.5,-138.5 143.5,-138.5 143.5,-119.5 200.5,-119.5 200.5,-138.5"/>
<text text-anchor="middle" x="172" y="-126.5" font-family="Vera Sans, DejaVu Sans, Liberation Sans, Arial, Helvetica, sans" font-size="10.00">Quantity</text>
</a>
</g>
</g>
<!-- ndarray -->
<g id="node9" class="node"><title>ndarray</title>
<g id="a_node9"><a xlink:title="ndarray(shape, dtype=float, buffer=None, offset=0,">
<polygon fill="none" stroke="black" stroke-width="0.5" points="73,-138.5 19,-138.5 19,-119.5 73,-119.5 73,-138.5"/>
<text text-anchor="middle" x="46" y="-126.5" font-family="Vera Sans, DejaVu Sans, Liberation Sans, Arial, Helvetica, sans" font-size="10.00">ndarray</text>
</a>
</g>
</g>
<!-- ndarray&#45;&gt;Quantity -->
<g id="edge5" class="edge"><title>ndarray&#45;&gt;Quantity</title>
<path fill="none" stroke="black" stroke-width="0.5" d="M73.2972,-129C92.3032,-129 118.099,-129 138.413,-129"/>
<polygon fill="black" stroke="black" stroke-width="0.5" points="138.452,-130.75 143.452,-129 138.451,-127.25 138.452,-130.75"/>
</g>
<!-- UnitsError -->
<g id="node10" class="node"><title>UnitsError</title>
<g id="a_node10"><a xlink:href="../api/astropy.units.UnitsError.html#astropy.units.UnitsError" xlink:title="The base class for unit&#45;specific exceptions.">
<polygon fill="none" stroke="black" stroke-width="0.5" points="78.5,-175.5 13.5,-175.5 13.5,-156.5 78.5,-156.5 78.5,-175.5"/>
<text text-anchor="middle" x="46" y="-163.5" font-family="Vera Sans, DejaVu Sans, Liberation Sans, Arial, Helvetica, sans" font-size="10.00">UnitsError</text>
</a>
</g>
</g>
</g>
</svg>
