<?xml version="1.0" encoding="UTF-8" standalone="no"?>
<!DOCTYPE svg PUBLIC "-//W3C//DTD SVG 1.1//EN"
 "http://www.w3.org/Graphics/SVG/1.1/DTD/svg11.dtd">
<!-- Generated by graphviz version 2.36.0 (20140111.2315)
 -->
<!-- Title: inheritance4e9cbd1ff0 Pages: 1 -->
<svg width="252pt" height="174pt"
 viewBox="0.00 0.00 252.00 174.00" xmlns="http://www.w3.org/2000/svg" xmlns:xlink="http://www.w3.org/1999/xlink">
<g id="graph0" class="graph" transform="scale(1 1) rotate(0) translate(4 170)">
<title>inheritance4e9cbd1ff0</title>
<polygon fill="white" stroke="none" points="-4,4 -4,-170 248,-170 248,4 -4,4"/>
<!-- Base -->
<g id="node1" class="node"><title>Base</title>
<g id="a_node1"><a xlink:href="../api/astropy.units.format.Base.html#astropy.units.format.Base" xlink:title="The abstract base class of all unit formats.">
<polygon fill="none" stroke="black" stroke-width="0.5" points="54,-110.5 0,-110.5 0,-91.5 54,-91.5 54,-110.5"/>
<text text-anchor="middle" x="27" y="-98.5" font-family="Vera Sans, DejaVu Sans, Liberation Sans, Arial, Helvetica, sans" font-size="10.00">Base</text>
</a>
</g>
</g>
<!-- CDS -->
<g id="node2" class="node"><title>CDS</title>
<g id="a_node2"><a xlink:href="../api/astropy.units.format.CDS.html#astropy.units.format.CDS" xlink:title="Support the `Centre de Données astronomiques de Strasbourg">
<polygon fill="none" stroke="black" stroke-width="0.5" points="145,-166.5 91,-166.5 91,-147.5 145,-147.5 145,-166.5"/>
<text text-anchor="middle" x="118" y="-154.5" font-family="Vera Sans, DejaVu Sans, Liberation Sans, Arial, Helvetica, sans" font-size="10.00">CDS</text>
</a>
</g>
</g>
<!-- Base&#45;&gt;CDS -->
<g id="edge1" class="edge"><title>Base&#45;&gt;CDS</title>
<path fill="none" stroke="black" stroke-width="0.5" d="M43.0976,-110.5C58.1478,-119.969 81.3197,-134.549 97.6983,-144.855"/>
<polygon fill="black" stroke="black" stroke-width="0.5" points="96.9614,-146.459 102.125,-147.641 98.8254,-143.497 96.9614,-146.459"/>
</g>
<!-- Console -->
<g id="node3" class="node"><title>Console</title>
<g id="a_node3"><a xlink:href="../api/astropy.units.format.Console.html#astropy.units.format.Console" xlink:title="Output&#45;only format for to display pretty formatting at the">
<polygon fill="none" stroke="black" stroke-width="0.5" points="145.5,-129.5 90.5,-129.5 90.5,-110.5 145.5,-110.5 145.5,-129.5"/>
<text text-anchor="middle" x="118" y="-117.5" font-family="Vera Sans, DejaVu Sans, Liberation Sans, Arial, Helvetica, sans" font-size="10.00">Console</text>
</a>
</g>
</g>
<!-- Base&#45;&gt;Console -->
<g id="edge2" class="edge"><title>Base&#45;&gt;Console</title>
<path fill="none" stroke="black" stroke-width="0.5" d="M54.2216,-106.598C64.0039,-108.686 75.2125,-111.079 85.4263,-113.26"/>
<polygon fill="black" stroke="black" stroke-width="0.5" points="85.0946,-114.978 90.3498,-114.311 85.8254,-111.555 85.0946,-114.978"/>
</g>
<!-- Generic -->
<g id="node5" class="node"><title>Generic</title>
<g id="a_node5"><a xlink:href="../api/astropy.units.format.Generic.html#astropy.units.format.Generic" xlink:title="A &quot;generic&quot; format.">
<polygon fill="none" stroke="black" stroke-width="0.5" points="145,-92.5 91,-92.5 91,-73.5 145,-73.5 145,-92.5"/>
<text text-anchor="middle" x="118" y="-80.5" font-family="Vera Sans, DejaVu Sans, Liberation Sans, Arial, Helvetica, sans" font-size="10.00">Generic</text>
</a>
</g>
</g>
<!-- Base&#45;&gt;Generic -->
<g id="edge4" class="edge"><title>Base&#45;&gt;Generic</title>
<path fill="none" stroke="black" stroke-width="0.5" d="M54.2216,-95.6968C64.1801,-93.6827 75.6169,-91.3696 85.9774,-89.2742"/>
<polygon fill="black" stroke="black" stroke-width="0.5" points="86.412,-90.9719 90.9659,-88.2653 85.7181,-87.5413 86.412,-90.9719"/>
</g>
<!-- Latex -->
<g id="node6" class="node"><title>Latex</title>
<g id="a_node6"><a xlink:href="../api/astropy.units.format.Latex.html#astropy.units.format.Latex" xlink:title="Output LaTeX to display the unit based on IAU style guidelines.">
<polygon fill="none" stroke="black" stroke-width="0.5" points="145,-55.5 91,-55.5 91,-36.5 145,-36.5 145,-55.5"/>
<text text-anchor="middle" x="118" y="-43.5" font-family="Vera Sans, DejaVu Sans, Liberation Sans, Arial, Helvetica, sans" font-size="10.00">Latex</text>
</a>
</g>
</g>
<!-- Base&#45;&gt;Latex -->
<g id="edge5" class="edge"><title>Base&#45;&gt;Latex</title>
<path fill="none" stroke="black" stroke-width="0.5" d="M43.0976,-91.67C58.0572,-82.4253 81.0408,-68.222 97.4015,-58.1114"/>
<polygon fill="black" stroke="black" stroke-width="0.5" points="98.4949,-59.493 101.828,-55.3758 96.6549,-56.5156 98.4949,-59.493"/>
</g>
<!-- Unicode -->
<g id="node8" class="node"><title>Unicode</title>
<g id="a_node8"><a xlink:href="../api/astropy.units.format.Unicode.html#astropy.units.format.Unicode" xlink:title="Output&#45;only format to display pretty formatting at the console">
<polygon fill="none" stroke="black" stroke-width="0.5" points="241,-166.5 185,-166.5 185,-147.5 241,-147.5 241,-166.5"/>
<text text-anchor="middle" x="213" y="-154.5" font-family="Vera Sans, DejaVu Sans, Liberation Sans, Arial, Helvetica, sans" font-size="10.00">Unicode</text>
</a>
</g>
</g>
<!-- Console&#45;&gt;Unicode -->
<g id="edge7" class="edge"><title>Console&#45;&gt;Unicode</title>
<path fill="none" stroke="black" stroke-width="0.5" d="M142.468,-129.337C155.024,-134.332 170.578,-140.52 183.788,-145.776"/>
<polygon fill="black" stroke="black" stroke-width="0.5" points="183.247,-147.444 188.54,-147.666 184.541,-144.192 183.247,-147.444"/>
</g>
<!-- Fits -->
<g id="node4" class="node"><title>Fits</title>
<g id="a_node4"><a xlink:href="../api/astropy.units.format.Fits.html#astropy.units.format.Fits" xlink:title="The FITS standard unit format.">
<polygon fill="none" stroke="black" stroke-width="0.5" points="240,-129.5 186,-129.5 186,-110.5 240,-110.5 240,-129.5"/>
<text text-anchor="middle" x="213" y="-117.5" font-family="Vera Sans, DejaVu Sans, Liberation Sans, Arial, Helvetica, sans" font-size="10.00">Fits</text>
</a>
</g>
</g>
<!-- Generic&#45;&gt;Fits -->
<g id="edge3" class="edge"><title>Generic&#45;&gt;Fits</title>
<path fill="none" stroke="black" stroke-width="0.5" d="M142.468,-92.3367C155.024,-97.3321 170.578,-103.52 183.788,-108.776"/>
<polygon fill="black" stroke="black" stroke-width="0.5" points="183.247,-110.444 188.54,-110.666 184.541,-107.192 183.247,-110.444"/>
</g>
<!-- OGIP -->
<g id="node7" class="node"><title>OGIP</title>
<g id="a_node7"><a xlink:href="../api/astropy.units.format.OGIP.html#astropy.units.format.OGIP" xlink:title="Support the units in `Office of Guest Investigator Programs (OGIP)">
<polygon fill="none" stroke="black" stroke-width="0.5" points="240,-92.5 186,-92.5 186,-73.5 240,-73.5 240,-92.5"/>
<text text-anchor="middle" x="213" y="-80.5" font-family="Vera Sans, DejaVu Sans, Liberation Sans, Arial, Helvetica, sans" font-size="10.00">OGIP</text>
</a>
</g>
</g>
<!-- Generic&#45;&gt;OGIP -->
<g id="edge6" class="edge"><title>Generic&#45;&gt;OGIP</title>
<path fill="none" stroke="black" stroke-width="0.5" d="M145.401,-83C156.392,-83 169.237,-83 180.698,-83"/>
<polygon fill="black" stroke="black" stroke-width="0.5" points="180.855,-84.7501 185.855,-83 180.855,-81.2501 180.855,-84.7501"/>
</g>
<!-- Unscaled -->
<g id="node9" class="node"><title>Unscaled</title>
<g id="a_node9"><a xlink:href="../api/astropy.units.format.Unscaled.html#astropy.units.format.Unscaled" xlink:title="A format that doesn&#39;t display the scale part of the unit, other">
<polygon fill="none" stroke="black" stroke-width="0.5" points="243.5,-55.5 182.5,-55.5 182.5,-36.5 243.5,-36.5 243.5,-55.5"/>
<text text-anchor="middle" x="213" y="-43.5" font-family="Vera Sans, DejaVu Sans, Liberation Sans, Arial, Helvetica, sans" font-size="10.00">Unscaled</text>
</a>
</g>
</g>
<!-- Generic&#45;&gt;Unscaled -->
<g id="edge8" class="edge"><title>Generic&#45;&gt;Unscaled</title>
<path fill="none" stroke="black" stroke-width="0.5" d="M142.468,-73.6633C155.024,-68.6679 170.578,-62.4799 183.788,-57.224"/>
<polygon fill="black" stroke="black" stroke-width="0.5" points="184.541,-58.8081 188.54,-55.3337 183.247,-55.556 184.541,-58.8081"/>
</g>
<!-- VOUnit -->
<g id="node10" class="node"><title>VOUnit</title>
<g id="a_node10"><a xlink:href="../api/astropy.units.format.VOUnit.html#astropy.units.format.VOUnit" xlink:title="The proposed IVOA standard for units used by the VO.">
<polygon fill="none" stroke="black" stroke-width="0.5" points="240,-18.5 186,-18.5 186,0.5 240,0.5 240,-18.5"/>
<text text-anchor="middle" x="213" y="-6.5" font-family="Vera Sans, DejaVu Sans, Liberation Sans, Arial, Helvetica, sans" font-size="10.00">VOUnit</text>
</a>
</g>
</g>
<!-- Generic&#45;&gt;VOUnit -->
<g id="edge9" class="edge"><title>Generic&#45;&gt;VOUnit</title>
<path fill="none" stroke="black" stroke-width="0.5" d="M133.355,-73.5824C137.543,-70.6546 142.052,-67.3205 146,-64 163.317,-49.4351 164.334,-42.1395 182,-28 184.912,-25.6693 188.123,-23.379 191.329,-21.2403"/>
<polygon fill="black" stroke="black" stroke-width="0.5" points="192.425,-22.6155 195.67,-18.4281 190.522,-19.6781 192.425,-22.6155"/>
</g>
</g>
</svg>
