<?xml version="1.0" encoding="UTF-8" standalone="no"?>
<!DOCTYPE svg PUBLIC "-//W3C//DTD SVG 1.1//EN"
 "http://www.w3.org/Graphics/SVG/1.1/DTD/svg11.dtd">
<!-- Generated by graphviz version 2.36.0 (20140111.2315)
 -->
<!-- Title: inheritance4f082ddd10 Pages: 1 -->
<svg width="576pt" height="382pt"
 viewBox="0.00 0.00 576.00 381.91" xmlns="http://www.w3.org/2000/svg" xmlns:xlink="http://www.w3.org/1999/xlink">
<g id="graph0" class="graph" transform="scale(0.782609 0.782609) rotate(0) translate(4 484)">
<title>inheritance4f082ddd10</title>
<polygon fill="white" stroke="none" points="-4,4 -4,-484 732,-484 732,4 -4,4"/>
<!-- OperandTypeError -->
<g id="node1" class="node"><title>OperandTypeError</title>
<g id="a_node1"><a xlink:href="../api/astropy.time.OperandTypeError.html#astropy.time.OperandTypeError" xlink:title="OperandTypeError">
<polygon fill="none" stroke="black" stroke-width="0.5" points="102,-18.5 7.10543e-15,-18.5 7.10543e-15,0.5 102,0.5 102,-18.5"/>
<text text-anchor="middle" x="51" y="-6.5" font-family="Vera Sans, DejaVu Sans, Liberation Sans, Arial, Helvetica, sans" font-size="10.00">OperandTypeError</text>
</a>
</g>
</g>
<!-- ScaleValueError -->
<g id="node2" class="node"><title>ScaleValueError</title>
<g id="a_node2"><a xlink:href="../api/astropy.time.ScaleValueError.html#astropy.time.ScaleValueError" xlink:title="ScaleValueError">
<polygon fill="none" stroke="black" stroke-width="0.5" points="97,-55.5 5,-55.5 5,-36.5 97,-36.5 97,-55.5"/>
<text text-anchor="middle" x="51" y="-43.5" font-family="Vera Sans, DejaVu Sans, Liberation Sans, Arial, Helvetica, sans" font-size="10.00">ScaleValueError</text>
</a>
</g>
</g>
<!-- Time -->
<g id="node3" class="node"><title>Time</title>
<g id="a_node3"><a xlink:href="../api/astropy.time.Time.html#astropy.time.Time" xlink:title="Represent and manipulate times and dates for astronomy.">
<polygon fill="none" stroke="black" stroke-width="0.5" points="78,-92.5 24,-92.5 24,-73.5 78,-73.5 78,-92.5"/>
<text text-anchor="middle" x="51" y="-80.5" font-family="Vera Sans, DejaVu Sans, Liberation Sans, Arial, Helvetica, sans" font-size="10.00">Time</text>
</a>
</g>
</g>
<!-- TimeDelta -->
<g id="node12" class="node"><title>TimeDelta</title>
<g id="a_node12"><a xlink:href="../api/astropy.time.TimeDelta.html#astropy.time.TimeDelta" xlink:title="Represent the time difference between two times.">
<polygon fill="none" stroke="black" stroke-width="0.5" points="220.5,-92.5 155.5,-92.5 155.5,-73.5 220.5,-73.5 220.5,-92.5"/>
<text text-anchor="middle" x="188" y="-80.5" font-family="Vera Sans, DejaVu Sans, Liberation Sans, Arial, Helvetica, sans" font-size="10.00">TimeDelta</text>
</a>
</g>
</g>
<!-- Time&#45;&gt;TimeDelta -->
<g id="edge5" class="edge"><title>Time&#45;&gt;TimeDelta</title>
<path fill="none" stroke="black" stroke-width="0.5" d="M78.0294,-83C98.5444,-83 127.404,-83 150.269,-83"/>
<polygon fill="black" stroke="black" stroke-width="0.5" points="150.349,-84.7501 155.348,-83 150.348,-81.2501 150.349,-84.7501"/>
</g>
<!-- TimeBesselianEpoch -->
<g id="node4" class="node"><title>TimeBesselianEpoch</title>
<g id="a_node4"><a xlink:href="../api/astropy.time.TimeBesselianEpoch.html#astropy.time.TimeBesselianEpoch" xlink:title="Besselian Epoch year as floating point value(s) like 1950.0">
<polygon fill="none" stroke="black" stroke-width="0.5" points="389.5,-480.5 274.5,-480.5 274.5,-461.5 389.5,-461.5 389.5,-480.5"/>
<text text-anchor="middle" x="332" y="-468.5" font-family="Vera Sans, DejaVu Sans, Liberation Sans, Arial, Helvetica, sans" font-size="10.00">TimeBesselianEpoch</text>
</a>
</g>
</g>
<!-- TimeEpochDate -->
<g id="node5" class="node"><title>TimeEpochDate</title>
<g id="a_node5"><a xlink:href="../api/astropy.time.TimeEpochDate.html#astropy.time.TimeEpochDate" xlink:title="Base class for support floating point Besselian and Julian epoch dates">
<polygon fill="none" stroke="black" stroke-width="0.5" points="234,-443.5 142,-443.5 142,-424.5 234,-424.5 234,-443.5"/>
<text text-anchor="middle" x="188" y="-431.5" font-family="Vera Sans, DejaVu Sans, Liberation Sans, Arial, Helvetica, sans" font-size="10.00">TimeEpochDate</text>
</a>
</g>
</g>
<!-- TimeEpochDate&#45;&gt;TimeBesselianEpoch -->
<g id="edge1" class="edge"><title>TimeEpochDate&#45;&gt;TimeBesselianEpoch</title>
<path fill="none" stroke="black" stroke-width="0.5" d="M224.833,-443.337C244.761,-448.529 269.635,-455.01 290.296,-460.394"/>
<polygon fill="black" stroke="black" stroke-width="0.5" points="289.899,-462.099 295.179,-461.666 290.782,-458.712 289.899,-462.099"/>
</g>
<!-- TimeJulianEpoch -->
<g id="node22" class="node"><title>TimeJulianEpoch</title>
<g id="a_node22"><a xlink:href="../api/astropy.time.TimeJulianEpoch.html#astropy.time.TimeJulianEpoch" xlink:title="Julian Epoch year as floating point value(s) like 2000.0">
<polygon fill="none" stroke="black" stroke-width="0.5" points="379,-443.5 285,-443.5 285,-424.5 379,-424.5 379,-443.5"/>
<text text-anchor="middle" x="332" y="-431.5" font-family="Vera Sans, DejaVu Sans, Liberation Sans, Arial, Helvetica, sans" font-size="10.00">TimeJulianEpoch</text>
</a>
</g>
</g>
<!-- TimeEpochDate&#45;&gt;TimeJulianEpoch -->
<g id="edge16" class="edge"><title>TimeEpochDate&#45;&gt;TimeJulianEpoch</title>
<path fill="none" stroke="black" stroke-width="0.5" d="M234.32,-434C248.633,-434 264.556,-434 279.281,-434"/>
<polygon fill="black" stroke="black" stroke-width="0.5" points="279.647,-435.75 284.647,-434 279.647,-432.25 279.647,-435.75"/>
</g>
<!-- TimeBesselianEpochString -->
<g id="node6" class="node"><title>TimeBesselianEpochString</title>
<g id="a_node6"><a xlink:href="../api/astropy.time.TimeBesselianEpochString.html#astropy.time.TimeBesselianEpochString" xlink:title="Besselian Epoch year as string value(s) like &#39;B1950.0&#39;">
<polygon fill="none" stroke="black" stroke-width="0.5" points="727.5,-294.5 584.5,-294.5 584.5,-275.5 727.5,-275.5 727.5,-294.5"/>
<text text-anchor="middle" x="656" y="-282.5" font-family="Vera Sans, DejaVu Sans, Liberation Sans, Arial, Helvetica, sans" font-size="10.00">TimeBesselianEpochString</text>
</a>
</g>
</g>
<!-- TimeEpochDateString -->
<g id="node7" class="node"><title>TimeEpochDateString</title>
<g id="a_node7"><a xlink:href="../api/astropy.time.TimeEpochDateString.html#astropy.time.TimeEpochDateString" xlink:title="Base class to support string Besselian and Julian epoch dates">
<polygon fill="none" stroke="black" stroke-width="0.5" points="547.5,-276.5 426.5,-276.5 426.5,-257.5 547.5,-257.5 547.5,-276.5"/>
<text text-anchor="middle" x="487" y="-264.5" font-family="Vera Sans, DejaVu Sans, Liberation Sans, Arial, Helvetica, sans" font-size="10.00">TimeEpochDateString</text>
</a>
</g>
</g>
<!-- TimeEpochDateString&#45;&gt;TimeBesselianEpochString -->
<g id="edge2" class="edge"><title>TimeEpochDateString&#45;&gt;TimeBesselianEpochString</title>
<path fill="none" stroke="black" stroke-width="0.5" d="M547.819,-273.448C558.034,-274.549 568.764,-275.705 579.325,-276.843"/>
<polygon fill="black" stroke="black" stroke-width="0.5" points="579.335,-278.605 584.494,-277.401 579.71,-275.125 579.335,-278.605"/>
</g>
<!-- TimeJulianEpochString -->
<g id="node23" class="node"><title>TimeJulianEpochString</title>
<g id="a_node23"><a xlink:href="../api/astropy.time.TimeJulianEpochString.html#astropy.time.TimeJulianEpochString" xlink:title="Julian Epoch year as string value(s) like &#39;J2000.0&#39;">
<polygon fill="none" stroke="black" stroke-width="0.5" points="717,-257.5 595,-257.5 595,-238.5 717,-238.5 717,-257.5"/>
<text text-anchor="middle" x="656" y="-245.5" font-family="Vera Sans, DejaVu Sans, Liberation Sans, Arial, Helvetica, sans" font-size="10.00">TimeJulianEpochString</text>
</a>
</g>
</g>
<!-- TimeEpochDateString&#45;&gt;TimeJulianEpochString -->
<g id="edge17" class="edge"><title>TimeEpochDateString&#45;&gt;TimeJulianEpochString</title>
<path fill="none" stroke="black" stroke-width="0.5" d="M547.819,-260.194C561.406,-258.648 575.905,-256.999 589.706,-255.429"/>
<polygon fill="black" stroke="black" stroke-width="0.5" points="589.986,-257.158 594.756,-254.854 589.59,-253.681 589.986,-257.158"/>
</g>
<!-- TimeCxcSec -->
<g id="node8" class="node"><title>TimeCxcSec</title>
<g id="a_node8"><a xlink:href="../api/astropy.time.TimeCxcSec.html#astropy.time.TimeCxcSec" xlink:title="Chandra X&#45;ray Center seconds from 1998&#45;01&#45;01 00:00:00 TT.">
<polygon fill="none" stroke="black" stroke-width="0.5" points="369.5,-406.5 294.5,-406.5 294.5,-387.5 369.5,-387.5 369.5,-406.5"/>
<text text-anchor="middle" x="332" y="-394.5" font-family="Vera Sans, DejaVu Sans, Liberation Sans, Arial, Helvetica, sans" font-size="10.00">TimeCxcSec</text>
</a>
</g>
</g>
<!-- TimeFromEpoch -->
<g id="node9" class="node"><title>TimeFromEpoch</title>
<g id="a_node9"><a xlink:href="../api/astropy.time.TimeFromEpoch.html#astropy.time.TimeFromEpoch" xlink:title="Base class for times that represent the interval from a particular">
<polygon fill="none" stroke="black" stroke-width="0.5" points="234.5,-332.5 141.5,-332.5 141.5,-313.5 234.5,-313.5 234.5,-332.5"/>
<text text-anchor="middle" x="188" y="-320.5" font-family="Vera Sans, DejaVu Sans, Liberation Sans, Arial, Helvetica, sans" font-size="10.00">TimeFromEpoch</text>
</a>
</g>
</g>
<!-- TimeFromEpoch&#45;&gt;TimeCxcSec -->
<g id="edge3" class="edge"><title>TimeFromEpoch&#45;&gt;TimeCxcSec</title>
<path fill="none" stroke="black" stroke-width="0.5" d="M201.368,-332.442C217.411,-344.341 246.593,-364.828 274,-378 280.143,-380.953 286.864,-383.636 293.468,-385.995"/>
<polygon fill="black" stroke="black" stroke-width="0.5" points="293.185,-387.749 298.483,-387.735 294.332,-384.442 293.185,-387.749"/>
</g>
<!-- TimeGPS -->
<g id="node18" class="node"><title>TimeGPS</title>
<g id="a_node18"><a xlink:href="../api/astropy.time.TimeGPS.html#astropy.time.TimeGPS" xlink:title="GPS time: seconds from 1980&#45;01&#45;06 00:00:00 UTC">
<polygon fill="none" stroke="black" stroke-width="0.5" points="362,-369.5 302,-369.5 302,-350.5 362,-350.5 362,-369.5"/>
<text text-anchor="middle" x="332" y="-357.5" font-family="Vera Sans, DejaVu Sans, Liberation Sans, Arial, Helvetica, sans" font-size="10.00">TimeGPS</text>
</a>
</g>
</g>
<!-- TimeFromEpoch&#45;&gt;TimeGPS -->
<g id="edge12" class="edge"><title>TimeFromEpoch&#45;&gt;TimeGPS</title>
<path fill="none" stroke="black" stroke-width="0.5" d="M224.833,-332.337C246.891,-338.084 275.008,-345.41 296.764,-351.079"/>
<polygon fill="black" stroke="black" stroke-width="0.5" points="296.588,-352.842 301.868,-352.409 297.471,-349.455 296.588,-352.842"/>
</g>
<!-- TimePlotDate -->
<g id="node25" class="node"><title>TimePlotDate</title>
<g id="a_node25"><a xlink:href="../api/astropy.time.TimePlotDate.html#astropy.time.TimePlotDate" xlink:title="Matplotlib `~matplotlib.pyplot.plot_date` input:">
<polygon fill="none" stroke="black" stroke-width="0.5" points="372.5,-332.5 291.5,-332.5 291.5,-313.5 372.5,-313.5 372.5,-332.5"/>
<text text-anchor="middle" x="332" y="-320.5" font-family="Vera Sans, DejaVu Sans, Liberation Sans, Arial, Helvetica, sans" font-size="10.00">TimePlotDate</text>
</a>
</g>
</g>
<!-- TimeFromEpoch&#45;&gt;TimePlotDate -->
<g id="edge19" class="edge"><title>TimeFromEpoch&#45;&gt;TimePlotDate</title>
<path fill="none" stroke="black" stroke-width="0.5" d="M234.711,-323C251.17,-323 269.714,-323 286.102,-323"/>
<polygon fill="black" stroke="black" stroke-width="0.5" points="286.115,-324.75 291.114,-323 286.114,-321.25 286.115,-324.75"/>
</g>
<!-- TimeUnix -->
<g id="node26" class="node"><title>TimeUnix</title>
<g id="a_node26"><a xlink:href="../api/astropy.time.TimeUnix.html#astropy.time.TimeUnix" xlink:title="Unix time: seconds from 1970&#45;01&#45;01 00:00:00 UTC.">
<polygon fill="none" stroke="black" stroke-width="0.5" points="362.5,-295.5 301.5,-295.5 301.5,-276.5 362.5,-276.5 362.5,-295.5"/>
<text text-anchor="middle" x="332" y="-283.5" font-family="Vera Sans, DejaVu Sans, Liberation Sans, Arial, Helvetica, sans" font-size="10.00">TimeUnix</text>
</a>
</g>
</g>
<!-- TimeFromEpoch&#45;&gt;TimeUnix -->
<g id="edge22" class="edge"><title>TimeFromEpoch&#45;&gt;TimeUnix</title>
<path fill="none" stroke="black" stroke-width="0.5" d="M224.833,-313.663C246.739,-307.955 274.62,-300.69 296.313,-295.038"/>
<polygon fill="black" stroke="black" stroke-width="0.5" points="297.008,-296.666 301.405,-293.711 296.125,-293.279 297.008,-296.666"/>
</g>
<!-- TimeDatetime -->
<g id="node10" class="node"><title>TimeDatetime</title>
<g id="a_node10"><a xlink:href="../api/astropy.time.TimeDatetime.html#astropy.time.TimeDatetime" xlink:title="Represent date as Python standard library `~datetime.datetime` object">
<polygon fill="none" stroke="black" stroke-width="0.5" points="374.5,-258.5 289.5,-258.5 289.5,-239.5 374.5,-239.5 374.5,-258.5"/>
<text text-anchor="middle" x="332" y="-246.5" font-family="Vera Sans, DejaVu Sans, Liberation Sans, Arial, Helvetica, sans" font-size="10.00">TimeDatetime</text>
</a>
</g>
</g>
<!-- TimeUnique -->
<g id="node11" class="node"><title>TimeUnique</title>
<g id="a_node11"><a xlink:title="Base class for time formats that can uniquely create a time object">
<polygon fill="none" stroke="black" stroke-width="0.5" points="225,-240.5 151,-240.5 151,-221.5 225,-221.5 225,-240.5"/>
<text text-anchor="middle" x="188" y="-228.5" font-family="Vera Sans, DejaVu Sans, Liberation Sans, Arial, Helvetica, sans" font-size="10.00">TimeUnique</text>
</a>
</g>
</g>
<!-- TimeUnique&#45;&gt;TimeDatetime -->
<g id="edge4" class="edge"><title>TimeUnique&#45;&gt;TimeDatetime</title>
<path fill="none" stroke="black" stroke-width="0.5" d="M225.2,-235.589C243.076,-237.855 264.862,-240.616 284.008,-243.043"/>
<polygon fill="black" stroke="black" stroke-width="0.5" points="284.152,-244.825 289.332,-243.718 284.592,-241.353 284.152,-244.825"/>
</g>
<!-- TimeString -->
<g id="node17" class="node"><title>TimeString</title>
<g id="a_node17"><a xlink:href="../api/astropy.time.TimeString.html#astropy.time.TimeString" xlink:title="Base class for string&#45;like time represetations.">
<polygon fill="none" stroke="black" stroke-width="0.5" points="366,-221.5 298,-221.5 298,-202.5 366,-202.5 366,-221.5"/>
<text text-anchor="middle" x="332" y="-209.5" font-family="Vera Sans, DejaVu Sans, Liberation Sans, Arial, Helvetica, sans" font-size="10.00">TimeString</text>
</a>
</g>
</g>
<!-- TimeUnique&#45;&gt;TimeString -->
<g id="edge20" class="edge"><title>TimeUnique&#45;&gt;TimeString</title>
<path fill="none" stroke="black" stroke-width="0.5" d="M225.2,-226.156C245.804,-223.399 271.603,-219.947 292.566,-217.143"/>
<polygon fill="black" stroke="black" stroke-width="0.5" points="293.062,-218.842 297.786,-216.444 292.598,-215.373 293.062,-218.842"/>
</g>
<!-- TimeDeltaFormat -->
<g id="node13" class="node"><title>TimeDeltaFormat</title>
<g id="a_node13"><a xlink:href="../api/astropy.time.TimeDeltaFormat.html#astropy.time.TimeDeltaFormat" xlink:title="Base class for time delta representations">
<polygon fill="none" stroke="black" stroke-width="0.5" points="238,-203.5 138,-203.5 138,-184.5 238,-184.5 238,-203.5"/>
<text text-anchor="middle" x="188" y="-191.5" font-family="Vera Sans, DejaVu Sans, Liberation Sans, Arial, Helvetica, sans" font-size="10.00">TimeDeltaFormat</text>
</a>
</g>
</g>
<!-- TimeDeltaJD -->
<g id="node15" class="node"><title>TimeDeltaJD</title>
<g id="a_node15"><a xlink:href="../api/astropy.time.TimeDeltaJD.html#astropy.time.TimeDeltaJD" xlink:title="Time delta in Julian days (86400 SI seconds)">
<polygon fill="none" stroke="black" stroke-width="0.5" points="369.5,-184.5 294.5,-184.5 294.5,-165.5 369.5,-165.5 369.5,-184.5"/>
<text text-anchor="middle" x="332" y="-172.5" font-family="Vera Sans, DejaVu Sans, Liberation Sans, Arial, Helvetica, sans" font-size="10.00">TimeDeltaJD</text>
</a>
</g>
</g>
<!-- TimeDeltaFormat&#45;&gt;TimeDeltaJD -->
<g id="edge7" class="edge"><title>TimeDeltaFormat&#45;&gt;TimeDeltaJD</title>
<path fill="none" stroke="black" stroke-width="0.5" d="M238.266,-187.408C254.819,-185.193 273.116,-182.745 289.053,-180.613"/>
<polygon fill="black" stroke="black" stroke-width="0.5" points="289.637,-182.3 294.361,-179.902 289.173,-178.831 289.637,-182.3"/>
</g>
<!-- TimeDeltaSec -->
<g id="node16" class="node"><title>TimeDeltaSec</title>
<g id="a_node16"><a xlink:href="../api/astropy.time.TimeDeltaSec.html#astropy.time.TimeDeltaSec" xlink:title="Time delta in SI seconds">
<polygon fill="none" stroke="black" stroke-width="0.5" points="373.5,-147.5 290.5,-147.5 290.5,-128.5 373.5,-128.5 373.5,-147.5"/>
<text text-anchor="middle" x="332" y="-135.5" font-family="Vera Sans, DejaVu Sans, Liberation Sans, Arial, Helvetica, sans" font-size="10.00">TimeDeltaSec</text>
</a>
</g>
</g>
<!-- TimeDeltaFormat&#45;&gt;TimeDeltaSec -->
<g id="edge8" class="edge"><title>TimeDeltaFormat&#45;&gt;TimeDeltaSec</title>
<path fill="none" stroke="black" stroke-width="0.5" d="M214.665,-184.691C222.254,-181.766 230.528,-178.407 238,-175 254.462,-167.495 257.307,-162.974 274,-156 280.104,-153.45 286.703,-151.053 293.172,-148.892"/>
<polygon fill="black" stroke="black" stroke-width="0.5" points="293.874,-150.504 298.082,-147.287 292.786,-147.177 293.874,-150.504"/>
</g>
<!-- TimeFormat -->
<g id="node14" class="node"><title>TimeFormat</title>
<g id="a_node14"><a xlink:href="../api/astropy.time.TimeFormat.html#astropy.time.TimeFormat" xlink:title="Base class for time representations.">
<polygon fill="none" stroke="black" stroke-width="0.5" points="88,-221.5 14,-221.5 14,-202.5 88,-202.5 88,-221.5"/>
<text text-anchor="middle" x="51" y="-209.5" font-family="Vera Sans, DejaVu Sans, Liberation Sans, Arial, Helvetica, sans" font-size="10.00">TimeFormat</text>
</a>
</g>
</g>
<!-- TimeFormat&#45;&gt;TimeEpochDate -->
<g id="edge9" class="edge"><title>TimeFormat&#45;&gt;TimeEpochDate</title>
<path fill="none" stroke="black" stroke-width="0.5" d="M57.6289,-221.256C78.7709,-256.023 153.508,-378.924 178.665,-420.294"/>
<polygon fill="black" stroke="black" stroke-width="0.5" points="177.254,-421.341 181.347,-424.704 180.244,-419.523 177.254,-421.341"/>
</g>
<!-- TimeFormat&#45;&gt;TimeFromEpoch -->
<g id="edge11" class="edge"><title>TimeFormat&#45;&gt;TimeFromEpoch</title>
<path fill="none" stroke="black" stroke-width="0.5" d="M63.51,-221.464C87.7201,-241.37 143.935,-287.591 171.372,-310.15"/>
<polygon fill="black" stroke="black" stroke-width="0.5" points="170.546,-311.736 175.519,-313.56 172.768,-309.033 170.546,-311.736"/>
</g>
<!-- TimeFormat&#45;&gt;TimeUnique -->
<g id="edge21" class="edge"><title>TimeFormat&#45;&gt;TimeUnique</title>
<path fill="none" stroke="black" stroke-width="0.5" d="M88.1775,-217.092C105.882,-219.583 127.282,-222.595 145.633,-225.178"/>
<polygon fill="black" stroke="black" stroke-width="0.5" points="145.527,-226.93 150.723,-225.894 146.015,-223.464 145.527,-226.93"/>
</g>
<!-- TimeFormat&#45;&gt;TimeDeltaFormat -->
<g id="edge6" class="edge"><title>TimeFormat&#45;&gt;TimeDeltaFormat</title>
<path fill="none" stroke="black" stroke-width="0.5" d="M88.1775,-207.176C101.861,-205.352 117.751,-203.233 132.735,-201.235"/>
<polygon fill="black" stroke="black" stroke-width="0.5" points="133.052,-202.959 137.777,-200.563 132.59,-199.489 133.052,-202.959"/>
</g>
<!-- TimeJD -->
<g id="node21" class="node"><title>TimeJD</title>
<g id="a_node21"><a xlink:href="../api/astropy.time.TimeJD.html#astropy.time.TimeJD" xlink:title="Julian Date time format.">
<polygon fill="none" stroke="black" stroke-width="0.5" points="215,-166.5 161,-166.5 161,-147.5 215,-147.5 215,-166.5"/>
<text text-anchor="middle" x="188" y="-154.5" font-family="Vera Sans, DejaVu Sans, Liberation Sans, Arial, Helvetica, sans" font-size="10.00">TimeJD</text>
</a>
</g>
</g>
<!-- TimeFormat&#45;&gt;TimeJD -->
<g id="edge15" class="edge"><title>TimeFormat&#45;&gt;TimeJD</title>
<path fill="none" stroke="black" stroke-width="0.5" d="M72.7219,-202.71C90.0597,-195.028 115.502,-183.964 138,-175 143.788,-172.694 150.001,-170.328 155.994,-168.101"/>
<polygon fill="black" stroke="black" stroke-width="0.5" points="156.877,-169.641 160.962,-166.267 155.665,-166.357 156.877,-169.641"/>
</g>
<!-- TimeMJD -->
<g id="node24" class="node"><title>TimeMJD</title>
<g id="a_node24"><a xlink:href="../api/astropy.time.TimeMJD.html#astropy.time.TimeMJD" xlink:title="Modified Julian Date time format.">
<polygon fill="none" stroke="black" stroke-width="0.5" points="217,-129.5 159,-129.5 159,-110.5 217,-110.5 217,-129.5"/>
<text text-anchor="middle" x="188" y="-117.5" font-family="Vera Sans, DejaVu Sans, Liberation Sans, Arial, Helvetica, sans" font-size="10.00">TimeMJD</text>
</a>
</g>
</g>
<!-- TimeFormat&#45;&gt;TimeMJD -->
<g id="edge18" class="edge"><title>TimeFormat&#45;&gt;TimeMJD</title>
<path fill="none" stroke="black" stroke-width="0.5" d="M60.6888,-202.591C75.3275,-187.215 106.414,-156.562 138,-138 143.067,-135.023 148.71,-132.399 154.314,-130.14"/>
<polygon fill="black" stroke="black" stroke-width="0.5" points="154.965,-131.765 158.997,-128.329 153.703,-128.5 154.965,-131.765"/>
</g>
<!-- TimeString&#45;&gt;TimeEpochDateString -->
<g id="edge10" class="edge"><title>TimeString&#45;&gt;TimeEpochDateString</title>
<path fill="none" stroke="black" stroke-width="0.5" d="M363.122,-221.295C371.869,-224.194 381.384,-227.544 390,-231 406.422,-237.587 409.528,-241.537 426,-248 433.273,-250.854 441.163,-253.595 448.759,-256.065"/>
<polygon fill="black" stroke="black" stroke-width="0.5" points="448.664,-257.872 453.96,-257.73 449.731,-254.539 448.664,-257.872"/>
</g>
<!-- TimeISO -->
<g id="node19" class="node"><title>TimeISO</title>
<g id="a_node19"><a xlink:href="../api/astropy.time.TimeISO.html#astropy.time.TimeISO" xlink:title="ISO 8601 compliant date&#45;time format &quot;YYYY&#45;MM&#45;DD HH:MM:SS.sss...&quot;.">
<polygon fill="none" stroke="black" stroke-width="0.5" points="515,-239.5 459,-239.5 459,-220.5 515,-220.5 515,-239.5"/>
<text text-anchor="middle" x="487" y="-227.5" font-family="Vera Sans, DejaVu Sans, Liberation Sans, Arial, Helvetica, sans" font-size="10.00">TimeISO</text>
</a>
</g>
</g>
<!-- TimeString&#45;&gt;TimeISO -->
<g id="edge13" class="edge"><title>TimeString&#45;&gt;TimeISO</title>
<path fill="none" stroke="black" stroke-width="0.5" d="M366.199,-215.906C392.235,-218.969 428.25,-223.206 453.98,-226.233"/>
<polygon fill="black" stroke="black" stroke-width="0.5" points="453.812,-227.975 458.982,-226.821 454.221,-224.499 453.812,-227.975"/>
</g>
<!-- TimeISOT -->
<g id="node20" class="node"><title>TimeISOT</title>
<g id="a_node20"><a xlink:href="../api/astropy.time.TimeISOT.html#astropy.time.TimeISOT" xlink:title="ISO 8601 compliant date&#45;time format &quot;YYYY&#45;MM&#45;DDTHH:MM:SS.sss...&quot;.">
<polygon fill="none" stroke="black" stroke-width="0.5" points="518,-202.5 456,-202.5 456,-183.5 518,-183.5 518,-202.5"/>
<text text-anchor="middle" x="487" y="-190.5" font-family="Vera Sans, DejaVu Sans, Liberation Sans, Arial, Helvetica, sans" font-size="10.00">TimeISOT</text>
</a>
</g>
</g>
<!-- TimeString&#45;&gt;TimeISOT -->
<g id="edge14" class="edge"><title>TimeString&#45;&gt;TimeISOT</title>
<path fill="none" stroke="black" stroke-width="0.5" d="M366.199,-207.877C391.247,-204.767 425.53,-200.509 451.005,-197.346"/>
<polygon fill="black" stroke="black" stroke-width="0.5" points="451.231,-199.081 455.977,-196.728 450.8,-195.608 451.231,-199.081"/>
</g>
<!-- TimeYearDayTime -->
<g id="node27" class="node"><title>TimeYearDayTime</title>
<g id="a_node27"><a xlink:href="../api/astropy.time.TimeYearDayTime.html#astropy.time.TimeYearDayTime" xlink:title="Year, day&#45;of&#45;year and time as &quot;YYYY:DOY:HH:MM:SS.sss...&quot;.">
<polygon fill="none" stroke="black" stroke-width="0.5" points="537.5,-165.5 436.5,-165.5 436.5,-146.5 537.5,-146.5 537.5,-165.5"/>
<text text-anchor="middle" x="487" y="-153.5" font-family="Vera Sans, DejaVu Sans, Liberation Sans, Arial, Helvetica, sans" font-size="10.00">TimeYearDayTime</text>
</a>
</g>
</g>
<!-- TimeString&#45;&gt;TimeYearDayTime -->
<g id="edge23" class="edge"><title>TimeString&#45;&gt;TimeYearDayTime</title>
<path fill="none" stroke="black" stroke-width="0.5" d="M364.11,-202.654C372.611,-199.824 381.75,-196.524 390,-193 406.637,-185.893 409.257,-180.854 426,-174 432.256,-171.439 439.011,-169.061 445.654,-166.927"/>
<polygon fill="black" stroke="black" stroke-width="0.5" points="446.455,-168.51 450.702,-165.344 445.408,-165.17 446.455,-168.51"/>
</g>
</g>
</svg>
