<?xml version="1.0" encoding="UTF-8" standalone="no"?>
<!DOCTYPE svg PUBLIC "-//W3C//DTD SVG 1.1//EN"
 "http://www.w3.org/Graphics/SVG/1.1/DTD/svg11.dtd">
<!-- Generated by graphviz version 2.36.0 (20140111.2315)
 -->
<!-- Title: inheritance23153a92a7 Pages: 1 -->
<svg width="548pt" height="700pt"
 viewBox="0.00 0.00 548.00 700.00" xmlns="http://www.w3.org/2000/svg" xmlns:xlink="http://www.w3.org/1999/xlink">
<g id="graph0" class="graph" transform="scale(1 1) rotate(0) translate(4 696)">
<title>inheritance23153a92a7</title>
<polygon fill="white" stroke="none" points="-4,4 -4,-696 544,-696 544,4 -4,4"/>
<!-- AASTex -->
<g id="node1" class="node"><title>AASTex</title>
<g id="a_node1"><a xlink:href="../../api/astropy.io.ascii.AASTex.html#astropy.io.ascii.AASTex" xlink:title="Write and read AASTeX tables.">
<polygon fill="none" stroke="black" stroke-width="0.5" points="419,-304.5 365,-304.5 365,-285.5 419,-285.5 419,-304.5"/>
<text text-anchor="middle" x="392" y="-292.5" font-family="Vera Sans, DejaVu Sans, Liberation Sans, Arial, Helvetica, sans" font-size="10.00">AASTex</text>
</a>
</g>
</g>
<!-- Latex -->
<g id="node2" class="node"><title>Latex</title>
<g id="a_node2"><a xlink:href="../../api/astropy.io.ascii.Latex.html#astropy.io.ascii.Latex" xlink:title="Write and read LaTeX tables.">
<polygon fill="none" stroke="black" stroke-width="0.5" points="255,-286.5 201,-286.5 201,-267.5 255,-267.5 255,-286.5"/>
<text text-anchor="middle" x="228" y="-274.5" font-family="Vera Sans, DejaVu Sans, Liberation Sans, Arial, Helvetica, sans" font-size="10.00">Latex</text>
</a>
</g>
</g>
<!-- Latex&#45;&gt;AASTex -->
<g id="edge1" class="edge"><title>Latex&#45;&gt;AASTex</title>
<path fill="none" stroke="black" stroke-width="0.5" d="M255.028,-279.892C283.521,-283.058 329.198,-288.133 359.643,-291.516"/>
<polygon fill="black" stroke="black" stroke-width="0.5" points="359.605,-293.272 364.768,-292.085 359.992,-289.794 359.605,-293.272"/>
</g>
<!-- AllType -->
<g id="node3" class="node"><title>AllType</title>
<g id="a_node3"><a xlink:href="../../api/astropy.io.ascii.AllType.html#astropy.io.ascii.AllType" xlink:title="Subclass of all other data types.">
<polygon fill="none" stroke="black" stroke-width="0.5" points="540,-378.5 486,-378.5 486,-359.5 540,-359.5 540,-378.5"/>
<text text-anchor="middle" x="513" y="-366.5" font-family="Vera Sans, DejaVu Sans, Liberation Sans, Arial, Helvetica, sans" font-size="10.00">AllType</text>
</a>
</g>
</g>
<!-- StrType -->
<g id="node4" class="node"><title>StrType</title>
<g id="a_node4"><a xlink:href="../../api/astropy.io.ascii.StrType.html#astropy.io.ascii.StrType" xlink:title="Indicates that a column consists of text data.">
<polygon fill="none" stroke="black" stroke-width="0.5" points="255,-415.5 201,-415.5 201,-396.5 255,-396.5 255,-415.5"/>
<text text-anchor="middle" x="228" y="-403.5" font-family="Vera Sans, DejaVu Sans, Liberation Sans, Arial, Helvetica, sans" font-size="10.00">StrType</text>
</a>
</g>
</g>
<!-- StrType&#45;&gt;AllType -->
<g id="edge2" class="edge"><title>StrType&#45;&gt;AllType</title>
<path fill="none" stroke="black" stroke-width="0.5" d="M255.08,-405.416C296.648,-404.114 380.341,-399.975 450,-387 460.134,-385.112 470.988,-382.258 480.738,-379.375"/>
<polygon fill="black" stroke="black" stroke-width="0.5" points="481.445,-380.99 485.726,-377.87 480.433,-377.639 481.445,-380.99"/>
</g>
<!-- FloatType -->
<g id="node5" class="node"><title>FloatType</title>
<g id="a_node5"><a xlink:href="../../api/astropy.io.ascii.FloatType.html#astropy.io.ascii.FloatType" xlink:title="Describes floating&#45;point data.">
<polygon fill="none" stroke="black" stroke-width="0.5" points="422.5,-378.5 361.5,-378.5 361.5,-359.5 422.5,-359.5 422.5,-378.5"/>
<text text-anchor="middle" x="392" y="-366.5" font-family="Vera Sans, DejaVu Sans, Liberation Sans, Arial, Helvetica, sans" font-size="10.00">FloatType</text>
</a>
</g>
</g>
<!-- FloatType&#45;&gt;AllType -->
<g id="edge3" class="edge"><title>FloatType&#45;&gt;AllType</title>
<path fill="none" stroke="black" stroke-width="0.5" d="M422.722,-369C440.315,-369 462.589,-369 480.487,-369"/>
<polygon fill="black" stroke="black" stroke-width="0.5" points="480.891,-370.75 485.891,-369 480.891,-367.25 480.891,-370.75"/>
</g>
<!-- IntType -->
<g id="node6" class="node"><title>IntType</title>
<g id="a_node6"><a xlink:href="../../api/astropy.io.ascii.IntType.html#astropy.io.ascii.IntType" xlink:title="Describes integer data.">
<polygon fill="none" stroke="black" stroke-width="0.5" points="419,-341.5 365,-341.5 365,-322.5 419,-322.5 419,-341.5"/>
<text text-anchor="middle" x="392" y="-329.5" font-family="Vera Sans, DejaVu Sans, Liberation Sans, Arial, Helvetica, sans" font-size="10.00">IntType</text>
</a>
</g>
</g>
<!-- IntType&#45;&gt;AllType -->
<g id="edge4" class="edge"><title>IntType&#45;&gt;AllType</title>
<path fill="none" stroke="black" stroke-width="0.5" d="M419.115,-340.12C437.251,-345.759 461.505,-353.3 480.681,-359.262"/>
<polygon fill="black" stroke="black" stroke-width="0.5" points="480.652,-361.086 485.946,-360.899 481.691,-357.743 480.652,-361.086"/>
</g>
<!-- BaseData -->
<g id="node7" class="node"><title>BaseData</title>
<g id="a_node7"><a xlink:href="../../api/astropy.io.ascii.BaseData.html#astropy.io.ascii.BaseData" xlink:title="Base table data reader.">
<polygon fill="none" stroke="black" stroke-width="0.5" points="93,-452.5 29,-452.5 29,-433.5 93,-433.5 93,-452.5"/>
<text text-anchor="middle" x="61" y="-440.5" font-family="Vera Sans, DejaVu Sans, Liberation Sans, Arial, Helvetica, sans" font-size="10.00">BaseData</text>
</a>
</g>
</g>
<!-- FixedWidthData -->
<g id="node22" class="node"><title>FixedWidthData</title>
<g id="a_node22"><a xlink:href="../../api/astropy.io.ascii.FixedWidthData.html#astropy.io.ascii.FixedWidthData" xlink:title="Base table data reader.">
<polygon fill="none" stroke="black" stroke-width="0.5" points="273,-452.5 183,-452.5 183,-433.5 273,-433.5 273,-452.5"/>
<text text-anchor="middle" x="228" y="-440.5" font-family="Vera Sans, DejaVu Sans, Liberation Sans, Arial, Helvetica, sans" font-size="10.00">FixedWidthData</text>
</a>
</g>
</g>
<!-- BaseData&#45;&gt;FixedWidthData -->
<g id="edge13" class="edge"><title>BaseData&#45;&gt;FixedWidthData</title>
<path fill="none" stroke="black" stroke-width="0.5" d="M93.0352,-443C116.851,-443 150.195,-443 177.658,-443"/>
<polygon fill="black" stroke="black" stroke-width="0.5" points="177.714,-444.75 182.714,-443 177.714,-441.25 177.714,-444.75"/>
</g>
<!-- BaseHeader -->
<g id="node8" class="node"><title>BaseHeader</title>
<g id="a_node8"><a xlink:href="../../api/astropy.io.ascii.BaseHeader.html#astropy.io.ascii.BaseHeader" xlink:title="Base table header reader">
<polygon fill="none" stroke="black" stroke-width="0.5" points="99,-489.5 23,-489.5 23,-470.5 99,-470.5 99,-489.5"/>
<text text-anchor="middle" x="61" y="-477.5" font-family="Vera Sans, DejaVu Sans, Liberation Sans, Arial, Helvetica, sans" font-size="10.00">BaseHeader</text>
</a>
</g>
</g>
<!-- FixedWidthHeader -->
<g id="node23" class="node"><title>FixedWidthHeader</title>
<g id="a_node23"><a xlink:href="../../api/astropy.io.ascii.FixedWidthHeader.html#astropy.io.ascii.FixedWidthHeader" xlink:title="Fixed width table header reader.">
<polygon fill="none" stroke="black" stroke-width="0.5" points="279,-489.5 177,-489.5 177,-470.5 279,-470.5 279,-489.5"/>
<text text-anchor="middle" x="228" y="-477.5" font-family="Vera Sans, DejaVu Sans, Liberation Sans, Arial, Helvetica, sans" font-size="10.00">FixedWidthHeader</text>
</a>
</g>
</g>
<!-- BaseHeader&#45;&gt;FixedWidthHeader -->
<g id="edge14" class="edge"><title>BaseHeader&#45;&gt;FixedWidthHeader</title>
<path fill="none" stroke="black" stroke-width="0.5" d="M99.0292,-480C120.496,-480 147.936,-480 171.897,-480"/>
<polygon fill="black" stroke="black" stroke-width="0.5" points="171.954,-481.75 176.954,-480 171.954,-478.25 171.954,-481.75"/>
</g>
<!-- BaseInputter -->
<g id="node9" class="node"><title>BaseInputter</title>
<g id="a_node9"><a xlink:href="../../api/astropy.io.ascii.BaseInputter.html#astropy.io.ascii.BaseInputter" xlink:title="Get the lines from the table input and return a list of lines. &#160;The input">
<polygon fill="none" stroke="black" stroke-width="0.5" points="100,-526.5 22,-526.5 22,-507.5 100,-507.5 100,-526.5"/>
<text text-anchor="middle" x="61" y="-514.5" font-family="Vera Sans, DejaVu Sans, Liberation Sans, Arial, Helvetica, sans" font-size="10.00">BaseInputter</text>
</a>
</g>
</g>
<!-- ContinuationLinesInputter -->
<g id="node17" class="node"><title>ContinuationLinesInputter</title>
<g id="a_node17"><a xlink:href="../../api/astropy.io.ascii.ContinuationLinesInputter.html#astropy.io.ascii.ContinuationLinesInputter" xlink:title="Inputter where lines ending in ``continuation_char`` are joined">
<polygon fill="none" stroke="black" stroke-width="0.5" points="298,-526.5 158,-526.5 158,-507.5 298,-507.5 298,-526.5"/>
<text text-anchor="middle" x="228" y="-514.5" font-family="Vera Sans, DejaVu Sans, Liberation Sans, Arial, Helvetica, sans" font-size="10.00">ContinuationLinesInputter</text>
</a>
</g>
</g>
<!-- BaseInputter&#45;&gt;ContinuationLinesInputter -->
<g id="edge8" class="edge"><title>BaseInputter&#45;&gt;ContinuationLinesInputter</title>
<path fill="none" stroke="black" stroke-width="0.5" d="M100.269,-517C115.933,-517 134.616,-517 152.761,-517"/>
<polygon fill="black" stroke="black" stroke-width="0.5" points="152.862,-518.75 157.862,-517 152.862,-515.25 152.862,-518.75"/>
</g>
<!-- BaseOutputter -->
<g id="node10" class="node"><title>BaseOutputter</title>
<g id="a_node10"><a xlink:href="../../api/astropy.io.ascii.BaseOutputter.html#astropy.io.ascii.BaseOutputter" xlink:title="Output table as a dict of column objects keyed on column name. &#160;The">
<polygon fill="none" stroke="black" stroke-width="0.5" points="104.5,-563.5 17.5,-563.5 17.5,-544.5 104.5,-544.5 104.5,-563.5"/>
<text text-anchor="middle" x="61" y="-551.5" font-family="Vera Sans, DejaVu Sans, Liberation Sans, Arial, Helvetica, sans" font-size="10.00">BaseOutputter</text>
</a>
</g>
</g>
<!-- TableOutputter -->
<g id="node36" class="node"><title>TableOutputter</title>
<g id="a_node36"><a xlink:href="../../api/astropy.io.ascii.TableOutputter.html#astropy.io.ascii.TableOutputter" xlink:title="Output the table as an astropy.table.Table object.">
<polygon fill="none" stroke="black" stroke-width="0.5" points="271.5,-563.5 184.5,-563.5 184.5,-544.5 271.5,-544.5 271.5,-563.5"/>
<text text-anchor="middle" x="228" y="-551.5" font-family="Vera Sans, DejaVu Sans, Liberation Sans, Arial, Helvetica, sans" font-size="10.00">TableOutputter</text>
</a>
</g>
</g>
<!-- BaseOutputter&#45;&gt;TableOutputter -->
<g id="edge29" class="edge"><title>BaseOutputter&#45;&gt;TableOutputter</title>
<path fill="none" stroke="black" stroke-width="0.5" d="M104.921,-554C127.647,-554 155.623,-554 179.059,-554"/>
<polygon fill="black" stroke="black" stroke-width="0.5" points="179.294,-555.75 184.294,-554 179.294,-552.25 179.294,-555.75"/>
</g>
<!-- BaseReader -->
<g id="node11" class="node"><title>BaseReader</title>
<g id="a_node11"><a xlink:href="../../api/astropy.io.ascii.BaseReader.html#astropy.io.ascii.BaseReader" xlink:title="Class providing methods to read and write an ASCII table using the specified">
<polygon fill="none" stroke="black" stroke-width="0.5" points="98,-147.5 24,-147.5 24,-128.5 98,-128.5 98,-147.5"/>
<text text-anchor="middle" x="61" y="-135.5" font-family="Vera Sans, DejaVu Sans, Liberation Sans, Arial, Helvetica, sans" font-size="10.00">BaseReader</text>
</a>
</g>
</g>
<!-- BaseReader&#45;&gt;Latex -->
<g id="edge22" class="edge"><title>BaseReader&#45;&gt;Latex</title>
<path fill="none" stroke="black" stroke-width="0.5" d="M67.8248,-147.351C81.283,-168.268 116.575,-219.326 158,-249 169.412,-257.175 183.557,-263.452 196.063,-267.971"/>
<polygon fill="black" stroke="black" stroke-width="0.5" points="195.649,-269.681 200.947,-269.678 196.804,-266.377 195.649,-269.681"/>
</g>
<!-- Basic -->
<g id="node13" class="node"><title>Basic</title>
<g id="a_node13"><a xlink:href="../../api/astropy.io.ascii.Basic.html#astropy.io.ascii.Basic" xlink:title="Read a character&#45;delimited table with a single header line at the top">
<polygon fill="none" stroke="black" stroke-width="0.5" points="255,-240.5 201,-240.5 201,-221.5 255,-221.5 255,-240.5"/>
<text text-anchor="middle" x="228" y="-228.5" font-family="Vera Sans, DejaVu Sans, Liberation Sans, Arial, Helvetica, sans" font-size="10.00">Basic</text>
</a>
</g>
</g>
<!-- BaseReader&#45;&gt;Basic -->
<g id="edge5" class="edge"><title>BaseReader&#45;&gt;Basic</title>
<path fill="none" stroke="black" stroke-width="0.5" d="M71.4884,-147.402C87.7936,-163.046 122.786,-194.435 158,-212 169.772,-217.872 183.609,-222.137 195.789,-225.119"/>
<polygon fill="black" stroke="black" stroke-width="0.5" points="195.629,-226.879 200.897,-226.32 196.43,-223.472 195.629,-226.879"/>
</g>
<!-- Cds -->
<g id="node14" class="node"><title>Cds</title>
<g id="a_node14"><a xlink:href="../../api/astropy.io.ascii.Cds.html#astropy.io.ascii.Cds" xlink:title="Read a CDS format table. &#160;See http://vizier.u&#45;strasbg.fr/doc/catstd.htx.">
<polygon fill="none" stroke="black" stroke-width="0.5" points="255,-203.5 201,-203.5 201,-184.5 255,-184.5 255,-203.5"/>
<text text-anchor="middle" x="228" y="-191.5" font-family="Vera Sans, DejaVu Sans, Liberation Sans, Arial, Helvetica, sans" font-size="10.00">Cds</text>
</a>
</g>
</g>
<!-- BaseReader&#45;&gt;Cds -->
<g id="edge6" class="edge"><title>BaseReader&#45;&gt;Cds</title>
<path fill="none" stroke="black" stroke-width="0.5" d="M84.2735,-147.308C103.587,-155.203 132.384,-166.56 158,-175 170.288,-179.049 183.995,-182.947 195.934,-186.148"/>
<polygon fill="black" stroke="black" stroke-width="0.5" points="195.651,-187.883 200.933,-187.475 196.549,-184.501 195.651,-187.883"/>
</g>
<!-- CommentedHeader -->
<g id="node16" class="node"><title>CommentedHeader</title>
<g id="a_node16"><a xlink:href="../../api/astropy.io.ascii.CommentedHeader.html#astropy.io.ascii.CommentedHeader" xlink:title="Read a file where the column names are given in a line that begins with">
<polygon fill="none" stroke="black" stroke-width="0.5" points="284,-166.5 172,-166.5 172,-147.5 284,-147.5 284,-166.5"/>
<text text-anchor="middle" x="228" y="-154.5" font-family="Vera Sans, DejaVu Sans, Liberation Sans, Arial, Helvetica, sans" font-size="10.00">CommentedHeader</text>
</a>
</g>
</g>
<!-- BaseReader&#45;&gt;CommentedHeader -->
<g id="edge7" class="edge"><title>BaseReader&#45;&gt;CommentedHeader</title>
<path fill="none" stroke="black" stroke-width="0.5" d="M98.21,-142.17C118.23,-144.475 143.627,-147.399 166.567,-150.041"/>
<polygon fill="black" stroke="black" stroke-width="0.5" points="166.559,-151.802 171.727,-150.635 166.96,-148.325 166.559,-151.802"/>
</g>
<!-- Daophot -->
<g id="node19" class="node"><title>Daophot</title>
<g id="a_node19"><a xlink:href="../../api/astropy.io.ascii.Daophot.html#astropy.io.ascii.Daophot" xlink:title="Read a DAOphot file.">
<polygon fill="none" stroke="black" stroke-width="0.5" points="257,-129.5 199,-129.5 199,-110.5 257,-110.5 257,-129.5"/>
<text text-anchor="middle" x="228" y="-117.5" font-family="Vera Sans, DejaVu Sans, Liberation Sans, Arial, Helvetica, sans" font-size="10.00">Daophot</text>
</a>
</g>
</g>
<!-- BaseReader&#45;&gt;Daophot -->
<g id="edge10" class="edge"><title>BaseReader&#45;&gt;Daophot</title>
<path fill="none" stroke="black" stroke-width="0.5" d="M98.21,-134.05C126.698,-130.942 166.075,-126.646 193.767,-123.625"/>
<polygon fill="black" stroke="black" stroke-width="0.5" points="194.015,-125.359 198.796,-123.077 193.636,-121.879 194.015,-125.359"/>
</g>
<!-- FixedWidth -->
<g id="node21" class="node"><title>FixedWidth</title>
<g id="a_node21"><a xlink:href="../../api/astropy.io.ascii.FixedWidth.html#astropy.io.ascii.FixedWidth" xlink:title="Read or write a fixed width table with a single header line that defines column">
<polygon fill="none" stroke="black" stroke-width="0.5" points="261.5,-92.5 194.5,-92.5 194.5,-73.5 261.5,-73.5 261.5,-92.5"/>
<text text-anchor="middle" x="228" y="-80.5" font-family="Vera Sans, DejaVu Sans, Liberation Sans, Arial, Helvetica, sans" font-size="10.00">FixedWidth</text>
</a>
</g>
</g>
<!-- BaseReader&#45;&gt;FixedWidth -->
<g id="edge12" class="edge"><title>BaseReader&#45;&gt;FixedWidth</title>
<path fill="none" stroke="black" stroke-width="0.5" d="M84.245,-128.605C103.54,-120.654 132.327,-109.267 158,-101 168.127,-97.739 179.231,-94.6389 189.514,-91.9593"/>
<polygon fill="black" stroke="black" stroke-width="0.5" points="190.082,-93.6201 194.488,-90.6787 189.21,-90.2306 190.082,-93.6201"/>
</g>
<!-- HTML -->
<g id="node28" class="node"><title>HTML</title>
<g id="a_node28"><a xlink:href="../../api/astropy.io.ascii.HTML.html#astropy.io.ascii.HTML" xlink:title="Read and write HTML tables.">
<polygon fill="none" stroke="black" stroke-width="0.5" points="255,-55.5 201,-55.5 201,-36.5 255,-36.5 255,-55.5"/>
<text text-anchor="middle" x="228" y="-43.5" font-family="Vera Sans, DejaVu Sans, Liberation Sans, Arial, Helvetica, sans" font-size="10.00">HTML</text>
</a>
</g>
</g>
<!-- BaseReader&#45;&gt;HTML -->
<g id="edge19" class="edge"><title>BaseReader&#45;&gt;HTML</title>
<path fill="none" stroke="black" stroke-width="0.5" d="M71.4627,-128.546C87.73,-112.825 122.669,-81.3267 158,-64 169.768,-58.2287 183.605,-54.1523 195.785,-51.3561"/>
<polygon fill="black" stroke="black" stroke-width="0.5" points="196.385,-53.0162 200.893,-50.2349 195.634,-49.5976 196.385,-53.0162"/>
</g>
<!-- SExtractor -->
<g id="node35" class="node"><title>SExtractor</title>
<g id="a_node35"><a xlink:href="../../api/astropy.io.ascii.SExtractor.html#astropy.io.ascii.SExtractor" xlink:title="Read a SExtractor file.">
<polygon fill="none" stroke="black" stroke-width="0.5" points="261.5,-18.5 194.5,-18.5 194.5,0.5 261.5,0.5 261.5,-18.5"/>
<text text-anchor="middle" x="228" y="-6.5" font-family="Vera Sans, DejaVu Sans, Liberation Sans, Arial, Helvetica, sans" font-size="10.00">SExtractor</text>
</a>
</g>
</g>
<!-- BaseReader&#45;&gt;SExtractor -->
<g id="edge26" class="edge"><title>BaseReader&#45;&gt;SExtractor</title>
<path fill="none" stroke="black" stroke-width="0.5" d="M67.3679,-128.577C80.1338,-107.051 114.515,-54.0489 158,-27 167.481,-21.1027 178.845,-17.1266 189.589,-14.4499"/>
<polygon fill="black" stroke="black" stroke-width="0.5" points="190.002,-16.1506 194.473,-13.3093 189.206,-12.7423 190.002,-16.1506"/>
</g>
<!-- BaseSplitter -->
<g id="node12" class="node"><title>BaseSplitter</title>
<g id="a_node12"><a xlink:href="../../api/astropy.io.ascii.BaseSplitter.html#astropy.io.ascii.BaseSplitter" xlink:title="Base splitter that uses python&#39;s split method to do the work.">
<polygon fill="none" stroke="black" stroke-width="0.5" points="98.5,-618.5 23.5,-618.5 23.5,-599.5 98.5,-599.5 98.5,-618.5"/>
<text text-anchor="middle" x="61" y="-606.5" font-family="Vera Sans, DejaVu Sans, Liberation Sans, Arial, Helvetica, sans" font-size="10.00">BaseSplitter</text>
</a>
</g>
</g>
<!-- DefaultSplitter -->
<g id="node20" class="node"><title>DefaultSplitter</title>
<g id="a_node20"><a xlink:href="../../api/astropy.io.ascii.DefaultSplitter.html#astropy.io.ascii.DefaultSplitter" xlink:title="Default class to split strings into columns using python csv. &#160;The class">
<polygon fill="none" stroke="black" stroke-width="0.5" points="271,-637.5 185,-637.5 185,-618.5 271,-618.5 271,-637.5"/>
<text text-anchor="middle" x="228" y="-625.5" font-family="Vera Sans, DejaVu Sans, Liberation Sans, Arial, Helvetica, sans" font-size="10.00">DefaultSplitter</text>
</a>
</g>
</g>
<!-- BaseSplitter&#45;&gt;DefaultSplitter -->
<g id="edge11" class="edge"><title>BaseSplitter&#45;&gt;DefaultSplitter</title>
<path fill="none" stroke="black" stroke-width="0.5" d="M98.6188,-613.217C122.562,-615.974 154.065,-619.601 179.872,-622.573"/>
<polygon fill="black" stroke="black" stroke-width="0.5" points="179.786,-624.325 184.953,-623.158 180.186,-620.848 179.786,-624.325"/>
</g>
<!-- FixedWidthSplitter -->
<g id="node25" class="node"><title>FixedWidthSplitter</title>
<g id="a_node25"><a xlink:href="../../api/astropy.io.ascii.FixedWidthSplitter.html#astropy.io.ascii.FixedWidthSplitter" xlink:title="Split line based on fixed start and end positions for each ``col`` in">
<polygon fill="none" stroke="black" stroke-width="0.5" points="278.5,-600.5 177.5,-600.5 177.5,-581.5 278.5,-581.5 278.5,-600.5"/>
<text text-anchor="middle" x="228" y="-588.5" font-family="Vera Sans, DejaVu Sans, Liberation Sans, Arial, Helvetica, sans" font-size="10.00">FixedWidthSplitter</text>
</a>
</g>
</g>
<!-- BaseSplitter&#45;&gt;FixedWidthSplitter -->
<g id="edge16" class="edge"><title>BaseSplitter&#45;&gt;FixedWidthSplitter</title>
<path fill="none" stroke="black" stroke-width="0.5" d="M98.6188,-605.005C120.246,-602.646 148.042,-599.614 172.236,-596.974"/>
<polygon fill="black" stroke="black" stroke-width="0.5" points="172.56,-598.699 177.341,-596.417 172.18,-595.22 172.56,-598.699"/>
</g>
<!-- Csv -->
<g id="node18" class="node"><title>Csv</title>
<g id="a_node18"><a xlink:href="../../api/astropy.io.ascii.Csv.html#astropy.io.ascii.Csv" xlink:title="Read a CSV (comma&#45;separated&#45;values) file.">
<polygon fill="none" stroke="black" stroke-width="0.5" points="419,-267.5 365,-267.5 365,-248.5 419,-248.5 419,-267.5"/>
<text text-anchor="middle" x="392" y="-255.5" font-family="Vera Sans, DejaVu Sans, Liberation Sans, Arial, Helvetica, sans" font-size="10.00">Csv</text>
</a>
</g>
</g>
<!-- Basic&#45;&gt;Csv -->
<g id="edge9" class="edge"><title>Basic&#45;&gt;Csv</title>
<path fill="none" stroke="black" stroke-width="0.5" d="M255.028,-235.338C283.521,-240.087 329.198,-247.7 359.643,-252.774"/>
<polygon fill="black" stroke="black" stroke-width="0.5" points="359.548,-254.532 364.768,-253.628 360.124,-251.08 359.548,-254.532"/>
</g>
<!-- NoHeader -->
<g id="node31" class="node"><title>NoHeader</title>
<g id="a_node31"><a xlink:href="../../api/astropy.io.ascii.NoHeader.html#astropy.io.ascii.NoHeader" xlink:title="Read a table with no header line. &#160;Columns are autonamed using">
<polygon fill="none" stroke="black" stroke-width="0.5" points="424.5,-230.5 359.5,-230.5 359.5,-211.5 424.5,-211.5 424.5,-230.5"/>
<text text-anchor="middle" x="392" y="-218.5" font-family="Vera Sans, DejaVu Sans, Liberation Sans, Arial, Helvetica, sans" font-size="10.00">NoHeader</text>
</a>
</g>
</g>
<!-- Basic&#45;&gt;NoHeader -->
<g id="edge23" class="edge"><title>Basic&#45;&gt;NoHeader</title>
<path fill="none" stroke="black" stroke-width="0.5" d="M255.028,-229.393C281.915,-227.734 324.102,-225.13 354.354,-223.262"/>
<polygon fill="black" stroke="black" stroke-width="0.5" points="354.597,-225.001 359.479,-222.946 354.381,-221.507 354.597,-225.001"/>
</g>
<!-- Tab -->
<g id="node34" class="node"><title>Tab</title>
<g id="a_node34"><a xlink:href="../../api/astropy.io.ascii.Tab.html#astropy.io.ascii.Tab" xlink:title="Read a tab&#45;separated file. &#160;Unlike the :class:`Basic` reader, whitespace is">
<polygon fill="none" stroke="black" stroke-width="0.5" points="419,-193.5 365,-193.5 365,-174.5 419,-174.5 419,-193.5"/>
<text text-anchor="middle" x="392" y="-181.5" font-family="Vera Sans, DejaVu Sans, Liberation Sans, Arial, Helvetica, sans" font-size="10.00">Tab</text>
</a>
</g>
</g>
<!-- Basic&#45;&gt;Tab -->
<g id="edge28" class="edge"><title>Basic&#45;&gt;Tab</title>
<path fill="none" stroke="black" stroke-width="0.5" d="M255.253,-223.928C268.151,-220.414 283.912,-216.06 298,-212 318.734,-206.025 341.978,-199.027 360.041,-193.522"/>
<polygon fill="black" stroke="black" stroke-width="0.5" points="360.721,-195.144 364.992,-192.011 359.699,-191.796 360.721,-195.144"/>
</g>
<!-- Column -->
<g id="node15" class="node"><title>Column</title>
<g id="a_node15"><a xlink:href="../../api/astropy.io.ascii.Column.html#astropy.io.ascii.Column" xlink:title="Table column.">
<polygon fill="none" stroke="black" stroke-width="0.5" points="88,-655.5 34,-655.5 34,-636.5 88,-636.5 88,-655.5"/>
<text text-anchor="middle" x="61" y="-643.5" font-family="Vera Sans, DejaVu Sans, Liberation Sans, Arial, Helvetica, sans" font-size="10.00">Column</text>
</a>
</g>
</g>
<!-- WhitespaceSplitter -->
<g id="node37" class="node"><title>WhitespaceSplitter</title>
<g id="a_node37"><a xlink:href="../../api/astropy.io.ascii.WhitespaceSplitter.html#astropy.io.ascii.WhitespaceSplitter" xlink:title="WhitespaceSplitter">
<polygon fill="none" stroke="black" stroke-width="0.5" points="445,-637.5 339,-637.5 339,-618.5 445,-618.5 445,-637.5"/>
<text text-anchor="middle" x="392" y="-625.5" font-family="Vera Sans, DejaVu Sans, Liberation Sans, Arial, Helvetica, sans" font-size="10.00">WhitespaceSplitter</text>
</a>
</g>
</g>
<!-- DefaultSplitter&#45;&gt;WhitespaceSplitter -->
<g id="edge30" class="edge"><title>DefaultSplitter&#45;&gt;WhitespaceSplitter</title>
<path fill="none" stroke="black" stroke-width="0.5" d="M271.141,-628C290.241,-628 313.119,-628 333.744,-628"/>
<polygon fill="black" stroke="black" stroke-width="0.5" points="333.935,-629.75 338.935,-628 333.935,-626.25 333.935,-629.75"/>
</g>
<!-- FixedWidthNoHeader -->
<g id="node24" class="node"><title>FixedWidthNoHeader</title>
<g id="a_node24"><a xlink:href="../../api/astropy.io.ascii.FixedWidthNoHeader.html#astropy.io.ascii.FixedWidthNoHeader" xlink:title="Read or write a fixed width table which has no header line. &#160;Column">
<polygon fill="none" stroke="black" stroke-width="0.5" points="450,-129.5 334,-129.5 334,-110.5 450,-110.5 450,-129.5"/>
<text text-anchor="middle" x="392" y="-117.5" font-family="Vera Sans, DejaVu Sans, Liberation Sans, Arial, Helvetica, sans" font-size="10.00">FixedWidthNoHeader</text>
</a>
</g>
</g>
<!-- FixedWidth&#45;&gt;FixedWidthNoHeader -->
<g id="edge15" class="edge"><title>FixedWidth&#45;&gt;FixedWidthNoHeader</title>
<path fill="none" stroke="black" stroke-width="0.5" d="M261.783,-90.4875C285.805,-95.9741 318.724,-103.492 345.323,-109.568"/>
<polygon fill="black" stroke="black" stroke-width="0.5" points="344.948,-111.277 350.212,-110.684 345.727,-107.865 344.948,-111.277"/>
</g>
<!-- FixedWidthTwoLine -->
<g id="node26" class="node"><title>FixedWidthTwoLine</title>
<g id="a_node26"><a xlink:href="../../api/astropy.io.ascii.FixedWidthTwoLine.html#astropy.io.ascii.FixedWidthTwoLine" xlink:title="Read or write a fixed width table which has two header lines. &#160;The first">
<polygon fill="none" stroke="black" stroke-width="0.5" points="443.5,-92.5 340.5,-92.5 340.5,-73.5 443.5,-73.5 443.5,-92.5"/>
<text text-anchor="middle" x="392" y="-80.5" font-family="Vera Sans, DejaVu Sans, Liberation Sans, Arial, Helvetica, sans" font-size="10.00">FixedWidthTwoLine</text>
</a>
</g>
</g>
<!-- FixedWidth&#45;&gt;FixedWidthTwoLine -->
<g id="edge17" class="edge"><title>FixedWidth&#45;&gt;FixedWidthTwoLine</title>
<path fill="none" stroke="black" stroke-width="0.5" d="M261.783,-83C282.844,-83 310.743,-83 335.226,-83"/>
<polygon fill="black" stroke="black" stroke-width="0.5" points="335.395,-84.7501 340.395,-83 335.395,-81.2501 335.395,-84.7501"/>
</g>
<!-- Ipac -->
<g id="node30" class="node"><title>Ipac</title>
<g id="a_node30"><a xlink:href="../../api/astropy.io.ascii.Ipac.html#astropy.io.ascii.Ipac" xlink:title="Read or write an IPAC format table. &#160;See">
<polygon fill="none" stroke="black" stroke-width="0.5" points="419,-55.5 365,-55.5 365,-36.5 419,-36.5 419,-55.5"/>
<text text-anchor="middle" x="392" y="-43.5" font-family="Vera Sans, DejaVu Sans, Liberation Sans, Arial, Helvetica, sans" font-size="10.00">Ipac</text>
</a>
</g>
</g>
<!-- FixedWidth&#45;&gt;Ipac -->
<g id="edge21" class="edge"><title>FixedWidth&#45;&gt;Ipac</title>
<path fill="none" stroke="black" stroke-width="0.5" d="M261.783,-75.5125C290.418,-68.9723 331.694,-59.5451 359.839,-53.117"/>
<polygon fill="black" stroke="black" stroke-width="0.5" points="360.451,-54.7725 364.935,-51.953 359.671,-51.3603 360.451,-54.7725"/>
</g>
<!-- NumType -->
<g id="node27" class="node"><title>NumType</title>
<g id="a_node27"><a xlink:href="../../api/astropy.io.ascii.NumType.html#astropy.io.ascii.NumType" xlink:title="Indicates that a column consists of numerical data.">
<polygon fill="none" stroke="black" stroke-width="0.5" points="258.5,-378.5 197.5,-378.5 197.5,-359.5 258.5,-359.5 258.5,-378.5"/>
<text text-anchor="middle" x="228" y="-366.5" font-family="Vera Sans, DejaVu Sans, Liberation Sans, Arial, Helvetica, sans" font-size="10.00">NumType</text>
</a>
</g>
</g>
<!-- NumType&#45;&gt;FloatType -->
<g id="edge18" class="edge"><title>NumType&#45;&gt;FloatType</title>
<path fill="none" stroke="black" stroke-width="0.5" d="M258.713,-369C286.231,-369 327.163,-369 356.198,-369"/>
<polygon fill="black" stroke="black" stroke-width="0.5" points="356.475,-370.75 361.475,-369 356.475,-367.25 356.475,-370.75"/>
</g>
<!-- NumType&#45;&gt;IntType -->
<g id="edge20" class="edge"><title>NumType&#45;&gt;IntType</title>
<path fill="none" stroke="black" stroke-width="0.5" d="M258.713,-362.214C287.467,-355.646 330.869,-345.734 360.038,-339.071"/>
<polygon fill="black" stroke="black" stroke-width="0.5" points="360.467,-340.769 364.952,-337.949 359.688,-337.356 360.467,-340.769"/>
</g>
<!-- InconsistentTableError -->
<g id="node29" class="node"><title>InconsistentTableError</title>
<g id="a_node29"><a xlink:href="../../api/astropy.io.ascii.InconsistentTableError.html#astropy.io.ascii.InconsistentTableError" xlink:title="Indicates that an input table is inconsistent in some way.">
<polygon fill="none" stroke="black" stroke-width="0.5" points="122,-692.5 -7.10543e-15,-692.5 -7.10543e-15,-673.5 122,-673.5 122,-692.5"/>
<text text-anchor="middle" x="61" y="-680.5" font-family="Vera Sans, DejaVu Sans, Liberation Sans, Arial, Helvetica, sans" font-size="10.00">InconsistentTableError</text>
</a>
</g>
</g>
<!-- NoType -->
<g id="node32" class="node"><title>NoType</title>
<g id="a_node32"><a xlink:href="../../api/astropy.io.ascii.NoType.html#astropy.io.ascii.NoType" xlink:title="Superclass for ``StrType`` and ``NumType`` classes.">
<polygon fill="none" stroke="black" stroke-width="0.5" points="88,-396.5 34,-396.5 34,-377.5 88,-377.5 88,-396.5"/>
<text text-anchor="middle" x="61" y="-384.5" font-family="Vera Sans, DejaVu Sans, Liberation Sans, Arial, Helvetica, sans" font-size="10.00">NoType</text>
</a>
</g>
</g>
<!-- NoType&#45;&gt;StrType -->
<g id="edge27" class="edge"><title>NoType&#45;&gt;StrType</title>
<path fill="none" stroke="black" stroke-width="0.5" d="M88.1447,-390.011C117.351,-393.374 164.607,-398.815 195.742,-402.401"/>
<polygon fill="black" stroke="black" stroke-width="0.5" points="195.81,-404.17 200.978,-403.003 196.211,-400.693 195.81,-404.17"/>
</g>
<!-- NoType&#45;&gt;NumType -->
<g id="edge24" class="edge"><title>NoType&#45;&gt;NumType</title>
<path fill="none" stroke="black" stroke-width="0.5" d="M88.1447,-384.148C116.234,-381.084 161.02,-376.198 192.102,-372.807"/>
<polygon fill="black" stroke="black" stroke-width="0.5" points="192.573,-374.516 197.353,-372.234 192.193,-371.037 192.573,-374.516"/>
</g>
<!-- Rdb -->
<g id="node33" class="node"><title>Rdb</title>
<g id="a_node33"><a xlink:href="../../api/astropy.io.ascii.Rdb.html#astropy.io.ascii.Rdb" xlink:title="Read a tab&#45;separated file with an extra line after the column definition">
<polygon fill="none" stroke="black" stroke-width="0.5" points="540,-193.5 486,-193.5 486,-174.5 540,-174.5 540,-193.5"/>
<text text-anchor="middle" x="513" y="-181.5" font-family="Vera Sans, DejaVu Sans, Liberation Sans, Arial, Helvetica, sans" font-size="10.00">Rdb</text>
</a>
</g>
</g>
<!-- Tab&#45;&gt;Rdb -->
<g id="edge25" class="edge"><title>Tab&#45;&gt;Rdb</title>
<path fill="none" stroke="black" stroke-width="0.5" d="M419.115,-184C437.251,-184 461.505,-184 480.681,-184"/>
<polygon fill="black" stroke="black" stroke-width="0.5" points="480.946,-185.75 485.946,-184 480.946,-182.25 480.946,-185.75"/>
</g>
</g>
</svg>
