<?xml version="1.0" encoding="UTF-8" standalone="no"?>
<!DOCTYPE svg PUBLIC "-//W3C//DTD SVG 1.1//EN"
 "http://www.w3.org/Graphics/SVG/1.1/DTD/svg11.dtd">
<!-- Generated by graphviz version 2.36.0 (20140111.2315)
 -->
<!-- Title: inheritance3ec63e4c1b Pages: 1 -->
<svg width="478pt" height="360pt"
 viewBox="0.00 0.00 478.00 360.00" xmlns="http://www.w3.org/2000/svg" xmlns:xlink="http://www.w3.org/1999/xlink">
<g id="graph0" class="graph" transform="scale(1 1) rotate(0) translate(4 356)">
<title>inheritance3ec63e4c1b</title>
<polygon fill="white" stroke="none" points="-4,4 -4,-356 474,-356 474,4 -4,4"/>
<!-- BaseColumn -->
<g id="node1" class="node"><title>BaseColumn</title>
<polygon fill="none" stroke="black" stroke-width="0.5" points="222.5,-56.5 145.5,-56.5 145.5,-37.5 222.5,-37.5 222.5,-56.5"/>
<text text-anchor="middle" x="184" y="-44.5" font-family="Vera Sans, DejaVu Sans, Liberation Sans, Arial, Helvetica, sans" font-size="10.00">BaseColumn</text>
</g>
<!-- Column -->
<g id="node4" class="node"><title>Column</title>
<g id="a_node4"><a xlink:href="../api/astropy.table.Column.html#astropy.table.Column" xlink:title="Define a data column for use in a Table object.">
<polygon fill="none" stroke="black" stroke-width="0.5" points="331,-55.5 277,-55.5 277,-36.5 331,-36.5 331,-55.5"/>
<text text-anchor="middle" x="304" y="-43.5" font-family="Vera Sans, DejaVu Sans, Liberation Sans, Arial, Helvetica, sans" font-size="10.00">Column</text>
</a>
</g>
</g>
<!-- BaseColumn&#45;&gt;Column -->
<g id="edge2" class="edge"><title>BaseColumn&#45;&gt;Column</title>
<path fill="none" stroke="black" stroke-width="0.5" d="M222.66,-46.6808C238.399,-46.5475 256.479,-46.3942 271.497,-46.267"/>
<polygon fill="black" stroke="black" stroke-width="0.5" points="271.897,-48.0137 276.882,-46.2213 271.867,-44.5139 271.897,-48.0137"/>
</g>
<!-- ndarray -->
<g id="node2" class="node"><title>ndarray</title>
<g id="a_node2"><a xlink:title="ndarray(shape, dtype=float, buffer=None, offset=0,">
<polygon fill="none" stroke="black" stroke-width="0.5" points="79,-37.5 25,-37.5 25,-18.5 79,-18.5 79,-37.5"/>
<text text-anchor="middle" x="52" y="-25.5" font-family="Vera Sans, DejaVu Sans, Liberation Sans, Arial, Helvetica, sans" font-size="10.00">ndarray</text>
</a>
</g>
</g>
<!-- ndarray&#45;&gt;BaseColumn -->
<g id="edge1" class="edge"><title>ndarray&#45;&gt;BaseColumn</title>
<path fill="none" stroke="black" stroke-width="0.5" d="M79.3074,-31.8449C96.8168,-34.404 120.216,-37.8238 140.354,-40.7672"/>
<polygon fill="black" stroke="black" stroke-width="0.5" points="140.198,-42.5128 145.399,-41.5044 140.704,-39.0496 140.198,-42.5128"/>
</g>
<!-- MaskedArray -->
<g id="node8" class="node"><title>MaskedArray</title>
<g id="a_node8"><a xlink:title="An array class with possibly masked values.">
<polygon fill="none" stroke="black" stroke-width="0.5" points="343.5,-18.5 264.5,-18.5 264.5,0.5 343.5,0.5 343.5,-18.5"/>
<text text-anchor="middle" x="304" y="-6.5" font-family="Vera Sans, DejaVu Sans, Liberation Sans, Arial, Helvetica, sans" font-size="10.00">MaskedArray</text>
</a>
</g>
</g>
<!-- ndarray&#45;&gt;MaskedArray -->
<g id="edge5" class="edge"><title>ndarray&#45;&gt;MaskedArray</title>
<path fill="none" stroke="black" stroke-width="0.5" d="M79.2819,-26.0026C122.066,-22.751 207.213,-16.2798 259.238,-12.3259"/>
<polygon fill="black" stroke="black" stroke-width="0.5" points="259.625,-14.0516 264.478,-11.9277 259.36,-10.5617 259.625,-14.0516"/>
</g>
<!-- BaseGroups -->
<g id="node3" class="node"><title>BaseGroups</title>
<g id="a_node3"><a xlink:title="A class to represent groups within a table of heterogeneous data.">
<polygon fill="none" stroke="black" stroke-width="0.5" points="89.5,-111.5 14.5,-111.5 14.5,-92.5 89.5,-92.5 89.5,-111.5"/>
<text text-anchor="middle" x="52" y="-99.5" font-family="Vera Sans, DejaVu Sans, Liberation Sans, Arial, Helvetica, sans" font-size="10.00">BaseGroups</text>
</a>
</g>
</g>
<!-- ColumnGroups -->
<g id="node5" class="node"><title>ColumnGroups</title>
<g id="a_node5"><a xlink:href="../api/astropy.table.ColumnGroups.html#astropy.table.ColumnGroups" xlink:title="ColumnGroups">
<polygon fill="none" stroke="black" stroke-width="0.5" points="228,-130.5 140,-130.5 140,-111.5 228,-111.5 228,-130.5"/>
<text text-anchor="middle" x="184" y="-118.5" font-family="Vera Sans, DejaVu Sans, Liberation Sans, Arial, Helvetica, sans" font-size="10.00">ColumnGroups</text>
</a>
</g>
</g>
<!-- BaseGroups&#45;&gt;ColumnGroups -->
<g id="edge3" class="edge"><title>BaseGroups&#45;&gt;ColumnGroups</title>
<path fill="none" stroke="black" stroke-width="0.5" d="M89.5582,-107.343C103.592,-109.394 119.83,-111.767 134.793,-113.954"/>
<polygon fill="black" stroke="black" stroke-width="0.5" points="134.613,-115.697 139.813,-114.688 135.119,-112.233 134.613,-115.697"/>
</g>
<!-- TableGroups -->
<g id="node15" class="node"><title>TableGroups</title>
<g id="a_node15"><a xlink:href="../api/astropy.table.TableGroups.html#astropy.table.TableGroups" xlink:title="TableGroups">
<polygon fill="none" stroke="black" stroke-width="0.5" points="221.5,-93.5 146.5,-93.5 146.5,-74.5 221.5,-74.5 221.5,-93.5"/>
<text text-anchor="middle" x="184" y="-81.5" font-family="Vera Sans, DejaVu Sans, Liberation Sans, Arial, Helvetica, sans" font-size="10.00">TableGroups</text>
</a>
</g>
</g>
<!-- BaseGroups&#45;&gt;TableGroups -->
<g id="edge9" class="edge"><title>BaseGroups&#45;&gt;TableGroups</title>
<path fill="none" stroke="black" stroke-width="0.5" d="M89.5582,-96.9381C105.62,-94.7141 124.568,-92.0906 141.188,-89.7893"/>
<polygon fill="black" stroke="black" stroke-width="0.5" points="141.553,-91.5056 146.266,-89.0863 141.073,-88.0387 141.553,-91.5056"/>
</g>
<!-- MaskedColumn -->
<g id="node9" class="node"><title>MaskedColumn</title>
<g id="a_node9"><a xlink:href="../api/astropy.table.MaskedColumn.html#astropy.table.MaskedColumn" xlink:title="Define a masked data column for use in a Table object.">
<polygon fill="none" stroke="black" stroke-width="0.5" points="470,-36.5 380,-36.5 380,-17.5 470,-17.5 470,-36.5"/>
<text text-anchor="middle" x="425" y="-24.5" font-family="Vera Sans, DejaVu Sans, Liberation Sans, Arial, Helvetica, sans" font-size="10.00">MaskedColumn</text>
</a>
</g>
</g>
<!-- Column&#45;&gt;MaskedColumn -->
<g id="edge6" class="edge"><title>Column&#45;&gt;MaskedColumn</title>
<path fill="none" stroke="black" stroke-width="0.5" d="M331.115,-41.8304C343.901,-39.789 359.727,-37.2621 374.671,-34.8761"/>
<polygon fill="black" stroke="black" stroke-width="0.5" points="375.038,-36.5897 379.699,-34.0732 374.486,-33.1335 375.038,-36.5897"/>
</g>
<!-- Conf -->
<g id="node6" class="node"><title>Conf</title>
<g id="a_node6"><a xlink:href="../api/astropy.table.Conf.html#astropy.table.Conf" xlink:title="Configuration parameters for `astropy.table`.">
<polygon fill="none" stroke="black" stroke-width="0.5" points="211,-167.5 157,-167.5 157,-148.5 211,-148.5 211,-167.5"/>
<text text-anchor="middle" x="184" y="-155.5" font-family="Vera Sans, DejaVu Sans, Liberation Sans, Arial, Helvetica, sans" font-size="10.00">Conf</text>
</a>
</g>
</g>
<!-- ConfigNamespace -->
<g id="node7" class="node"><title>ConfigNamespace</title>
<g id="a_node7"><a xlink:href="../api/astropy.config.ConfigNamespace.html#astropy.config.ConfigNamespace" xlink:title="A namespace of configuration items. &#160;Each subpackage with">
<polygon fill="none" stroke="black" stroke-width="0.5" points="104,-167.5 0,-167.5 0,-148.5 104,-148.5 104,-167.5"/>
<text text-anchor="middle" x="52" y="-155.5" font-family="Vera Sans, DejaVu Sans, Liberation Sans, Arial, Helvetica, sans" font-size="10.00">ConfigNamespace</text>
</a>
</g>
</g>
<!-- ConfigNamespace&#45;&gt;Conf -->
<g id="edge4" class="edge"><title>ConfigNamespace&#45;&gt;Conf</title>
<path fill="none" stroke="black" stroke-width="0.5" d="M104.006,-158C120.098,-158 137.391,-158 151.682,-158"/>
<polygon fill="black" stroke="black" stroke-width="0.5" points="151.804,-159.75 156.804,-158 151.804,-156.25 151.804,-159.75"/>
</g>
<!-- MaskedArray&#45;&gt;MaskedColumn -->
<g id="edge7" class="edge"><title>MaskedArray&#45;&gt;MaskedColumn</title>
<path fill="none" stroke="black" stroke-width="0.5" d="M343.636,-14.8441C353.551,-16.3438 364.35,-17.9774 374.723,-19.5463"/>
<polygon fill="black" stroke="black" stroke-width="0.5" points="374.569,-21.2929 379.775,-20.3105 375.093,-17.8323 374.569,-21.2929"/>
</g>
<!-- OrderedDict -->
<g id="node10" class="node"><title>OrderedDict</title>
<g id="a_node10"><a xlink:title="Dictionary that remembers insertion order">
<polygon fill="none" stroke="black" stroke-width="0.5" points="89,-204.5 15,-204.5 15,-185.5 89,-185.5 89,-204.5"/>
<text text-anchor="middle" x="52" y="-192.5" font-family="Vera Sans, DejaVu Sans, Liberation Sans, Arial, Helvetica, sans" font-size="10.00">OrderedDict</text>
</a>
</g>
</g>
<!-- TableColumns -->
<g id="node13" class="node"><title>TableColumns</title>
<g id="a_node13"><a xlink:href="../api/astropy.table.TableColumns.html#astropy.table.TableColumns" xlink:title="OrderedDict subclass for a set of columns.">
<polygon fill="none" stroke="black" stroke-width="0.5" points="225.5,-204.5 142.5,-204.5 142.5,-185.5 225.5,-185.5 225.5,-204.5"/>
<text text-anchor="middle" x="184" y="-192.5" font-family="Vera Sans, DejaVu Sans, Liberation Sans, Arial, Helvetica, sans" font-size="10.00">TableColumns</text>
</a>
</g>
</g>
<!-- OrderedDict&#45;&gt;TableColumns -->
<g id="edge8" class="edge"><title>OrderedDict&#45;&gt;TableColumns</title>
<path fill="none" stroke="black" stroke-width="0.5" d="M89.2122,-195C104.062,-195 121.424,-195 137.145,-195"/>
<polygon fill="black" stroke="black" stroke-width="0.5" points="137.408,-196.75 142.407,-195 137.407,-193.25 137.408,-196.75"/>
</g>
<!-- Row -->
<g id="node11" class="node"><title>Row</title>
<g id="a_node11"><a xlink:href="../api/astropy.table.Row.html#astropy.table.Row" xlink:title="A class to represent one row of a Table object.">
<polygon fill="none" stroke="black" stroke-width="0.5" points="79,-241.5 25,-241.5 25,-222.5 79,-222.5 79,-241.5"/>
<text text-anchor="middle" x="52" y="-229.5" font-family="Vera Sans, DejaVu Sans, Liberation Sans, Arial, Helvetica, sans" font-size="10.00">Row</text>
</a>
</g>
</g>
<!-- Table -->
<g id="node12" class="node"><title>Table</title>
<g id="a_node12"><a xlink:href="../api/astropy.table.Table.html#astropy.table.Table" xlink:title="A class to represent tables of heterogeneous data.">
<polygon fill="none" stroke="black" stroke-width="0.5" points="79,-278.5 25,-278.5 25,-259.5 79,-259.5 79,-278.5"/>
<text text-anchor="middle" x="52" y="-266.5" font-family="Vera Sans, DejaVu Sans, Liberation Sans, Arial, Helvetica, sans" font-size="10.00">Table</text>
</a>
</g>
</g>
<!-- TableFormatter -->
<g id="node14" class="node"><title>TableFormatter</title>
<g id="a_node14"><a xlink:href="../api/astropy.table.TableFormatter.html#astropy.table.TableFormatter" xlink:title="TableFormatter">
<polygon fill="none" stroke="black" stroke-width="0.5" points="96.5,-315.5 7.5,-315.5 7.5,-296.5 96.5,-296.5 96.5,-315.5"/>
<text text-anchor="middle" x="52" y="-303.5" font-family="Vera Sans, DejaVu Sans, Liberation Sans, Arial, Helvetica, sans" font-size="10.00">TableFormatter</text>
</a>
</g>
</g>
<!-- TableMergeError -->
<g id="node16" class="node"><title>TableMergeError</title>
<g id="a_node16"><a xlink:href="../api/astropy.table.TableMergeError.html#astropy.table.TableMergeError" xlink:title="TableMergeError">
<polygon fill="none" stroke="black" stroke-width="0.5" points="99,-352.5 5,-352.5 5,-333.5 99,-333.5 99,-352.5"/>
<text text-anchor="middle" x="52" y="-340.5" font-family="Vera Sans, DejaVu Sans, Liberation Sans, Arial, Helvetica, sans" font-size="10.00">TableMergeError</text>
</a>
</g>
</g>
</g>
</svg>
