<?xml version="1.0" encoding="UTF-8" standalone="no"?>
<!DOCTYPE svg PUBLIC "-//W3C//DTD SVG 1.1//EN"
 "http://www.w3.org/Graphics/SVG/1.1/DTD/svg11.dtd">
<!-- Generated by graphviz version 2.36.0 (20140111.2315)
 -->
<!-- Title: inheritance77b4864455 Pages: 1 -->
<svg width="362pt" height="26pt"
 viewBox="0.00 0.00 362.00 26.00" xmlns="http://www.w3.org/2000/svg" xmlns:xlink="http://www.w3.org/1999/xlink">
<g id="graph0" class="graph" transform="scale(1 1) rotate(0) translate(4 22)">
<title>inheritance77b4864455</title>
<polygon fill="white" stroke="none" points="-4,4 -4,-22 358,-22 358,4 -4,4"/>
<!-- Constant -->
<g id="node1" class="node"><title>Constant</title>
<g id="a_node1"><a xlink:href="../api/astropy.constants.Constant.html#astropy.constants.Constant" xlink:title="A physical or astronomical constant.">
<polygon fill="none" stroke="black" stroke-width="0.5" points="244,-18.5 184,-18.5 184,0.5 244,0.5 244,-18.5"/>
<text text-anchor="middle" x="214" y="-6.5" font-family="Vera Sans, DejaVu Sans, Liberation Sans, Arial, Helvetica, sans" font-size="10.00">Constant</text>
</a>
</g>
</g>
<!-- EMConstant -->
<g id="node3" class="node"><title>EMConstant</title>
<g id="a_node3"><a xlink:href="../api/astropy.constants.EMConstant.html#astropy.constants.EMConstant" xlink:title="An electromagnetic constant.">
<polygon fill="none" stroke="black" stroke-width="0.5" points="354,-18.5 280,-18.5 280,0.5 354,0.5 354,-18.5"/>
<text text-anchor="middle" x="317" y="-6.5" font-family="Vera Sans, DejaVu Sans, Liberation Sans, Arial, Helvetica, sans" font-size="10.00">EMConstant</text>
</a>
</g>
</g>
<!-- Constant&#45;&gt;EMConstant -->
<g id="edge2" class="edge"><title>Constant&#45;&gt;EMConstant</title>
<path fill="none" stroke="black" stroke-width="0.5" d="M244.213,-9C253.64,-9 264.277,-9 274.419,-9"/>
<polygon fill="black" stroke="black" stroke-width="0.5" points="274.668,-10.7501 279.668,-9 274.668,-7.2501 274.668,-10.7501"/>
</g>
<!-- Quantity -->
<g id="node2" class="node"><title>Quantity</title>
<g id="a_node2"><a xlink:href="../api/astropy.units.quantity.Quantity.html#astropy.units.quantity.Quantity" xlink:title="A `Quantity` represents a number with some associated unit.">
<polygon fill="none" stroke="black" stroke-width="0.5" points="147.5,-18.5 90.5,-18.5 90.5,0.5 147.5,0.5 147.5,-18.5"/>
<text text-anchor="middle" x="119" y="-6.5" font-family="Vera Sans, DejaVu Sans, Liberation Sans, Arial, Helvetica, sans" font-size="10.00">Quantity</text>
</a>
</g>
</g>
<!-- Quantity&#45;&gt;Constant -->
<g id="edge1" class="edge"><title>Quantity&#45;&gt;Constant</title>
<path fill="none" stroke="black" stroke-width="0.5" d="M147.651,-9C157.317,-9 168.292,-9 178.45,-9"/>
<polygon fill="black" stroke="black" stroke-width="0.5" points="178.676,-10.7501 183.676,-9 178.676,-7.2501 178.676,-10.7501"/>
</g>
<!-- ndarray -->
<g id="node4" class="node"><title>ndarray</title>
<g id="a_node4"><a xlink:title="ndarray(shape, dtype=float, buffer=None, offset=0,">
<polygon fill="none" stroke="black" stroke-width="0.5" points="54,-18.5 0,-18.5 0,0.5 54,0.5 54,-18.5"/>
<text text-anchor="middle" x="27" y="-6.5" font-family="Vera Sans, DejaVu Sans, Liberation Sans, Arial, Helvetica, sans" font-size="10.00">ndarray</text>
</a>
</g>
</g>
<!-- ndarray&#45;&gt;Quantity -->
<g id="edge3" class="edge"><title>ndarray&#45;&gt;Quantity</title>
<path fill="none" stroke="black" stroke-width="0.5" d="M54.0317,-9C63.7577,-9 74.9306,-9 85.1894,-9"/>
<polygon fill="black" stroke="black" stroke-width="0.5" points="85.4582,-10.7501 90.4582,-9 85.4582,-7.25009 85.4582,-10.7501"/>
</g>
</g>
</svg>
