<?xml version="1.0" encoding="UTF-8" standalone="no"?>
<!DOCTYPE svg PUBLIC "-//W3C//DTD SVG 1.1//EN"
 "http://www.w3.org/Graphics/SVG/1.1/DTD/svg11.dtd">
<!-- Generated by graphviz version 2.36.0 (20140111.2315)
 -->
<!-- Title: inheritanceb72993dc76 Pages: 1 -->
<svg width="506pt" height="137pt"
 viewBox="0.00 0.00 506.00 137.00" xmlns="http://www.w3.org/2000/svg" xmlns:xlink="http://www.w3.org/1999/xlink">
<g id="graph0" class="graph" transform="scale(1 1) rotate(0) translate(4 133)">
<title>inheritanceb72993dc76</title>
<polygon fill="white" stroke="none" points="-4,4 -4,-133 502,-133 502,4 -4,4"/>
<!-- BrokenPowerLaw1D -->
<g id="node1" class="node"><title>BrokenPowerLaw1D</title>
<g id="a_node1"><a xlink:href="../api/astropy.modeling.powerlaws.BrokenPowerLaw1D.html#astropy.modeling.powerlaws.BrokenPowerLaw1D" xlink:title="One dimensional power law model with a break.">
<polygon fill="none" stroke="black" stroke-width="0.5" points="472,-129.5 362,-129.5 362,-110.5 472,-110.5 472,-129.5"/>
<text text-anchor="middle" x="417" y="-117.5" font-family="Vera Sans, DejaVu Sans, Liberation Sans, Arial, Helvetica, sans" font-size="10.00">BrokenPowerLaw1D</text>
</a>
</g>
</g>
<!-- Fittable1DModel -->
<g id="node2" class="node"><title>Fittable1DModel</title>
<g id="a_node2"><a xlink:href="../api/astropy.modeling.Fittable1DModel.html#astropy.modeling.Fittable1DModel" xlink:title="Base class for one&#45;dimensional fittable models.">
<polygon fill="none" stroke="black" stroke-width="0.5" points="299.5,-73.5 206.5,-73.5 206.5,-54.5 299.5,-54.5 299.5,-73.5"/>
<text text-anchor="middle" x="253" y="-61.5" font-family="Vera Sans, DejaVu Sans, Liberation Sans, Arial, Helvetica, sans" font-size="10.00">Fittable1DModel</text>
</a>
</g>
</g>
<!-- Fittable1DModel&#45;&gt;BrokenPowerLaw1D -->
<g id="edge1" class="edge"><title>Fittable1DModel&#45;&gt;BrokenPowerLaw1D</title>
<path fill="none" stroke="black" stroke-width="0.5" d="M272.157,-73.4047C288.51,-81.5798 313.382,-93.2901 336,-101 345.32,-104.177 355.425,-107.021 365.216,-109.482"/>
<polygon fill="black" stroke="black" stroke-width="0.5" points="365.029,-111.237 370.302,-110.733 365.865,-107.839 365.029,-111.237"/>
</g>
<!-- ExponentialCutoffPowerLaw1D -->
<g id="node3" class="node"><title>ExponentialCutoffPowerLaw1D</title>
<g id="a_node3"><a xlink:href="../api/astropy.modeling.powerlaws.ExponentialCutoffPowerLaw1D.html#astropy.modeling.powerlaws.ExponentialCutoffPowerLaw1D" xlink:title="One dimensional power law model with an exponential cutoff.">
<polygon fill="none" stroke="black" stroke-width="0.5" points="497.5,-92.5 336.5,-92.5 336.5,-73.5 497.5,-73.5 497.5,-92.5"/>
<text text-anchor="middle" x="417" y="-80.5" font-family="Vera Sans, DejaVu Sans, Liberation Sans, Arial, Helvetica, sans" font-size="10.00">ExponentialCutoffPowerLaw1D</text>
</a>
</g>
</g>
<!-- Fittable1DModel&#45;&gt;ExponentialCutoffPowerLaw1D -->
<g id="edge2" class="edge"><title>Fittable1DModel&#45;&gt;ExponentialCutoffPowerLaw1D</title>
<path fill="none" stroke="black" stroke-width="0.5" d="M299.557,-69.3431C309.702,-70.5329 320.77,-71.831 331.916,-73.1383"/>
<polygon fill="black" stroke="black" stroke-width="0.5" points="331.87,-74.8948 337.04,-73.7393 332.278,-71.4187 331.87,-74.8948"/>
</g>
<!-- LogParabola1D -->
<g id="node6" class="node"><title>LogParabola1D</title>
<g id="a_node6"><a xlink:href="../api/astropy.modeling.powerlaws.LogParabola1D.html#astropy.modeling.powerlaws.LogParabola1D" xlink:title="One dimensional log parabola model (sometimes called curved power law).">
<polygon fill="none" stroke="black" stroke-width="0.5" points="461.5,-55.5 372.5,-55.5 372.5,-36.5 461.5,-36.5 461.5,-55.5"/>
<text text-anchor="middle" x="417" y="-43.5" font-family="Vera Sans, DejaVu Sans, Liberation Sans, Arial, Helvetica, sans" font-size="10.00">LogParabola1D</text>
</a>
</g>
</g>
<!-- Fittable1DModel&#45;&gt;LogParabola1D -->
<g id="edge5" class="edge"><title>Fittable1DModel&#45;&gt;LogParabola1D</title>
<path fill="none" stroke="black" stroke-width="0.5" d="M299.557,-58.9381C320.697,-56.5892 345.849,-53.7945 367.358,-51.4046"/>
<polygon fill="black" stroke="black" stroke-width="0.5" points="367.681,-53.1296 372.457,-50.8381 367.294,-49.651 367.681,-53.1296"/>
</g>
<!-- PowerLaw1D -->
<g id="node7" class="node"><title>PowerLaw1D</title>
<g id="a_node7"><a xlink:href="../api/astropy.modeling.powerlaws.PowerLaw1D.html#astropy.modeling.powerlaws.PowerLaw1D" xlink:title="One dimensional power law model.">
<polygon fill="none" stroke="black" stroke-width="0.5" points="455.5,-18.5 378.5,-18.5 378.5,0.5 455.5,0.5 455.5,-18.5"/>
<text text-anchor="middle" x="417" y="-6.5" font-family="Vera Sans, DejaVu Sans, Liberation Sans, Arial, Helvetica, sans" font-size="10.00">PowerLaw1D</text>
</a>
</g>
</g>
<!-- Fittable1DModel&#45;&gt;PowerLaw1D -->
<g id="edge6" class="edge"><title>Fittable1DModel&#45;&gt;PowerLaw1D</title>
<path fill="none" stroke="black" stroke-width="0.5" d="M271.816,-54.6907C288.148,-46.4657 313.189,-34.6251 336,-27 347.814,-23.0509 360.898,-19.6986 373.004,-16.9964"/>
<polygon fill="black" stroke="black" stroke-width="0.5" points="373.614,-18.6545 378.126,-15.8783 372.867,-15.235 373.614,-18.6545"/>
</g>
<!-- FittableModel -->
<g id="node4" class="node"><title>FittableModel</title>
<g id="a_node4"><a xlink:href="../api/astropy.modeling.FittableModel.html#astropy.modeling.FittableModel" xlink:title="Base class for models that can be fitted using the built&#45;in fitting">
<polygon fill="none" stroke="black" stroke-width="0.5" points="170,-73.5 90,-73.5 90,-54.5 170,-54.5 170,-73.5"/>
<text text-anchor="middle" x="130" y="-61.5" font-family="Vera Sans, DejaVu Sans, Liberation Sans, Arial, Helvetica, sans" font-size="10.00">FittableModel</text>
</a>
</g>
</g>
<!-- FittableModel&#45;&gt;Fittable1DModel -->
<g id="edge3" class="edge"><title>FittableModel&#45;&gt;Fittable1DModel</title>
<path fill="none" stroke="black" stroke-width="0.5" d="M170.285,-64C180.129,-64 190.832,-64 201.149,-64"/>
<polygon fill="black" stroke="black" stroke-width="0.5" points="201.178,-65.7501 206.178,-64 201.178,-62.2501 201.178,-65.7501"/>
</g>
<!-- Model -->
<g id="node5" class="node"><title>Model</title>
<g id="a_node5"><a xlink:href="../api/astropy.modeling.Model.html#astropy.modeling.Model" xlink:title="Base class for all models.">
<polygon fill="none" stroke="black" stroke-width="0.5" points="54,-73.5 0,-73.5 0,-54.5 54,-54.5 54,-73.5"/>
<text text-anchor="middle" x="27" y="-61.5" font-family="Vera Sans, DejaVu Sans, Liberation Sans, Arial, Helvetica, sans" font-size="10.00">Model</text>
</a>
</g>
</g>
<!-- Model&#45;&gt;FittableModel -->
<g id="edge4" class="edge"><title>Model&#45;&gt;FittableModel</title>
<path fill="none" stroke="black" stroke-width="0.5" d="M54.01,-64C63.3526,-64 74.1707,-64 84.6325,-64"/>
<polygon fill="black" stroke="black" stroke-width="0.5" points="84.7317,-65.7501 89.7316,-64 84.7316,-62.2501 84.7317,-65.7501"/>
</g>
</g>
</svg>
