<?xml version="1.0" encoding="UTF-8" standalone="no"?>
<!DOCTYPE svg PUBLIC "-//W3C//DTD SVG 1.1//EN"
 "http://www.w3.org/Graphics/SVG/1.1/DTD/svg11.dtd">
<!-- Generated by graphviz version 2.36.0 (20140111.2315)
 -->
<!-- Title: inheritance7fcdcb79b9 Pages: 1 -->
<svg width="438pt" height="229pt"
 viewBox="0.00 0.00 438.00 229.00" xmlns="http://www.w3.org/2000/svg" xmlns:xlink="http://www.w3.org/1999/xlink">
<g id="graph0" class="graph" transform="scale(1 1) rotate(0) translate(4 225)">
<title>inheritance7fcdcb79b9</title>
<polygon fill="white" stroke="none" points="-4,4 -4,-225 434,-225 434,4 -4,4"/>
<!-- Fittable1DModel -->
<g id="node1" class="node"><title>Fittable1DModel</title>
<g id="a_node1"><a xlink:href="../api/astropy.modeling.Fittable1DModel.html#astropy.modeling.Fittable1DModel" xlink:title="Base class for one&#45;dimensional fittable models.">
<polygon fill="none" stroke="black" stroke-width="0.5" points="405.5,-129.5 312.5,-129.5 312.5,-110.5 405.5,-110.5 405.5,-129.5"/>
<text text-anchor="middle" x="359" y="-117.5" font-family="Vera Sans, DejaVu Sans, Liberation Sans, Arial, Helvetica, sans" font-size="10.00">Fittable1DModel</text>
</a>
</g>
</g>
<!-- FittableModel -->
<g id="node2" class="node"><title>FittableModel</title>
<g id="a_node2"><a xlink:href="../api/astropy.modeling.FittableModel.html#astropy.modeling.FittableModel" xlink:title="Base class for models that can be fitted using the built&#45;in fitting">
<polygon fill="none" stroke="black" stroke-width="0.5" points="241,-92.5 161,-92.5 161,-73.5 241,-73.5 241,-92.5"/>
<text text-anchor="middle" x="201" y="-80.5" font-family="Vera Sans, DejaVu Sans, Liberation Sans, Arial, Helvetica, sans" font-size="10.00">FittableModel</text>
</a>
</g>
</g>
<!-- FittableModel&#45;&gt;Fittable1DModel -->
<g id="edge1" class="edge"><title>FittableModel&#45;&gt;Fittable1DModel</title>
<path fill="none" stroke="black" stroke-width="0.5" d="M241.365,-92.3367C263.435,-97.5711 291.025,-104.115 313.83,-109.524"/>
<polygon fill="black" stroke="black" stroke-width="0.5" points="313.649,-111.279 318.918,-110.73 314.457,-107.874 313.649,-111.279"/>
</g>
<!-- Fittable2DModel -->
<g id="node3" class="node"><title>Fittable2DModel</title>
<g id="a_node3"><a xlink:href="../api/astropy.modeling.Fittable2DModel.html#astropy.modeling.Fittable2DModel" xlink:title="Base class for one&#45;dimensional fittable models.">
<polygon fill="none" stroke="black" stroke-width="0.5" points="405.5,-92.5 312.5,-92.5 312.5,-73.5 405.5,-73.5 405.5,-92.5"/>
<text text-anchor="middle" x="359" y="-80.5" font-family="Vera Sans, DejaVu Sans, Liberation Sans, Arial, Helvetica, sans" font-size="10.00">Fittable2DModel</text>
</a>
</g>
</g>
<!-- FittableModel&#45;&gt;Fittable2DModel -->
<g id="edge2" class="edge"><title>FittableModel&#45;&gt;Fittable2DModel</title>
<path fill="none" stroke="black" stroke-width="0.5" d="M241.365,-83C261.337,-83 285.829,-83 307.205,-83"/>
<polygon fill="black" stroke="black" stroke-width="0.5" points="307.282,-84.7501 312.282,-83 307.282,-81.2501 307.282,-84.7501"/>
</g>
<!-- Model -->
<g id="node4" class="node"><title>Model</title>
<g id="a_node4"><a xlink:href="../api/astropy.modeling.Model.html#astropy.modeling.Model" xlink:title="Base class for all models.">
<polygon fill="none" stroke="black" stroke-width="0.5" points="84,-73.5 30,-73.5 30,-54.5 84,-54.5 84,-73.5"/>
<text text-anchor="middle" x="57" y="-61.5" font-family="Vera Sans, DejaVu Sans, Liberation Sans, Arial, Helvetica, sans" font-size="10.00">Model</text>
</a>
</g>
</g>
<!-- Model&#45;&gt;FittableModel -->
<g id="edge3" class="edge"><title>Model&#45;&gt;FittableModel</title>
<path fill="none" stroke="black" stroke-width="0.5" d="M84.045,-67.4849C104.153,-70.1754 132.432,-73.9593 156.03,-77.1167"/>
<polygon fill="black" stroke="black" stroke-width="0.5" points="155.802,-78.8516 160.989,-77.7803 156.266,-75.3826 155.802,-78.8516"/>
</g>
<!-- _CompositeModel -->
<g id="node10" class="node"><title>_CompositeModel</title>
<polygon fill="none" stroke="black" stroke-width="0.5" points="252,-55.5 150,-55.5 150,-36.5 252,-36.5 252,-55.5"/>
<text text-anchor="middle" x="201" y="-43.5" font-family="Vera Sans, DejaVu Sans, Liberation Sans, Arial, Helvetica, sans" font-size="10.00">_CompositeModel</text>
</g>
<!-- Model&#45;&gt;_CompositeModel -->
<g id="edge6" class="edge"><title>Model&#45;&gt;_CompositeModel</title>
<path fill="none" stroke="black" stroke-width="0.5" d="M84.045,-60.6985C101.094,-58.5374 124.017,-55.6317 144.98,-52.9744"/>
<polygon fill="black" stroke="black" stroke-width="0.5" points="145.24,-54.7056 149.98,-52.3406 144.799,-51.2333 145.24,-54.7056"/>
</g>
<!-- InputParameterError -->
<g id="node5" class="node"><title>InputParameterError</title>
<g id="a_node5"><a xlink:href="../api/astropy.modeling.InputParameterError.html#astropy.modeling.InputParameterError" xlink:title="Used for incorrect input parameter values and definitions.">
<polygon fill="none" stroke="black" stroke-width="0.5" points="114,-110.5 0,-110.5 0,-91.5 114,-91.5 114,-110.5"/>
<text text-anchor="middle" x="57" y="-98.5" font-family="Vera Sans, DejaVu Sans, Liberation Sans, Arial, Helvetica, sans" font-size="10.00">InputParameterError</text>
</a>
</g>
</g>
<!-- LabeledInput -->
<g id="node6" class="node"><title>LabeledInput</title>
<g id="a_node6"><a xlink:href="../api/astropy.modeling.LabeledInput.html#astropy.modeling.LabeledInput" xlink:title="Used by `SerialCompositeModel` and `SummedCompositeModel` to choose input">
<polygon fill="none" stroke="black" stroke-width="0.5" points="96,-147.5 18,-147.5 18,-128.5 96,-128.5 96,-147.5"/>
<text text-anchor="middle" x="57" y="-135.5" font-family="Vera Sans, DejaVu Sans, Liberation Sans, Arial, Helvetica, sans" font-size="10.00">LabeledInput</text>
</a>
</g>
</g>
<!-- ModelDefinitionError -->
<g id="node7" class="node"><title>ModelDefinitionError</title>
<g id="a_node7"><a xlink:href="../api/astropy.modeling.ModelDefinitionError.html#astropy.modeling.ModelDefinitionError" xlink:title="Used for incorrect models definitions">
<polygon fill="none" stroke="black" stroke-width="0.5" points="113.5,-184.5 0.5,-184.5 0.5,-165.5 113.5,-165.5 113.5,-184.5"/>
<text text-anchor="middle" x="57" y="-172.5" font-family="Vera Sans, DejaVu Sans, Liberation Sans, Arial, Helvetica, sans" font-size="10.00">ModelDefinitionError</text>
</a>
</g>
</g>
<!-- Parameter -->
<g id="node8" class="node"><title>Parameter</title>
<g id="a_node8"><a xlink:href="../api/astropy.modeling.Parameter.html#astropy.modeling.Parameter" xlink:title="Wraps individual parameters.">
<polygon fill="none" stroke="black" stroke-width="0.5" points="90.5,-221.5 23.5,-221.5 23.5,-202.5 90.5,-202.5 90.5,-221.5"/>
<text text-anchor="middle" x="57" y="-209.5" font-family="Vera Sans, DejaVu Sans, Liberation Sans, Arial, Helvetica, sans" font-size="10.00">Parameter</text>
</a>
</g>
</g>
<!-- SerialCompositeModel -->
<g id="node9" class="node"><title>SerialCompositeModel</title>
<g id="a_node9"><a xlink:href="../api/astropy.modeling.SerialCompositeModel.html#astropy.modeling.SerialCompositeModel" xlink:title="Composite model that evaluates models in series.">
<polygon fill="none" stroke="black" stroke-width="0.5" points="421,-55.5 297,-55.5 297,-36.5 421,-36.5 421,-55.5"/>
<text text-anchor="middle" x="359" y="-43.5" font-family="Vera Sans, DejaVu Sans, Liberation Sans, Arial, Helvetica, sans" font-size="10.00">SerialCompositeModel</text>
</a>
</g>
</g>
<!-- _CompositeModel&#45;&gt;SerialCompositeModel -->
<g id="edge4" class="edge"><title>_CompositeModel&#45;&gt;SerialCompositeModel</title>
<path fill="none" stroke="black" stroke-width="0.5" d="M252.218,-46C264.799,-46 278.49,-46 291.72,-46"/>
<polygon fill="black" stroke="black" stroke-width="0.5" points="291.96,-47.7501 296.96,-46 291.96,-44.2501 291.96,-47.7501"/>
</g>
<!-- SummedCompositeModel -->
<g id="node11" class="node"><title>SummedCompositeModel</title>
<g id="a_node11"><a xlink:href="../api/astropy.modeling.SummedCompositeModel.html#astropy.modeling.SummedCompositeModel" xlink:title="Composite model that evaluates models in parallel.">
<polygon fill="none" stroke="black" stroke-width="0.5" points="429.5,-18.5 288.5,-18.5 288.5,0.5 429.5,0.5 429.5,-18.5"/>
<text text-anchor="middle" x="359" y="-6.5" font-family="Vera Sans, DejaVu Sans, Liberation Sans, Arial, Helvetica, sans" font-size="10.00">SummedCompositeModel</text>
</a>
</g>
</g>
<!-- _CompositeModel&#45;&gt;SummedCompositeModel -->
<g id="edge5" class="edge"><title>_CompositeModel&#45;&gt;SummedCompositeModel</title>
<path fill="none" stroke="black" stroke-width="0.5" d="M241.365,-36.6633C263.435,-31.4289 291.025,-24.8851 313.83,-19.4762"/>
<polygon fill="black" stroke="black" stroke-width="0.5" points="314.457,-21.1262 318.918,-18.2695 313.649,-17.7207 314.457,-21.1262"/>
</g>
</g>
</svg>
