<?xml version="1.0" encoding="UTF-8" standalone="no"?>
<!DOCTYPE svg PUBLIC "-//W3C//DTD SVG 1.1//EN"
 "http://www.w3.org/Graphics/SVG/1.1/DTD/svg11.dtd">
<!-- Generated by graphviz version 2.36.0 (20140111.2315)
 -->
<!-- Title: inheritance5a3416a143 Pages: 1 -->
<svg width="368pt" height="81pt"
 viewBox="0.00 0.00 368.00 81.00" xmlns="http://www.w3.org/2000/svg" xmlns:xlink="http://www.w3.org/1999/xlink">
<g id="graph0" class="graph" transform="scale(1 1) rotate(0) translate(4 77)">
<title>inheritance5a3416a143</title>
<polygon fill="white" stroke="none" points="-4,4 -4,-77 364,-77 364,4 -4,4"/>
<!-- EulerAngleRotation -->
<g id="node1" class="node"><title>EulerAngleRotation</title>
<g id="a_node1"><a xlink:title="Base class for Euler angle rotations.">
<polygon fill="none" stroke="black" stroke-width="0.5" points="197.5,-55.5 90.5,-55.5 90.5,-36.5 197.5,-36.5 197.5,-55.5"/>
<text text-anchor="middle" x="144" y="-43.5" font-family="Vera Sans, DejaVu Sans, Liberation Sans, Arial, Helvetica, sans" font-size="10.00">EulerAngleRotation</text>
</a>
</g>
</g>
<!-- RotateCelestial2Native -->
<g id="node3" class="node"><title>RotateCelestial2Native</title>
<g id="a_node3"><a xlink:href="../api/astropy.modeling.rotations.RotateCelestial2Native.html#astropy.modeling.rotations.RotateCelestial2Native" xlink:title="Transformation from Celestial to Native to Spherical Coordinates.">
<polygon fill="none" stroke="black" stroke-width="0.5" points="359.5,-73.5 234.5,-73.5 234.5,-54.5 359.5,-54.5 359.5,-73.5"/>
<text text-anchor="middle" x="297" y="-61.5" font-family="Vera Sans, DejaVu Sans, Liberation Sans, Arial, Helvetica, sans" font-size="10.00">RotateCelestial2Native</text>
</a>
</g>
</g>
<!-- EulerAngleRotation&#45;&gt;RotateCelestial2Native -->
<g id="edge2" class="edge"><title>EulerAngleRotation&#45;&gt;RotateCelestial2Native</title>
<path fill="none" stroke="black" stroke-width="0.5" d="M197.812,-52.2955C207.972,-53.5065 218.735,-54.7896 229.267,-56.0451"/>
<polygon fill="black" stroke="black" stroke-width="0.5" points="229.244,-57.8046 234.416,-56.6588 229.658,-54.3292 229.244,-57.8046"/>
</g>
<!-- RotateNative2Celestial -->
<g id="node4" class="node"><title>RotateNative2Celestial</title>
<g id="a_node4"><a xlink:href="../api/astropy.modeling.rotations.RotateNative2Celestial.html#astropy.modeling.rotations.RotateNative2Celestial" xlink:title="Transformation from Native to Celestial Spherical Coordinates.">
<polygon fill="none" stroke="black" stroke-width="0.5" points="359.5,-36.5 234.5,-36.5 234.5,-17.5 359.5,-17.5 359.5,-36.5"/>
<text text-anchor="middle" x="297" y="-24.5" font-family="Vera Sans, DejaVu Sans, Liberation Sans, Arial, Helvetica, sans" font-size="10.00">RotateNative2Celestial</text>
</a>
</g>
</g>
<!-- EulerAngleRotation&#45;&gt;RotateNative2Celestial -->
<g id="edge3" class="edge"><title>EulerAngleRotation&#45;&gt;RotateNative2Celestial</title>
<path fill="none" stroke="black" stroke-width="0.5" d="M197.812,-39.3547C207.972,-38.0764 218.735,-36.7221 229.267,-35.3968"/>
<polygon fill="black" stroke="black" stroke-width="0.5" points="229.673,-37.1096 234.416,-34.749 229.236,-33.637 229.673,-37.1096"/>
</g>
<!-- Model -->
<g id="node2" class="node"><title>Model</title>
<g id="a_node2"><a xlink:href="../api/astropy.modeling.Model.html#astropy.modeling.Model" xlink:title="Base class for all models.">
<polygon fill="none" stroke="black" stroke-width="0.5" points="54,-36.5 0,-36.5 0,-17.5 54,-17.5 54,-36.5"/>
<text text-anchor="middle" x="27" y="-24.5" font-family="Vera Sans, DejaVu Sans, Liberation Sans, Arial, Helvetica, sans" font-size="10.00">Model</text>
</a>
</g>
</g>
<!-- Model&#45;&gt;EulerAngleRotation -->
<g id="edge1" class="edge"><title>Model&#45;&gt;EulerAngleRotation</title>
<path fill="none" stroke="black" stroke-width="0.5" d="M54.0953,-31.3114C63.4051,-32.8495 74.2993,-34.6494 85.2075,-36.4517"/>
<polygon fill="black" stroke="black" stroke-width="0.5" points="84.9963,-38.1904 90.2147,-37.279 85.5669,-34.7372 84.9963,-38.1904"/>
</g>
<!-- Rotation2D -->
<g id="node5" class="node"><title>Rotation2D</title>
<g id="a_node5"><a xlink:href="../api/astropy.modeling.rotations.Rotation2D.html#astropy.modeling.rotations.Rotation2D" xlink:title="Perform a 2D rotation given an angle in degrees.">
<polygon fill="none" stroke="black" stroke-width="0.5" points="178.5,-18.5 109.5,-18.5 109.5,0.5 178.5,0.5 178.5,-18.5"/>
<text text-anchor="middle" x="144" y="-6.5" font-family="Vera Sans, DejaVu Sans, Liberation Sans, Arial, Helvetica, sans" font-size="10.00">Rotation2D</text>
</a>
</g>
</g>
<!-- Model&#45;&gt;Rotation2D -->
<g id="edge4" class="edge"><title>Model&#45;&gt;Rotation2D</title>
<path fill="none" stroke="black" stroke-width="0.5" d="M54.0953,-22.9155C68.8692,-20.6031 87.6331,-17.6661 104.111,-15.0869"/>
<polygon fill="black" stroke="black" stroke-width="0.5" points="104.476,-16.8013 109.145,-14.2991 103.934,-13.3434 104.476,-16.8013"/>
</g>
</g>
</svg>
