<?xml version="1.0" encoding="UTF-8" standalone="no"?>
<!DOCTYPE svg PUBLIC "-//W3C//DTD SVG 1.1//EN"
 "http://www.w3.org/Graphics/SVG/1.1/DTD/svg11.dtd">
<!-- Generated by graphviz version 2.36.0 (20140111.2315)
 -->
<!-- Title: inheritanceec53744177 Pages: 1 -->
<svg width="422pt" height="396pt"
 viewBox="0.00 0.00 422.00 396.00" xmlns="http://www.w3.org/2000/svg" xmlns:xlink="http://www.w3.org/1999/xlink">
<g id="graph0" class="graph" transform="scale(1 1) rotate(0) translate(4 392)">
<title>inheritanceec53744177</title>
<polygon fill="white" stroke="none" points="-4,4 -4,-392 418,-392 418,4 -4,4"/>
<!-- AstropyUserWarning -->
<g id="node1" class="node"><title>AstropyUserWarning</title>
<g id="a_node1"><a xlink:href="../../api/astropy.utils.exceptions.AstropyUserWarning.html#astropy.utils.exceptions.AstropyUserWarning" xlink:title="The primary warning class for Astropy.">
<polygon fill="none" stroke="black" stroke-width="0.5" points="283.5,-18.5 170.5,-18.5 170.5,0.5 283.5,0.5 283.5,-18.5"/>
<text text-anchor="middle" x="227" y="-6.5" font-family="Vera Sans, DejaVu Sans, Liberation Sans, Arial, Helvetica, sans" font-size="10.00">AstropyUserWarning</text>
</a>
</g>
</g>
<!-- SAMPWarning -->
<g id="node15" class="node"><title>SAMPWarning</title>
<g id="a_node15"><a xlink:href="../../api/astropy.vo.samp.SAMPWarning.html#astropy.vo.samp.SAMPWarning" xlink:title="SAMP&#45;specific Astropy warning class">
<polygon fill="none" stroke="black" stroke-width="0.5" points="408,-18.5 326,-18.5 326,0.5 408,0.5 408,-18.5"/>
<text text-anchor="middle" x="367" y="-6.5" font-family="Vera Sans, DejaVu Sans, Liberation Sans, Arial, Helvetica, sans" font-size="10.00">SAMPWarning</text>
</a>
</g>
</g>
<!-- AstropyUserWarning&#45;&gt;SAMPWarning -->
<g id="edge5" class="edge"><title>AstropyUserWarning&#45;&gt;SAMPWarning</title>
<path fill="none" stroke="black" stroke-width="0.5" d="M283.732,-9C295.928,-9 308.698,-9 320.44,-9"/>
<polygon fill="black" stroke="black" stroke-width="0.5" points="320.757,-10.7501 325.757,-9 320.757,-7.25009 320.757,-10.7501"/>
</g>
<!-- AstropyWarning -->
<g id="node2" class="node"><title>AstropyWarning</title>
<g id="a_node2"><a xlink:href="../../api/astropy.utils.exceptions.AstropyWarning.html#astropy.utils.exceptions.AstropyWarning" xlink:title="The base warning class from which all Astropy warnings should inherit.">
<polygon fill="none" stroke="black" stroke-width="0.5" points="112.5,-18.5 21.5,-18.5 21.5,0.5 112.5,0.5 112.5,-18.5"/>
<text text-anchor="middle" x="67" y="-6.5" font-family="Vera Sans, DejaVu Sans, Liberation Sans, Arial, Helvetica, sans" font-size="10.00">AstropyWarning</text>
</a>
</g>
</g>
<!-- AstropyWarning&#45;&gt;AstropyUserWarning -->
<g id="edge1" class="edge"><title>AstropyWarning&#45;&gt;AstropyUserWarning</title>
<path fill="none" stroke="black" stroke-width="0.5" d="M112.854,-9C129.059,-9 147.638,-9 164.994,-9"/>
<polygon fill="black" stroke="black" stroke-width="0.5" points="165.337,-10.7501 170.337,-9 165.337,-7.25009 165.337,-10.7501"/>
</g>
<!-- Conf -->
<g id="node3" class="node"><title>Conf</title>
<g id="a_node3"><a xlink:href="../../api/astropy.vo.samp.Conf.html#astropy.vo.samp.Conf" xlink:title="Configuration parameters for `astropy.vo.samp`.">
<polygon fill="none" stroke="black" stroke-width="0.5" points="254,-55.5 200,-55.5 200,-36.5 254,-36.5 254,-55.5"/>
<text text-anchor="middle" x="227" y="-43.5" font-family="Vera Sans, DejaVu Sans, Liberation Sans, Arial, Helvetica, sans" font-size="10.00">Conf</text>
</a>
</g>
</g>
<!-- ConfigNamespace -->
<g id="node4" class="node"><title>ConfigNamespace</title>
<g id="a_node4"><a xlink:href="../../api/astropy.config.ConfigNamespace.html#astropy.config.ConfigNamespace" xlink:title="A namespace of configuration items. &#160;Each subpackage with">
<polygon fill="none" stroke="black" stroke-width="0.5" points="119,-55.5 15,-55.5 15,-36.5 119,-36.5 119,-55.5"/>
<text text-anchor="middle" x="67" y="-43.5" font-family="Vera Sans, DejaVu Sans, Liberation Sans, Arial, Helvetica, sans" font-size="10.00">ConfigNamespace</text>
</a>
</g>
</g>
<!-- ConfigNamespace&#45;&gt;Conf -->
<g id="edge2" class="edge"><title>ConfigNamespace&#45;&gt;Conf</title>
<path fill="none" stroke="black" stroke-width="0.5" d="M119.298,-46C144.157,-46 173.206,-46 194.713,-46"/>
<polygon fill="black" stroke="black" stroke-width="0.5" points="194.734,-47.7501 199.734,-46 194.734,-44.2501 194.734,-47.7501"/>
</g>
<!-- Error -->
<g id="node5" class="node"><title>Error</title>
<g id="a_node5"><a xlink:title="Base class for client errors.">
<polygon fill="none" stroke="black" stroke-width="0.5" points="94,-92.5 40,-92.5 40,-73.5 94,-73.5 94,-92.5"/>
<text text-anchor="middle" x="67" y="-80.5" font-family="Vera Sans, DejaVu Sans, Liberation Sans, Arial, Helvetica, sans" font-size="10.00">Error</text>
</a>
</g>
</g>
<!-- Fault -->
<g id="node6" class="node"><title>Fault</title>
<g id="a_node6"><a xlink:title="Indicates an XML&#45;RPC fault package.">
<polygon fill="none" stroke="black" stroke-width="0.5" points="254,-92.5 200,-92.5 200,-73.5 254,-73.5 254,-92.5"/>
<text text-anchor="middle" x="227" y="-80.5" font-family="Vera Sans, DejaVu Sans, Liberation Sans, Arial, Helvetica, sans" font-size="10.00">Fault</text>
</a>
</g>
</g>
<!-- Error&#45;&gt;Fault -->
<g id="edge3" class="edge"><title>Error&#45;&gt;Fault</title>
<path fill="none" stroke="black" stroke-width="0.5" d="M94.0905,-83C121.65,-83 165.109,-83 194.545,-83"/>
<polygon fill="black" stroke="black" stroke-width="0.5" points="194.871,-84.7501 199.871,-83 194.871,-81.2501 194.871,-84.7501"/>
</g>
<!-- SAMPProxyError -->
<g id="node14" class="node"><title>SAMPProxyError</title>
<g id="a_node14"><a xlink:href="../../api/astropy.vo.samp.SAMPProxyError.html#astropy.vo.samp.SAMPProxyError" xlink:title="SAMP Proxy Hub exception">
<polygon fill="none" stroke="black" stroke-width="0.5" points="414,-92.5 320,-92.5 320,-73.5 414,-73.5 414,-92.5"/>
<text text-anchor="middle" x="367" y="-80.5" font-family="Vera Sans, DejaVu Sans, Liberation Sans, Arial, Helvetica, sans" font-size="10.00">SAMPProxyError</text>
</a>
</g>
</g>
<!-- Fault&#45;&gt;SAMPProxyError -->
<g id="edge4" class="edge"><title>Fault&#45;&gt;SAMPProxyError</title>
<path fill="none" stroke="black" stroke-width="0.5" d="M254.282,-83C271.367,-83 294.215,-83 314.795,-83"/>
<polygon fill="black" stroke="black" stroke-width="0.5" points="314.974,-84.7501 319.974,-83 314.974,-81.2501 314.974,-84.7501"/>
</g>
<!-- SAMPClient -->
<g id="node7" class="node"><title>SAMPClient</title>
<g id="a_node7"><a xlink:href="../../api/astropy.vo.samp.SAMPClient.html#astropy.vo.samp.SAMPClient" xlink:title="Utility class which provides facilities to create and manage a SAMP">
<polygon fill="none" stroke="black" stroke-width="0.5" points="102.5,-129.5 31.5,-129.5 31.5,-110.5 102.5,-110.5 102.5,-129.5"/>
<text text-anchor="middle" x="67" y="-117.5" font-family="Vera Sans, DejaVu Sans, Liberation Sans, Arial, Helvetica, sans" font-size="10.00">SAMPClient</text>
</a>
</g>
</g>
<!-- SAMPClientError -->
<g id="node8" class="node"><title>SAMPClientError</title>
<g id="a_node8"><a xlink:href="../../api/astropy.vo.samp.SAMPClientError.html#astropy.vo.samp.SAMPClientError" xlink:title="SAMP Client exceptions.">
<polygon fill="none" stroke="black" stroke-width="0.5" points="114.5,-166.5 19.5,-166.5 19.5,-147.5 114.5,-147.5 114.5,-166.5"/>
<text text-anchor="middle" x="67" y="-154.5" font-family="Vera Sans, DejaVu Sans, Liberation Sans, Arial, Helvetica, sans" font-size="10.00">SAMPClientError</text>
</a>
</g>
</g>
<!-- SAMPHubError -->
<g id="node9" class="node"><title>SAMPHubError</title>
<g id="a_node9"><a xlink:href="../../api/astropy.vo.samp.SAMPHubError.html#astropy.vo.samp.SAMPHubError" xlink:title="SAMP Hub exception.">
<polygon fill="none" stroke="black" stroke-width="0.5" points="110.5,-203.5 23.5,-203.5 23.5,-184.5 110.5,-184.5 110.5,-203.5"/>
<text text-anchor="middle" x="67" y="-191.5" font-family="Vera Sans, DejaVu Sans, Liberation Sans, Arial, Helvetica, sans" font-size="10.00">SAMPHubError</text>
</a>
</g>
</g>
<!-- SAMPHubProxy -->
<g id="node10" class="node"><title>SAMPHubProxy</title>
<g id="a_node10"><a xlink:href="../../api/astropy.vo.samp.SAMPHubProxy.html#astropy.vo.samp.SAMPHubProxy" xlink:title="Proxy class to simplify the client interaction with a SAMP hub (via the">
<polygon fill="none" stroke="black" stroke-width="0.5" points="112,-240.5 22,-240.5 22,-221.5 112,-221.5 112,-240.5"/>
<text text-anchor="middle" x="67" y="-228.5" font-family="Vera Sans, DejaVu Sans, Liberation Sans, Arial, Helvetica, sans" font-size="10.00">SAMPHubProxy</text>
</a>
</g>
</g>
<!-- SAMPHubServer -->
<g id="node11" class="node"><title>SAMPHubServer</title>
<g id="a_node11"><a xlink:href="../../api/astropy.vo.samp.SAMPHubServer.html#astropy.vo.samp.SAMPHubServer" xlink:title="SAMP Hub Server.">
<polygon fill="none" stroke="black" stroke-width="0.5" points="114.5,-277.5 19.5,-277.5 19.5,-258.5 114.5,-258.5 114.5,-277.5"/>
<text text-anchor="middle" x="67" y="-265.5" font-family="Vera Sans, DejaVu Sans, Liberation Sans, Arial, Helvetica, sans" font-size="10.00">SAMPHubServer</text>
</a>
</g>
</g>
<!-- SAMPIntegratedClient -->
<g id="node12" class="node"><title>SAMPIntegratedClient</title>
<g id="a_node12"><a xlink:href="../../api/astropy.vo.samp.SAMPIntegratedClient.html#astropy.vo.samp.SAMPIntegratedClient" xlink:title="A Simple SAMP client.">
<polygon fill="none" stroke="black" stroke-width="0.5" points="127.5,-314.5 6.5,-314.5 6.5,-295.5 127.5,-295.5 127.5,-314.5"/>
<text text-anchor="middle" x="67" y="-302.5" font-family="Vera Sans, DejaVu Sans, Liberation Sans, Arial, Helvetica, sans" font-size="10.00">SAMPIntegratedClient</text>
</a>
</g>
</g>
<!-- SAMPMsgReplierWrapper -->
<g id="node13" class="node"><title>SAMPMsgReplierWrapper</title>
<g id="a_node13"><a xlink:href="../../api/astropy.vo.samp.SAMPMsgReplierWrapper.html#astropy.vo.samp.SAMPMsgReplierWrapper" xlink:title="Function decorator that allows to automatically grab errors and returned">
<polygon fill="none" stroke="black" stroke-width="0.5" points="134,-351.5 0,-351.5 0,-332.5 134,-332.5 134,-351.5"/>
<text text-anchor="middle" x="67" y="-339.5" font-family="Vera Sans, DejaVu Sans, Liberation Sans, Arial, Helvetica, sans" font-size="10.00">SAMPMsgReplierWrapper</text>
</a>
</g>
</g>
<!-- WebProfileDialog -->
<g id="node16" class="node"><title>WebProfileDialog</title>
<g id="a_node16"><a xlink:href="../../api/astropy.vo.samp.WebProfileDialog.html#astropy.vo.samp.WebProfileDialog" xlink:title="A base class to make writing Web Profile GUI consent dialogs">
<polygon fill="none" stroke="black" stroke-width="0.5" points="114.5,-388.5 19.5,-388.5 19.5,-369.5 114.5,-369.5 114.5,-388.5"/>
<text text-anchor="middle" x="67" y="-376.5" font-family="Vera Sans, DejaVu Sans, Liberation Sans, Arial, Helvetica, sans" font-size="10.00">WebProfileDialog</text>
</a>
</g>
</g>
</g>
</svg>
