<?xml version="1.0" encoding="UTF-8" standalone="no"?>
<!DOCTYPE svg PUBLIC "-//W3C//DTD SVG 1.1//EN"
 "http://www.w3.org/Graphics/SVG/1.1/DTD/svg11.dtd">
<!-- Generated by graphviz version 2.36.0 (20140111.2315)
 -->
<!-- Title: inheritance2d0d457931 Pages: 1 -->
<svg width="238pt" height="155pt"
 viewBox="0.00 0.00 238.00 155.00" xmlns="http://www.w3.org/2000/svg" xmlns:xlink="http://www.w3.org/1999/xlink">
<g id="graph0" class="graph" transform="scale(1 1) rotate(0) translate(4 151)">
<title>inheritance2d0d457931</title>
<polygon fill="white" stroke="none" points="-4,4 -4,-151 234,-151 234,4 -4,4"/>
<!-- Fitter -->
<g id="node1" class="node"><title>Fitter</title>
<g id="a_node1"><a xlink:href="../api/astropy.modeling.fitting.Fitter.html#astropy.modeling.fitting.Fitter" xlink:title="Base class for all fitters.">
<polygon fill="none" stroke="black" stroke-width="0.5" points="75,-36.5 21,-36.5 21,-17.5 75,-17.5 75,-36.5"/>
<text text-anchor="middle" x="48" y="-24.5" font-family="Vera Sans, DejaVu Sans, Liberation Sans, Arial, Helvetica, sans" font-size="10.00">Fitter</text>
</a>
</g>
</g>
<!-- SLSQPLSQFitter -->
<g id="node5" class="node"><title>SLSQPLSQFitter</title>
<g id="a_node5"><a xlink:href="../api/astropy.modeling.fitting.SLSQPLSQFitter.html#astropy.modeling.fitting.SLSQPLSQFitter" xlink:title="SLSQP optimization algorithm and least squares statistic.">
<polygon fill="none" stroke="black" stroke-width="0.5" points="227,-55.5 135,-55.5 135,-36.5 227,-36.5 227,-55.5"/>
<text text-anchor="middle" x="181" y="-43.5" font-family="Vera Sans, DejaVu Sans, Liberation Sans, Arial, Helvetica, sans" font-size="10.00">SLSQPLSQFitter</text>
</a>
</g>
</g>
<!-- Fitter&#45;&gt;SLSQPLSQFitter -->
<g id="edge1" class="edge"><title>Fitter&#45;&gt;SLSQPLSQFitter</title>
<path fill="none" stroke="black" stroke-width="0.5" d="M75.195,-30.7993C90.7559,-33.0562 111.013,-35.9943 129.566,-38.6851"/>
<polygon fill="black" stroke="black" stroke-width="0.5" points="129.549,-40.4509 134.748,-39.4368 130.051,-36.9871 129.549,-40.4509"/>
</g>
<!-- SimplexLSQFitter -->
<g id="node6" class="node"><title>SimplexLSQFitter</title>
<g id="a_node6"><a xlink:href="../api/astropy.modeling.fitting.SimplexLSQFitter.html#astropy.modeling.fitting.SimplexLSQFitter" xlink:title="Simplex algorithm and least squares statistic.">
<polygon fill="none" stroke="black" stroke-width="0.5" points="230,-18.5 132,-18.5 132,0.5 230,0.5 230,-18.5"/>
<text text-anchor="middle" x="181" y="-6.5" font-family="Vera Sans, DejaVu Sans, Liberation Sans, Arial, Helvetica, sans" font-size="10.00">SimplexLSQFitter</text>
</a>
</g>
</g>
<!-- Fitter&#45;&gt;SimplexLSQFitter -->
<g id="edge2" class="edge"><title>Fitter&#45;&gt;SimplexLSQFitter</title>
<path fill="none" stroke="black" stroke-width="0.5" d="M75.195,-23.4007C90.0051,-21.3657 109.07,-18.7462 126.869,-16.3004"/>
<polygon fill="black" stroke="black" stroke-width="0.5" points="127.137,-18.0302 131.852,-15.6158 126.66,-14.5628 127.137,-18.0302"/>
</g>
<!-- JointFitter -->
<g id="node2" class="node"><title>JointFitter</title>
<g id="a_node2"><a xlink:href="../api/astropy.modeling.fitting.JointFitter.html#astropy.modeling.fitting.JointFitter" xlink:title="Fit models which share a parameter.">
<polygon fill="none" stroke="black" stroke-width="0.5" points="78.5,-73.5 17.5,-73.5 17.5,-54.5 78.5,-54.5 78.5,-73.5"/>
<text text-anchor="middle" x="48" y="-61.5" font-family="Vera Sans, DejaVu Sans, Liberation Sans, Arial, Helvetica, sans" font-size="10.00">JointFitter</text>
</a>
</g>
</g>
<!-- LevMarLSQFitter -->
<g id="node3" class="node"><title>LevMarLSQFitter</title>
<g id="a_node3"><a xlink:href="../api/astropy.modeling.fitting.LevMarLSQFitter.html#astropy.modeling.fitting.LevMarLSQFitter" xlink:title="Levenberg&#45;Marquardt algorithm and least squares statistic.">
<polygon fill="none" stroke="black" stroke-width="0.5" points="95.5,-110.5 0.5,-110.5 0.5,-91.5 95.5,-91.5 95.5,-110.5"/>
<text text-anchor="middle" x="48" y="-98.5" font-family="Vera Sans, DejaVu Sans, Liberation Sans, Arial, Helvetica, sans" font-size="10.00">LevMarLSQFitter</text>
</a>
</g>
</g>
<!-- LinearLSQFitter -->
<g id="node4" class="node"><title>LinearLSQFitter</title>
<g id="a_node4"><a xlink:href="../api/astropy.modeling.fitting.LinearLSQFitter.html#astropy.modeling.fitting.LinearLSQFitter" xlink:title="A class performing a linear least square fitting.">
<polygon fill="none" stroke="black" stroke-width="0.5" points="92.5,-147.5 3.5,-147.5 3.5,-128.5 92.5,-128.5 92.5,-147.5"/>
<text text-anchor="middle" x="48" y="-135.5" font-family="Vera Sans, DejaVu Sans, Liberation Sans, Arial, Helvetica, sans" font-size="10.00">LinearLSQFitter</text>
</a>
</g>
</g>
</g>
</svg>
