<?xml version="1.0" encoding="UTF-8" standalone="no"?>
<!DOCTYPE svg PUBLIC "-//W3C//DTD SVG 1.1//EN"
 "http://www.w3.org/Graphics/SVG/1.1/DTD/svg11.dtd">
<!-- Generated by graphviz version 2.36.0 (20140111.2315)
 -->
<!-- Title: inheritance5f754a30cf Pages: 1 -->
<svg width="470pt" height="729pt"
 viewBox="0.00 0.00 470.00 729.00" xmlns="http://www.w3.org/2000/svg" xmlns:xlink="http://www.w3.org/1999/xlink">
<g id="graph0" class="graph" transform="scale(1 1) rotate(0) translate(4 725)">
<title>inheritance5f754a30cf</title>
<polygon fill="white" stroke="none" points="-4,4 -4,-725 466,-725 466,4 -4,4"/>
<!-- AiryDisk2D -->
<g id="node1" class="node"><title>AiryDisk2D</title>
<g id="a_node1"><a xlink:href="../api/astropy.modeling.functional_models.AiryDisk2D.html#astropy.modeling.functional_models.AiryDisk2D" xlink:title="Two dimensional Airy disk model.">
<polygon fill="none" stroke="black" stroke-width="0.5" points="433,-721.5 365,-721.5 365,-702.5 433,-702.5 433,-721.5"/>
<text text-anchor="middle" x="399" y="-709.5" font-family="Vera Sans, DejaVu Sans, Liberation Sans, Arial, Helvetica, sans" font-size="10.00">AiryDisk2D</text>
</a>
</g>
</g>
<!-- Fittable2DModel -->
<g id="node2" class="node"><title>Fittable2DModel</title>
<g id="a_node2"><a xlink:href="../api/astropy.modeling.Fittable2DModel.html#astropy.modeling.Fittable2DModel" xlink:title="Base class for one&#45;dimensional fittable models.">
<polygon fill="none" stroke="black" stroke-width="0.5" points="299.5,-554.5 206.5,-554.5 206.5,-535.5 299.5,-535.5 299.5,-554.5"/>
<text text-anchor="middle" x="253" y="-542.5" font-family="Vera Sans, DejaVu Sans, Liberation Sans, Arial, Helvetica, sans" font-size="10.00">Fittable2DModel</text>
</a>
</g>
</g>
<!-- Fittable2DModel&#45;&gt;AiryDisk2D -->
<g id="edge1" class="edge"><title>Fittable2DModel&#45;&gt;AiryDisk2D</title>
<path fill="none" stroke="black" stroke-width="0.5" d="M256.561,-554.601C264.067,-580.87 288.533,-654.529 336,-693 342.808,-698.518 351.209,-702.437 359.604,-705.219"/>
<polygon fill="black" stroke="black" stroke-width="0.5" points="359.523,-707.024 364.816,-706.809 360.544,-703.676 359.523,-707.024"/>
</g>
<!-- Beta2D -->
<g id="node5" class="node"><title>Beta2D</title>
<g id="a_node5"><a xlink:href="../api/astropy.modeling.functional_models.Beta2D.html#astropy.modeling.functional_models.Beta2D" xlink:title="Two dimensional Beta model.">
<polygon fill="none" stroke="black" stroke-width="0.5" points="426,-684.5 372,-684.5 372,-665.5 426,-665.5 426,-684.5"/>
<text text-anchor="middle" x="399" y="-672.5" font-family="Vera Sans, DejaVu Sans, Liberation Sans, Arial, Helvetica, sans" font-size="10.00">Beta2D</text>
</a>
</g>
</g>
<!-- Fittable2DModel&#45;&gt;Beta2D -->
<g id="edge3" class="edge"><title>Fittable2DModel&#45;&gt;Beta2D</title>
<path fill="none" stroke="black" stroke-width="0.5" d="M258.285,-554.316C268.56,-575.617 296.693,-628.178 336,-656 345.081,-662.428 356.391,-666.725 366.855,-669.577"/>
<polygon fill="black" stroke="black" stroke-width="0.5" points="366.633,-671.327 371.911,-670.865 367.497,-667.935 366.633,-671.327"/>
</g>
<!-- Box2D -->
<g id="node7" class="node"><title>Box2D</title>
<g id="a_node7"><a xlink:href="../api/astropy.modeling.functional_models.Box2D.html#astropy.modeling.functional_models.Box2D" xlink:title="Two dimensional Box model.">
<polygon fill="none" stroke="black" stroke-width="0.5" points="426,-647.5 372,-647.5 372,-628.5 426,-628.5 426,-647.5"/>
<text text-anchor="middle" x="399" y="-635.5" font-family="Vera Sans, DejaVu Sans, Liberation Sans, Arial, Helvetica, sans" font-size="10.00">Box2D</text>
</a>
</g>
</g>
<!-- Fittable2DModel&#45;&gt;Box2D -->
<g id="edge5" class="edge"><title>Fittable2DModel&#45;&gt;Box2D</title>
<path fill="none" stroke="black" stroke-width="0.5" d="M261.861,-554.375C275.43,-569.981 304.806,-601.314 336,-619 345.51,-624.392 356.727,-628.427 366.987,-631.359"/>
<polygon fill="black" stroke="black" stroke-width="0.5" points="366.651,-633.081 371.935,-632.711 367.573,-629.705 366.651,-633.081"/>
</g>
<!-- Const2D -->
<g id="node9" class="node"><title>Const2D</title>
<g id="a_node9"><a xlink:href="../api/astropy.modeling.functional_models.Const2D.html#astropy.modeling.functional_models.Const2D" xlink:title="Two dimensional Constant model.">
<polygon fill="none" stroke="black" stroke-width="0.5" points="428,-610.5 370,-610.5 370,-591.5 428,-591.5 428,-610.5"/>
<text text-anchor="middle" x="399" y="-598.5" font-family="Vera Sans, DejaVu Sans, Liberation Sans, Arial, Helvetica, sans" font-size="10.00">Const2D</text>
</a>
</g>
</g>
<!-- Fittable2DModel&#45;&gt;Const2D -->
<g id="edge7" class="edge"><title>Fittable2DModel&#45;&gt;Const2D</title>
<path fill="none" stroke="black" stroke-width="0.5" d="M272.931,-554.368C289.369,-562.301 313.933,-573.679 336,-582 345.329,-585.518 355.624,-588.876 365.099,-591.763"/>
<polygon fill="black" stroke="black" stroke-width="0.5" points="364.678,-593.464 369.97,-593.229 365.686,-590.112 364.678,-593.464"/>
</g>
<!-- Disk2D -->
<g id="node10" class="node"><title>Disk2D</title>
<g id="a_node10"><a xlink:href="../api/astropy.modeling.functional_models.Disk2D.html#astropy.modeling.functional_models.Disk2D" xlink:title="Two dimensional radial symmetric Disk model.">
<polygon fill="none" stroke="black" stroke-width="0.5" points="426,-573.5 372,-573.5 372,-554.5 426,-554.5 426,-573.5"/>
<text text-anchor="middle" x="399" y="-561.5" font-family="Vera Sans, DejaVu Sans, Liberation Sans, Arial, Helvetica, sans" font-size="10.00">Disk2D</text>
</a>
</g>
</g>
<!-- Fittable2DModel&#45;&gt;Disk2D -->
<g id="edge8" class="edge"><title>Fittable2DModel&#45;&gt;Disk2D</title>
<path fill="none" stroke="black" stroke-width="0.5" d="M299.562,-551.012C321.346,-553.886 346.88,-557.255 366.482,-559.841"/>
<polygon fill="black" stroke="black" stroke-width="0.5" points="366.402,-561.596 371.588,-560.515 366.86,-558.126 366.402,-561.596"/>
</g>
<!-- Gaussian2D -->
<g id="node14" class="node"><title>Gaussian2D</title>
<g id="a_node14"><a xlink:href="../api/astropy.modeling.functional_models.Gaussian2D.html#astropy.modeling.functional_models.Gaussian2D" xlink:title="Two dimensional Gaussian model.">
<polygon fill="none" stroke="black" stroke-width="0.5" points="436,-536.5 362,-536.5 362,-517.5 436,-517.5 436,-536.5"/>
<text text-anchor="middle" x="399" y="-524.5" font-family="Vera Sans, DejaVu Sans, Liberation Sans, Arial, Helvetica, sans" font-size="10.00">Gaussian2D</text>
</a>
</g>
</g>
<!-- Fittable2DModel&#45;&gt;Gaussian2D -->
<g id="edge13" class="edge"><title>Fittable2DModel&#45;&gt;Gaussian2D</title>
<path fill="none" stroke="black" stroke-width="0.5" d="M299.562,-539.305C317.783,-537.027 338.626,-534.422 356.428,-532.197"/>
<polygon fill="black" stroke="black" stroke-width="0.5" points="357.104,-533.876 361.849,-531.519 356.67,-530.403 357.104,-533.876"/>
</g>
<!-- MexicanHat2D -->
<g id="node19" class="node"><title>MexicanHat2D</title>
<g id="a_node19"><a xlink:href="../api/astropy.modeling.functional_models.MexicanHat2D.html#astropy.modeling.functional_models.MexicanHat2D" xlink:title="Two dimensional symmetric Mexican Hat model.">
<polygon fill="none" stroke="black" stroke-width="0.5" points="442,-499.5 356,-499.5 356,-480.5 442,-480.5 442,-499.5"/>
<text text-anchor="middle" x="399" y="-487.5" font-family="Vera Sans, DejaVu Sans, Liberation Sans, Arial, Helvetica, sans" font-size="10.00">MexicanHat2D</text>
</a>
</g>
</g>
<!-- Fittable2DModel&#45;&gt;MexicanHat2D -->
<g id="edge18" class="edge"><title>Fittable2DModel&#45;&gt;MexicanHat2D</title>
<path fill="none" stroke="black" stroke-width="0.5" d="M273.619,-535.616C290.067,-527.936 314.283,-517.064 336,-509 343.779,-506.112 352.217,-503.312 360.291,-500.788"/>
<polygon fill="black" stroke="black" stroke-width="0.5" points="361,-502.401 365.262,-499.255 359.968,-499.057 361,-502.401"/>
</g>
<!-- Ring2D -->
<g id="node21" class="node"><title>Ring2D</title>
<g id="a_node21"><a xlink:href="../api/astropy.modeling.functional_models.Ring2D.html#astropy.modeling.functional_models.Ring2D" xlink:title="Two dimensional radial symmetric Ring model.">
<polygon fill="none" stroke="black" stroke-width="0.5" points="426,-462.5 372,-462.5 372,-443.5 426,-443.5 426,-462.5"/>
<text text-anchor="middle" x="399" y="-450.5" font-family="Vera Sans, DejaVu Sans, Liberation Sans, Arial, Helvetica, sans" font-size="10.00">Ring2D</text>
</a>
</g>
</g>
<!-- Fittable2DModel&#45;&gt;Ring2D -->
<g id="edge20" class="edge"><title>Fittable2DModel&#45;&gt;Ring2D</title>
<path fill="none" stroke="black" stroke-width="0.5" d="M262.109,-535.509C275.815,-520.041 305.101,-489.38 336,-472 345.529,-466.64 356.75,-462.613 367.008,-459.678"/>
<polygon fill="black" stroke="black" stroke-width="0.5" points="367.594,-461.332 371.955,-458.324 366.67,-457.956 367.594,-461.332"/>
</g>
<!-- TrapezoidDisk2D -->
<g id="node26" class="node"><title>TrapezoidDisk2D</title>
<g id="a_node26"><a xlink:href="../api/astropy.modeling.functional_models.TrapezoidDisk2D.html#astropy.modeling.functional_models.TrapezoidDisk2D" xlink:title="Two dimensional circular Trapezoid model.">
<polygon fill="none" stroke="black" stroke-width="0.5" points="446.5,-425.5 351.5,-425.5 351.5,-406.5 446.5,-406.5 446.5,-425.5"/>
<text text-anchor="middle" x="399" y="-413.5" font-family="Vera Sans, DejaVu Sans, Liberation Sans, Arial, Helvetica, sans" font-size="10.00">TrapezoidDisk2D</text>
</a>
</g>
</g>
<!-- Fittable2DModel&#45;&gt;TrapezoidDisk2D -->
<g id="edge25" class="edge"><title>Fittable2DModel&#45;&gt;TrapezoidDisk2D</title>
<path fill="none" stroke="black" stroke-width="0.5" d="M258.464,-535.451C268.913,-514.143 297.056,-462.439 336,-435 340.369,-431.922 345.249,-429.332 350.301,-427.155"/>
<polygon fill="black" stroke="black" stroke-width="0.5" points="350.995,-428.762 354.979,-425.27 349.687,-425.516 350.995,-428.762"/>
</g>
<!-- Beta1D -->
<g id="node3" class="node"><title>Beta1D</title>
<g id="a_node3"><a xlink:href="../api/astropy.modeling.functional_models.Beta1D.html#astropy.modeling.functional_models.Beta1D" xlink:title="One dimensional Beta model.">
<polygon fill="none" stroke="black" stroke-width="0.5" points="426,-388.5 372,-388.5 372,-369.5 426,-369.5 426,-388.5"/>
<text text-anchor="middle" x="399" y="-376.5" font-family="Vera Sans, DejaVu Sans, Liberation Sans, Arial, Helvetica, sans" font-size="10.00">Beta1D</text>
</a>
</g>
</g>
<!-- Fittable1DModel -->
<g id="node4" class="node"><title>Fittable1DModel</title>
<g id="a_node4"><a xlink:href="../api/astropy.modeling.Fittable1DModel.html#astropy.modeling.Fittable1DModel" xlink:title="Base class for one&#45;dimensional fittable models.">
<polygon fill="none" stroke="black" stroke-width="0.5" points="299.5,-221.5 206.5,-221.5 206.5,-202.5 299.5,-202.5 299.5,-221.5"/>
<text text-anchor="middle" x="253" y="-209.5" font-family="Vera Sans, DejaVu Sans, Liberation Sans, Arial, Helvetica, sans" font-size="10.00">Fittable1DModel</text>
</a>
</g>
</g>
<!-- Fittable1DModel&#45;&gt;Beta1D -->
<g id="edge2" class="edge"><title>Fittable1DModel&#45;&gt;Beta1D</title>
<path fill="none" stroke="black" stroke-width="0.5" d="M256.561,-221.601C264.067,-247.87 288.533,-321.529 336,-360 344.719,-367.066 356.049,-371.511 366.634,-374.303"/>
<polygon fill="black" stroke="black" stroke-width="0.5" points="366.484,-376.068 371.756,-375.546 367.31,-372.666 366.484,-376.068"/>
</g>
<!-- Box1D -->
<g id="node6" class="node"><title>Box1D</title>
<g id="a_node6"><a xlink:href="../api/astropy.modeling.functional_models.Box1D.html#astropy.modeling.functional_models.Box1D" xlink:title="One dimensional Box model.">
<polygon fill="none" stroke="black" stroke-width="0.5" points="426,-351.5 372,-351.5 372,-332.5 426,-332.5 426,-351.5"/>
<text text-anchor="middle" x="399" y="-339.5" font-family="Vera Sans, DejaVu Sans, Liberation Sans, Arial, Helvetica, sans" font-size="10.00">Box1D</text>
</a>
</g>
</g>
<!-- Fittable1DModel&#45;&gt;Box1D -->
<g id="edge4" class="edge"><title>Fittable1DModel&#45;&gt;Box1D</title>
<path fill="none" stroke="black" stroke-width="0.5" d="M258.285,-221.316C268.56,-242.617 296.693,-295.178 336,-323 345.081,-329.428 356.391,-333.725 366.855,-336.577"/>
<polygon fill="black" stroke="black" stroke-width="0.5" points="366.633,-338.327 371.911,-337.865 367.497,-334.935 366.633,-338.327"/>
</g>
<!-- Const1D -->
<g id="node8" class="node"><title>Const1D</title>
<g id="a_node8"><a xlink:href="../api/astropy.modeling.functional_models.Const1D.html#astropy.modeling.functional_models.Const1D" xlink:title="One dimensional Constant model.">
<polygon fill="none" stroke="black" stroke-width="0.5" points="428,-314.5 370,-314.5 370,-295.5 428,-295.5 428,-314.5"/>
<text text-anchor="middle" x="399" y="-302.5" font-family="Vera Sans, DejaVu Sans, Liberation Sans, Arial, Helvetica, sans" font-size="10.00">Const1D</text>
</a>
</g>
</g>
<!-- Fittable1DModel&#45;&gt;Const1D -->
<g id="edge6" class="edge"><title>Fittable1DModel&#45;&gt;Const1D</title>
<path fill="none" stroke="black" stroke-width="0.5" d="M261.861,-221.375C275.43,-236.981 304.806,-268.314 336,-286 344.84,-291.012 355.155,-294.852 364.804,-297.723"/>
<polygon fill="black" stroke="black" stroke-width="0.5" points="364.491,-299.453 369.779,-299.137 365.448,-296.086 364.491,-299.453"/>
</g>
<!-- Gaussian1D -->
<g id="node13" class="node"><title>Gaussian1D</title>
<g id="a_node13"><a xlink:href="../api/astropy.modeling.functional_models.Gaussian1D.html#astropy.modeling.functional_models.Gaussian1D" xlink:title="One dimensional Gaussian model.">
<polygon fill="none" stroke="black" stroke-width="0.5" points="436,-277.5 362,-277.5 362,-258.5 436,-258.5 436,-277.5"/>
<text text-anchor="middle" x="399" y="-265.5" font-family="Vera Sans, DejaVu Sans, Liberation Sans, Arial, Helvetica, sans" font-size="10.00">Gaussian1D</text>
</a>
</g>
</g>
<!-- Fittable1DModel&#45;&gt;Gaussian1D -->
<g id="edge12" class="edge"><title>Fittable1DModel&#45;&gt;Gaussian1D</title>
<path fill="none" stroke="black" stroke-width="0.5" d="M272.931,-221.368C289.369,-229.301 313.933,-240.679 336,-249 343.677,-251.895 352.007,-254.681 359.996,-257.186"/>
<polygon fill="black" stroke="black" stroke-width="0.5" points="359.624,-258.903 364.918,-258.708 360.658,-255.559 359.624,-258.903"/>
</g>
<!-- GaussianAbsorption1D -->
<g id="node15" class="node"><title>GaussianAbsorption1D</title>
<g id="a_node15"><a xlink:href="../api/astropy.modeling.functional_models.GaussianAbsorption1D.html#astropy.modeling.functional_models.GaussianAbsorption1D" xlink:title="One dimensional Gaussian absorption line model.">
<polygon fill="none" stroke="black" stroke-width="0.5" points="462,-240.5 336,-240.5 336,-221.5 462,-221.5 462,-240.5"/>
<text text-anchor="middle" x="399" y="-228.5" font-family="Vera Sans, DejaVu Sans, Liberation Sans, Arial, Helvetica, sans" font-size="10.00">GaussianAbsorption1D</text>
</a>
</g>
</g>
<!-- Fittable1DModel&#45;&gt;GaussianAbsorption1D -->
<g id="edge14" class="edge"><title>Fittable1DModel&#45;&gt;GaussianAbsorption1D</title>
<path fill="none" stroke="black" stroke-width="0.5" d="M299.562,-218.012C309.476,-219.32 320.166,-220.73 330.72,-222.123"/>
<polygon fill="black" stroke="black" stroke-width="0.5" points="330.7,-223.885 335.886,-222.804 331.158,-220.415 330.7,-223.885"/>
</g>
<!-- Linear1D -->
<g id="node16" class="node"><title>Linear1D</title>
<g id="a_node16"><a xlink:href="../api/astropy.modeling.functional_models.Linear1D.html#astropy.modeling.functional_models.Linear1D" xlink:title="One dimensional Line model.">
<polygon fill="none" stroke="black" stroke-width="0.5" points="428.5,-203.5 369.5,-203.5 369.5,-184.5 428.5,-184.5 428.5,-203.5"/>
<text text-anchor="middle" x="399" y="-191.5" font-family="Vera Sans, DejaVu Sans, Liberation Sans, Arial, Helvetica, sans" font-size="10.00">Linear1D</text>
</a>
</g>
</g>
<!-- Fittable1DModel&#45;&gt;Linear1D -->
<g id="edge15" class="edge"><title>Fittable1DModel&#45;&gt;Linear1D</title>
<path fill="none" stroke="black" stroke-width="0.5" d="M299.562,-206.305C320.5,-203.687 344.902,-200.637 364.172,-198.228"/>
<polygon fill="black" stroke="black" stroke-width="0.5" points="364.72,-199.924 369.464,-197.567 364.286,-196.451 364.72,-199.924"/>
</g>
<!-- Lorentz1D -->
<g id="node17" class="node"><title>Lorentz1D</title>
<g id="a_node17"><a xlink:href="../api/astropy.modeling.functional_models.Lorentz1D.html#astropy.modeling.functional_models.Lorentz1D" xlink:title="One dimensional Lorentzian model.">
<polygon fill="none" stroke="black" stroke-width="0.5" points="432,-166.5 366,-166.5 366,-147.5 432,-147.5 432,-166.5"/>
<text text-anchor="middle" x="399" y="-154.5" font-family="Vera Sans, DejaVu Sans, Liberation Sans, Arial, Helvetica, sans" font-size="10.00">Lorentz1D</text>
</a>
</g>
</g>
<!-- Fittable1DModel&#45;&gt;Lorentz1D -->
<g id="edge16" class="edge"><title>Fittable1DModel&#45;&gt;Lorentz1D</title>
<path fill="none" stroke="black" stroke-width="0.5" d="M272.576,-202.708C288.994,-194.716 313.726,-183.212 336,-175 343.925,-172.078 352.557,-169.317 360.793,-166.875"/>
<polygon fill="black" stroke="black" stroke-width="0.5" points="361.55,-168.477 365.86,-165.397 360.57,-165.117 361.55,-168.477"/>
</g>
<!-- MexicanHat1D -->
<g id="node18" class="node"><title>MexicanHat1D</title>
<g id="a_node18"><a xlink:href="../api/astropy.modeling.functional_models.MexicanHat1D.html#astropy.modeling.functional_models.MexicanHat1D" xlink:title="One dimensional Mexican Hat model.">
<polygon fill="none" stroke="black" stroke-width="0.5" points="442,-129.5 356,-129.5 356,-110.5 442,-110.5 442,-129.5"/>
<text text-anchor="middle" x="399" y="-117.5" font-family="Vera Sans, DejaVu Sans, Liberation Sans, Arial, Helvetica, sans" font-size="10.00">MexicanHat1D</text>
</a>
</g>
</g>
<!-- Fittable1DModel&#45;&gt;MexicanHat1D -->
<g id="edge17" class="edge"><title>Fittable1DModel&#45;&gt;MexicanHat1D</title>
<path fill="none" stroke="black" stroke-width="0.5" d="M261.833,-202.574C275.36,-186.894 304.675,-155.454 336,-138 340.798,-135.327 346.03,-133.017 351.355,-131.031"/>
<polygon fill="black" stroke="black" stroke-width="0.5" points="352.131,-132.612 356.262,-129.295 350.964,-129.313 352.131,-132.612"/>
</g>
<!-- Redshift -->
<g id="node20" class="node"><title>Redshift</title>
<g id="a_node20"><a xlink:href="../api/astropy.modeling.functional_models.Redshift.html#astropy.modeling.functional_models.Redshift" xlink:title="One dimensional redshift model.">
<polygon fill="none" stroke="black" stroke-width="0.5" points="426,-92.5 372,-92.5 372,-73.5 426,-73.5 426,-92.5"/>
<text text-anchor="middle" x="399" y="-80.5" font-family="Vera Sans, DejaVu Sans, Liberation Sans, Arial, Helvetica, sans" font-size="10.00">Redshift</text>
</a>
</g>
</g>
<!-- Fittable1DModel&#45;&gt;Redshift -->
<g id="edge19" class="edge"><title>Fittable1DModel&#45;&gt;Redshift</title>
<path fill="none" stroke="black" stroke-width="0.5" d="M258.257,-202.643C268.472,-181.258 296.488,-128.531 336,-101 345.088,-94.6675 356.4,-90.5418 366.863,-87.8626"/>
<polygon fill="black" stroke="black" stroke-width="0.5" points="367.459,-89.5198 371.918,-86.6603 366.649,-86.1148 367.459,-89.5198"/>
</g>
<!-- Sine1D -->
<g id="node24" class="node"><title>Sine1D</title>
<g id="a_node24"><a xlink:href="../api/astropy.modeling.functional_models.Sine1D.html#astropy.modeling.functional_models.Sine1D" xlink:title="One dimensional Sine model.">
<polygon fill="none" stroke="black" stroke-width="0.5" points="426,-55.5 372,-55.5 372,-36.5 426,-36.5 426,-55.5"/>
<text text-anchor="middle" x="399" y="-43.5" font-family="Vera Sans, DejaVu Sans, Liberation Sans, Arial, Helvetica, sans" font-size="10.00">Sine1D</text>
</a>
</g>
</g>
<!-- Fittable1DModel&#45;&gt;Sine1D -->
<g id="edge23" class="edge"><title>Fittable1DModel&#45;&gt;Sine1D</title>
<path fill="none" stroke="black" stroke-width="0.5" d="M256.425,-202.739C263.728,-176.709 288.02,-102.302 336,-64 344.732,-57.0292 356.065,-52.7578 366.649,-50.1406"/>
<polygon fill="black" stroke="black" stroke-width="0.5" points="367.278,-51.7927 371.77,-48.9841 366.507,-48.3786 367.278,-51.7927"/>
</g>
<!-- Trapezoid1D -->
<g id="node25" class="node"><title>Trapezoid1D</title>
<g id="a_node25"><a xlink:href="../api/astropy.modeling.functional_models.Trapezoid1D.html#astropy.modeling.functional_models.Trapezoid1D" xlink:title="One dimensional Trapezoid model.">
<polygon fill="none" stroke="black" stroke-width="0.5" points="436.5,-18.5 361.5,-18.5 361.5,0.5 436.5,0.5 436.5,-18.5"/>
<text text-anchor="middle" x="399" y="-6.5" font-family="Vera Sans, DejaVu Sans, Liberation Sans, Arial, Helvetica, sans" font-size="10.00">Trapezoid1D</text>
</a>
</g>
</g>
<!-- Fittable1DModel&#45;&gt;Trapezoid1D -->
<g id="edge24" class="edge"><title>Fittable1DModel&#45;&gt;Trapezoid1D</title>
<path fill="none" stroke="black" stroke-width="0.5" d="M255.325,-202.689C260.121,-172.507 279.382,-76.4643 336,-27 341.761,-21.967 348.857,-18.3383 356.166,-15.7228"/>
<polygon fill="black" stroke="black" stroke-width="0.5" points="357.034,-17.2807 361.247,-14.0691 355.951,-13.9525 357.034,-17.2807"/>
</g>
<!-- FittableModel -->
<g id="node11" class="node"><title>FittableModel</title>
<g id="a_node11"><a xlink:href="../api/astropy.modeling.FittableModel.html#astropy.modeling.FittableModel" xlink:title="Base class for models that can be fitted using the built&#45;in fitting">
<polygon fill="none" stroke="black" stroke-width="0.5" points="170,-388.5 90,-388.5 90,-369.5 170,-369.5 170,-388.5"/>
<text text-anchor="middle" x="130" y="-376.5" font-family="Vera Sans, DejaVu Sans, Liberation Sans, Arial, Helvetica, sans" font-size="10.00">FittableModel</text>
</a>
</g>
</g>
<!-- FittableModel&#45;&gt;Fittable2DModel -->
<g id="edge10" class="edge"><title>FittableModel&#45;&gt;Fittable2DModel</title>
<path fill="none" stroke="black" stroke-width="0.5" d="M137.852,-388.401C158.234,-416.363 218.533,-499.087 242.256,-531.632"/>
<polygon fill="black" stroke="black" stroke-width="0.5" points="240.864,-532.693 245.223,-535.703 243.692,-530.631 240.864,-532.693"/>
</g>
<!-- FittableModel&#45;&gt;Fittable1DModel -->
<g id="edge9" class="edge"><title>FittableModel&#45;&gt;Fittable1DModel</title>
<path fill="none" stroke="black" stroke-width="0.5" d="M155.977,-369.661C160.992,-367.042 165.957,-363.836 170,-360 211.527,-320.602 237.347,-255.426 247.31,-226.547"/>
<polygon fill="black" stroke="black" stroke-width="0.5" points="249.042,-226.888 248.986,-221.591 245.726,-225.767 249.042,-226.888"/>
</g>
<!-- Model -->
<g id="node12" class="node"><title>Model</title>
<g id="a_node12"><a xlink:href="../api/astropy.modeling.Model.html#astropy.modeling.Model" xlink:title="Base class for all models.">
<polygon fill="none" stroke="black" stroke-width="0.5" points="54,-351.5 0,-351.5 0,-332.5 54,-332.5 54,-351.5"/>
<text text-anchor="middle" x="27" y="-339.5" font-family="Vera Sans, DejaVu Sans, Liberation Sans, Arial, Helvetica, sans" font-size="10.00">Model</text>
</a>
</g>
</g>
<!-- Model&#45;&gt;FittableModel -->
<g id="edge11" class="edge"><title>Model&#45;&gt;FittableModel</title>
<path fill="none" stroke="black" stroke-width="0.5" d="M53.4866,-351.337C67.2424,-356.376 84.3109,-362.629 98.7386,-367.914"/>
<polygon fill="black" stroke="black" stroke-width="0.5" points="98.2247,-369.59 103.522,-369.666 99.4287,-366.303 98.2247,-369.59"/>
</g>
<!-- Scale -->
<g id="node22" class="node"><title>Scale</title>
<g id="a_node22"><a xlink:href="../api/astropy.modeling.functional_models.Scale.html#astropy.modeling.functional_models.Scale" xlink:title="Multiply a model by a factor.">
<polygon fill="none" stroke="black" stroke-width="0.5" points="157,-351.5 103,-351.5 103,-332.5 157,-332.5 157,-351.5"/>
<text text-anchor="middle" x="130" y="-339.5" font-family="Vera Sans, DejaVu Sans, Liberation Sans, Arial, Helvetica, sans" font-size="10.00">Scale</text>
</a>
</g>
</g>
<!-- Model&#45;&gt;Scale -->
<g id="edge21" class="edge"><title>Model&#45;&gt;Scale</title>
<path fill="none" stroke="black" stroke-width="0.5" d="M54.01,-342C67.3362,-342 83.6646,-342 97.6786,-342"/>
<polygon fill="black" stroke="black" stroke-width="0.5" points="97.7271,-343.75 102.727,-342 97.7271,-340.25 97.7271,-343.75"/>
</g>
<!-- Shift -->
<g id="node23" class="node"><title>Shift</title>
<g id="a_node23"><a xlink:href="../api/astropy.modeling.functional_models.Shift.html#astropy.modeling.functional_models.Shift" xlink:title="Shift a coordinate.">
<polygon fill="none" stroke="black" stroke-width="0.5" points="157,-314.5 103,-314.5 103,-295.5 157,-295.5 157,-314.5"/>
<text text-anchor="middle" x="130" y="-302.5" font-family="Vera Sans, DejaVu Sans, Liberation Sans, Arial, Helvetica, sans" font-size="10.00">Shift</text>
</a>
</g>
</g>
<!-- Model&#45;&gt;Shift -->
<g id="edge22" class="edge"><title>Model&#45;&gt;Shift</title>
<path fill="none" stroke="black" stroke-width="0.5" d="M53.4866,-332.663C67.2424,-327.624 84.3109,-321.371 98.7386,-316.086"/>
<polygon fill="black" stroke="black" stroke-width="0.5" points="99.4287,-317.697 103.522,-314.334 98.2247,-314.41 99.4287,-317.697"/>
</g>
</g>
</svg>
