<?xml version="1.0" encoding="UTF-8" standalone="no"?>
<!DOCTYPE svg PUBLIC "-//W3C//DTD SVG 1.1//EN"
 "http://www.w3.org/Graphics/SVG/1.1/DTD/svg11.dtd">
<!-- Generated by graphviz version 2.36.0 (20140111.2315)
 -->
<!-- Title: inheritancee60c3de4ec Pages: 1 -->
<svg width="178pt" height="63pt"
 viewBox="0.00 0.00 178.00 63.00" xmlns="http://www.w3.org/2000/svg" xmlns:xlink="http://www.w3.org/1999/xlink">
<g id="graph0" class="graph" transform="scale(1 1) rotate(0) translate(4 59)">
<title>inheritancee60c3de4ec</title>
<polygon fill="white" stroke="none" points="-4,4 -4,-59 174,-59 174,4 -4,4"/>
<!-- Optimization -->
<g id="node1" class="node"><title>Optimization</title>
<g id="a_node1"><a xlink:href="../api/astropy.modeling.optimizers.Optimization.html#astropy.modeling.optimizers.Optimization" xlink:title="Base class for optimizers.">
<polygon fill="none" stroke="black" stroke-width="0.5" points="77.5,-36.5 0.5,-36.5 0.5,-17.5 77.5,-17.5 77.5,-36.5"/>
<text text-anchor="middle" x="39" y="-24.5" font-family="Vera Sans, DejaVu Sans, Liberation Sans, Arial, Helvetica, sans" font-size="10.00">Optimization</text>
</a>
</g>
</g>
<!-- SLSQP -->
<g id="node2" class="node"><title>SLSQP</title>
<g id="a_node2"><a xlink:href="../api/astropy.modeling.optimizers.SLSQP.html#astropy.modeling.optimizers.SLSQP" xlink:title="Sequential Least Squares Programming optimization algorithm.">
<polygon fill="none" stroke="black" stroke-width="0.5" points="169,-55.5 115,-55.5 115,-36.5 169,-36.5 169,-55.5"/>
<text text-anchor="middle" x="142" y="-43.5" font-family="Vera Sans, DejaVu Sans, Liberation Sans, Arial, Helvetica, sans" font-size="10.00">SLSQP</text>
</a>
</g>
</g>
<!-- Optimization&#45;&gt;SLSQP -->
<g id="edge1" class="edge"><title>Optimization&#45;&gt;SLSQP</title>
<path fill="none" stroke="black" stroke-width="0.5" d="M77.6087,-34.0749C88.1159,-36.0515 99.4211,-38.1782 109.534,-40.0806"/>
<polygon fill="black" stroke="black" stroke-width="0.5" points="109.465,-41.8483 114.702,-41.0529 110.112,-38.4086 109.465,-41.8483"/>
</g>
<!-- Simplex -->
<g id="node3" class="node"><title>Simplex</title>
<g id="a_node3"><a xlink:href="../api/astropy.modeling.optimizers.Simplex.html#astropy.modeling.optimizers.Simplex" xlink:title="Neald&#45;Mead (downhill simplex) algorithm [1].">
<polygon fill="none" stroke="black" stroke-width="0.5" points="169.5,-18.5 114.5,-18.5 114.5,0.5 169.5,0.5 169.5,-18.5"/>
<text text-anchor="middle" x="142" y="-6.5" font-family="Vera Sans, DejaVu Sans, Liberation Sans, Arial, Helvetica, sans" font-size="10.00">Simplex</text>
</a>
</g>
</g>
<!-- Optimization&#45;&gt;Simplex -->
<g id="edge2" class="edge"><title>Optimization&#45;&gt;Simplex</title>
<path fill="none" stroke="black" stroke-width="0.5" d="M77.6087,-20.2975C88.0204,-18.4419 99.2156,-16.4467 109.257,-14.6571"/>
<polygon fill="black" stroke="black" stroke-width="0.5" points="109.778,-16.342 114.393,-13.7418 109.164,-12.8963 109.778,-16.342"/>
</g>
</g>
</svg>
