<?xml version="1.0" encoding="UTF-8" standalone="no"?>
<!DOCTYPE svg PUBLIC "-//W3C//DTD SVG 1.1//EN"
 "http://www.w3.org/Graphics/SVG/1.1/DTD/svg11.dtd">
<!-- Generated by graphviz version 2.36.0 (20140111.2315)
 -->
<!-- Title: inheritancea33f138e09 Pages: 1 -->
<svg width="472pt" height="864pt"
 viewBox="0.00 0.00 472.18 864.00" xmlns="http://www.w3.org/2000/svg" xmlns:xlink="http://www.w3.org/1999/xlink">
<g id="graph0" class="graph" transform="scale(0.82838 0.82838) rotate(0) translate(4 1039)">
<title>inheritancea33f138e09</title>
<polygon fill="white" stroke="none" points="-4,4 -4,-1039 566,-1039 566,4 -4,4"/>
<!-- AltAz -->
<g id="node1" class="node"><title>AltAz</title>
<g id="a_node1"><a xlink:href="../api/astropy.coordinates.AltAz.html#astropy.coordinates.AltAz" xlink:title="A coordinate or frame in the Altitude&#45;Azimuth system (i.e., Horizontal">
<polygon fill="none" stroke="black" stroke-width="0.5" points="277,-240.5 223,-240.5 223,-221.5 277,-221.5 277,-240.5"/>
<text text-anchor="middle" x="250" y="-228.5" font-family="Vera Sans, DejaVu Sans, Liberation Sans, Arial, Helvetica, sans" font-size="10.00">AltAz</text>
</a>
</g>
</g>
<!-- BaseCoordinateFrame -->
<g id="node2" class="node"><title>BaseCoordinateFrame</title>
<g id="a_node2"><a xlink:href="../api/astropy.coordinates.BaseCoordinateFrame.html#astropy.coordinates.BaseCoordinateFrame" xlink:title="The base class for coordinate frames.">
<polygon fill="none" stroke="black" stroke-width="0.5" points="126.5,-129.5 3.5,-129.5 3.5,-110.5 126.5,-110.5 126.5,-129.5"/>
<text text-anchor="middle" x="65" y="-117.5" font-family="Vera Sans, DejaVu Sans, Liberation Sans, Arial, Helvetica, sans" font-size="10.00">BaseCoordinateFrame</text>
</a>
</g>
</g>
<!-- BaseCoordinateFrame&#45;&gt;AltAz -->
<g id="edge1" class="edge"><title>BaseCoordinateFrame&#45;&gt;AltAz</title>
<path fill="none" stroke="black" stroke-width="0.5" d="M73.3933,-129.532C88.5778,-148.411 125.29,-190.578 166,-212 181.867,-220.349 201.33,-225.052 217.42,-227.689"/>
<polygon fill="black" stroke="black" stroke-width="0.5" points="217.529,-229.477 222.737,-228.507 218.061,-226.017 217.529,-229.477"/>
</g>
<!-- FK4 -->
<g id="node18" class="node"><title>FK4</title>
<g id="a_node18"><a xlink:href="../api/astropy.coordinates.FK4.html#astropy.coordinates.FK4" xlink:title="A coordinate or frame in the FK4 system.">
<polygon fill="none" stroke="black" stroke-width="0.5" points="277,-203.5 223,-203.5 223,-184.5 277,-184.5 277,-203.5"/>
<text text-anchor="middle" x="250" y="-191.5" font-family="Vera Sans, DejaVu Sans, Liberation Sans, Arial, Helvetica, sans" font-size="10.00">FK4</text>
</a>
</g>
</g>
<!-- BaseCoordinateFrame&#45;&gt;FK4 -->
<g id="edge12" class="edge"><title>BaseCoordinateFrame&#45;&gt;FK4</title>
<path fill="none" stroke="black" stroke-width="0.5" d="M79.9667,-129.327C98.765,-141.488 133.597,-162.657 166,-175 182.507,-181.288 201.687,-185.845 217.449,-188.918"/>
<polygon fill="black" stroke="black" stroke-width="0.5" points="217.416,-190.692 222.655,-189.903 218.067,-187.254 217.416,-190.692"/>
</g>
<!-- FK4NoETerms -->
<g id="node19" class="node"><title>FK4NoETerms</title>
<g id="a_node19"><a xlink:href="../api/astropy.coordinates.FK4NoETerms.html#astropy.coordinates.FK4NoETerms" xlink:title="A coordinate or frame in the FK4 system, but with the E&#45;terms of aberration">
<polygon fill="none" stroke="black" stroke-width="0.5" points="291,-166.5 209,-166.5 209,-147.5 291,-147.5 291,-166.5"/>
<text text-anchor="middle" x="250" y="-154.5" font-family="Vera Sans, DejaVu Sans, Liberation Sans, Arial, Helvetica, sans" font-size="10.00">FK4NoETerms</text>
</a>
</g>
</g>
<!-- BaseCoordinateFrame&#45;&gt;FK4NoETerms -->
<g id="edge13" class="edge"><title>BaseCoordinateFrame&#45;&gt;FK4NoETerms</title>
<path fill="none" stroke="black" stroke-width="0.5" d="M112.179,-129.337C140.188,-135 175.779,-142.196 203.639,-147.829"/>
<polygon fill="black" stroke="black" stroke-width="0.5" points="203.5,-149.586 208.748,-148.862 204.194,-146.155 203.5,-149.586"/>
</g>
<!-- FK5 -->
<g id="node20" class="node"><title>FK5</title>
<g id="a_node20"><a xlink:href="../api/astropy.coordinates.FK5.html#astropy.coordinates.FK5" xlink:title="A coordinate or frame in the FK5 system.">
<polygon fill="none" stroke="black" stroke-width="0.5" points="277,-129.5 223,-129.5 223,-110.5 277,-110.5 277,-129.5"/>
<text text-anchor="middle" x="250" y="-117.5" font-family="Vera Sans, DejaVu Sans, Liberation Sans, Arial, Helvetica, sans" font-size="10.00">FK5</text>
</a>
</g>
</g>
<!-- BaseCoordinateFrame&#45;&gt;FK5 -->
<g id="edge14" class="edge"><title>BaseCoordinateFrame&#45;&gt;FK5</title>
<path fill="none" stroke="black" stroke-width="0.5" d="M126.682,-120C157.182,-120 192.854,-120 217.778,-120"/>
<polygon fill="black" stroke="black" stroke-width="0.5" points="217.927,-121.75 222.927,-120 217.927,-118.25 217.927,-121.75"/>
</g>
<!-- Galactic -->
<g id="node23" class="node"><title>Galactic</title>
<g id="a_node23"><a xlink:href="../api/astropy.coordinates.Galactic.html#astropy.coordinates.Galactic" xlink:title="Galactic Coordinates.">
<polygon fill="none" stroke="black" stroke-width="0.5" points="277.5,-92.5 222.5,-92.5 222.5,-73.5 277.5,-73.5 277.5,-92.5"/>
<text text-anchor="middle" x="250" y="-80.5" font-family="Vera Sans, DejaVu Sans, Liberation Sans, Arial, Helvetica, sans" font-size="10.00">Galactic</text>
</a>
</g>
</g>
<!-- BaseCoordinateFrame&#45;&gt;Galactic -->
<g id="edge16" class="edge"><title>BaseCoordinateFrame&#45;&gt;Galactic</title>
<path fill="none" stroke="black" stroke-width="0.5" d="M112.179,-110.663C144.973,-104.033 188.159,-95.3012 217.164,-89.4369"/>
<polygon fill="black" stroke="black" stroke-width="0.5" points="217.855,-91.0827 222.409,-88.3764 217.161,-87.6521 217.855,-91.0827"/>
</g>
<!-- GenericFrame -->
<g id="node24" class="node"><title>GenericFrame</title>
<g id="a_node24"><a xlink:href="../api/astropy.coordinates.GenericFrame.html#astropy.coordinates.GenericFrame" xlink:title="A frame object that can&#39;t store data but can hold any arbitrary frame">
<polygon fill="none" stroke="black" stroke-width="0.5" points="291.5,-55.5 208.5,-55.5 208.5,-36.5 291.5,-36.5 291.5,-55.5"/>
<text text-anchor="middle" x="250" y="-43.5" font-family="Vera Sans, DejaVu Sans, Liberation Sans, Arial, Helvetica, sans" font-size="10.00">GenericFrame</text>
</a>
</g>
</g>
<!-- BaseCoordinateFrame&#45;&gt;GenericFrame -->
<g id="edge17" class="edge"><title>BaseCoordinateFrame&#45;&gt;GenericFrame</title>
<path fill="none" stroke="black" stroke-width="0.5" d="M79.5985,-110.645C98.2653,-98.2207 133.25,-76.4031 166,-64 177.703,-59.5677 190.77,-56.0959 203.009,-53.4348"/>
<polygon fill="black" stroke="black" stroke-width="0.5" points="203.665,-55.0853 208.197,-52.3435 202.944,-51.6602 203.665,-55.0853"/>
</g>
<!-- ICRS -->
<g id="node25" class="node"><title>ICRS</title>
<g id="a_node25"><a xlink:href="../api/astropy.coordinates.ICRS.html#astropy.coordinates.ICRS" xlink:title="A coordinate or frame in the ICRS system.">
<polygon fill="none" stroke="black" stroke-width="0.5" points="277,-18.5 223,-18.5 223,0.5 277,0.5 277,-18.5"/>
<text text-anchor="middle" x="250" y="-6.5" font-family="Vera Sans, DejaVu Sans, Liberation Sans, Arial, Helvetica, sans" font-size="10.00">ICRS</text>
</a>
</g>
</g>
<!-- BaseCoordinateFrame&#45;&gt;ICRS -->
<g id="edge18" class="edge"><title>BaseCoordinateFrame&#45;&gt;ICRS</title>
<path fill="none" stroke="black" stroke-width="0.5" d="M73.1169,-110.614C88.0747,-91.5996 124.811,-48.514 166,-27 181.852,-18.7202 201.314,-14.2456 217.407,-11.8291"/>
<polygon fill="black" stroke="black" stroke-width="0.5" points="218.016,-13.5111 222.726,-11.086 217.532,-10.0448 218.016,-13.5111"/>
</g>
<!-- Angle -->
<g id="node3" class="node"><title>Angle</title>
<g id="a_node3"><a xlink:href="../api/astropy.coordinates.Angle.html#astropy.coordinates.Angle" xlink:title="One or more angular value(s) with units equivalent to radians or degrees.">
<polygon fill="none" stroke="black" stroke-width="0.5" points="443,-350.5 389,-350.5 389,-331.5 443,-331.5 443,-350.5"/>
<text text-anchor="middle" x="416" y="-338.5" font-family="Vera Sans, DejaVu Sans, Liberation Sans, Arial, Helvetica, sans" font-size="10.00">Angle</text>
</a>
</g>
</g>
<!-- Latitude -->
<g id="node32" class="node"><title>Latitude</title>
<g id="a_node32"><a xlink:href="../api/astropy.coordinates.Latitude.html#astropy.coordinates.Latitude" xlink:title="Latitude&#45;like angle(s) which must be in the range &#45;90 to +90 deg.">
<polygon fill="none" stroke="black" stroke-width="0.5" points="558,-368.5 502,-368.5 502,-349.5 558,-349.5 558,-368.5"/>
<text text-anchor="middle" x="530" y="-356.5" font-family="Vera Sans, DejaVu Sans, Liberation Sans, Arial, Helvetica, sans" font-size="10.00">Latitude</text>
</a>
</g>
</g>
<!-- Angle&#45;&gt;Latitude -->
<g id="edge25" class="edge"><title>Angle&#45;&gt;Latitude</title>
<path fill="none" stroke="black" stroke-width="0.5" d="M443.259,-345.22C459.197,-347.782 479.662,-351.071 496.601,-353.793"/>
<polygon fill="black" stroke="black" stroke-width="0.5" points="496.522,-355.553 501.736,-354.618 497.077,-352.097 496.522,-355.553"/>
</g>
<!-- Longitude -->
<g id="node33" class="node"><title>Longitude</title>
<g id="a_node33"><a xlink:href="../api/astropy.coordinates.Longitude.html#astropy.coordinates.Longitude" xlink:title="Longitude&#45;like angle(s) which are wrapped within a contiguous 360 degree range.">
<polygon fill="none" stroke="black" stroke-width="0.5" points="562,-331.5 498,-331.5 498,-312.5 562,-312.5 562,-331.5"/>
<text text-anchor="middle" x="530" y="-319.5" font-family="Vera Sans, DejaVu Sans, Liberation Sans, Arial, Helvetica, sans" font-size="10.00">Longitude</text>
</a>
</g>
</g>
<!-- Angle&#45;&gt;Longitude -->
<g id="edge26" class="edge"><title>Angle&#45;&gt;Longitude</title>
<path fill="none" stroke="black" stroke-width="0.5" d="M443.259,-336.545C457.898,-334.062 476.356,-330.931 492.393,-328.21"/>
<polygon fill="black" stroke="black" stroke-width="0.5" points="493.093,-329.866 497.73,-327.305 492.507,-326.416 493.093,-329.866"/>
</g>
<!-- Quantity -->
<g id="node4" class="node"><title>Quantity</title>
<g id="a_node4"><a xlink:href="../api/astropy.units.quantity.Quantity.html#astropy.units.quantity.Quantity" xlink:title="A `Quantity` represents a number with some associated unit.">
<polygon fill="none" stroke="black" stroke-width="0.5" points="278.5,-277.5 221.5,-277.5 221.5,-258.5 278.5,-258.5 278.5,-277.5"/>
<text text-anchor="middle" x="250" y="-265.5" font-family="Vera Sans, DejaVu Sans, Liberation Sans, Arial, Helvetica, sans" font-size="10.00">Quantity</text>
</a>
</g>
</g>
<!-- Quantity&#45;&gt;Angle -->
<g id="edge2" class="edge"><title>Quantity&#45;&gt;Angle</title>
<path fill="none" stroke="black" stroke-width="0.5" d="M278.53,-270.017C295.382,-272.184 316.915,-276.678 334,-286 353.863,-296.838 351.229,-309.365 370,-322 374.327,-324.912 379.171,-327.522 384.036,-329.806"/>
<polygon fill="black" stroke="black" stroke-width="0.5" points="383.61,-331.533 388.888,-331.981 385.041,-328.339 383.61,-331.533"/>
</g>
<!-- CartesianPoints -->
<g id="node9" class="node"><title>CartesianPoints</title>
<g id="a_node9"><a xlink:href="../api/astropy.coordinates.CartesianPoints.html#astropy.coordinates.CartesianPoints" xlink:title="A cartesian representation of a point in three&#45;dimensional space.">
<polygon fill="none" stroke="black" stroke-width="0.5" points="462,-295.5 370,-295.5 370,-276.5 462,-276.5 462,-295.5"/>
<text text-anchor="middle" x="416" y="-283.5" font-family="Vera Sans, DejaVu Sans, Liberation Sans, Arial, Helvetica, sans" font-size="10.00">CartesianPoints</text>
</a>
</g>
</g>
<!-- Quantity&#45;&gt;CartesianPoints -->
<g id="edge5" class="edge"><title>Quantity&#45;&gt;CartesianPoints</title>
<path fill="none" stroke="black" stroke-width="0.5" d="M278.82,-271.053C302.307,-273.631 336.527,-277.387 364.788,-280.489"/>
<polygon fill="black" stroke="black" stroke-width="0.5" points="364.83,-282.254 369.991,-281.06 365.212,-278.775 364.83,-282.254"/>
</g>
<!-- Distance -->
<g id="node15" class="node"><title>Distance</title>
<g id="a_node15"><a xlink:href="../api/astropy.coordinates.Distance.html#astropy.coordinates.Distance" xlink:title="A one&#45;dimensional distance.">
<polygon fill="none" stroke="black" stroke-width="0.5" points="445.5,-258.5 386.5,-258.5 386.5,-239.5 445.5,-239.5 445.5,-258.5"/>
<text text-anchor="middle" x="416" y="-246.5" font-family="Vera Sans, DejaVu Sans, Liberation Sans, Arial, Helvetica, sans" font-size="10.00">Distance</text>
</a>
</g>
</g>
<!-- Quantity&#45;&gt;Distance -->
<g id="edge9" class="edge"><title>Quantity&#45;&gt;Distance</title>
<path fill="none" stroke="black" stroke-width="0.5" d="M278.82,-264.777C307.156,-261.494 351.115,-256.401 381.382,-252.895"/>
<polygon fill="black" stroke="black" stroke-width="0.5" points="381.727,-254.617 386.492,-252.303 381.324,-251.14 381.727,-254.617"/>
</g>
<!-- EarthLocation -->
<g id="node17" class="node"><title>EarthLocation</title>
<g id="a_node17"><a xlink:href="../api/astropy.coordinates.EarthLocation.html#astropy.coordinates.EarthLocation" xlink:title="Location on Earth.">
<polygon fill="none" stroke="black" stroke-width="0.5" points="457.5,-221.5 374.5,-221.5 374.5,-202.5 457.5,-202.5 457.5,-221.5"/>
<text text-anchor="middle" x="416" y="-209.5" font-family="Vera Sans, DejaVu Sans, Liberation Sans, Arial, Helvetica, sans" font-size="10.00">EarthLocation</text>
</a>
</g>
</g>
<!-- Quantity&#45;&gt;EarthLocation -->
<g id="edge11" class="edge"><title>Quantity&#45;&gt;EarthLocation</title>
<path fill="none" stroke="black" stroke-width="0.5" d="M278.814,-263.51C295.186,-260.407 316.122,-255.634 334,-249 350.962,-242.706 353.578,-237.592 370,-230 375.029,-227.675 380.448,-225.355 385.723,-223.192"/>
<polygon fill="black" stroke="black" stroke-width="0.5" points="386.535,-224.751 390.513,-221.253 385.221,-221.507 386.535,-224.751"/>
</g>
<!-- AstropyWarning -->
<g id="node5" class="node"><title>AstropyWarning</title>
<g id="a_node5"><a xlink:href="../api/astropy.utils.exceptions.AstropyWarning.html#astropy.utils.exceptions.AstropyWarning" xlink:title="The base warning class from which all Astropy warnings should inherit.">
<polygon fill="none" stroke="black" stroke-width="0.5" points="110.5,-351.5 19.5,-351.5 19.5,-332.5 110.5,-332.5 110.5,-351.5"/>
<text text-anchor="middle" x="65" y="-339.5" font-family="Vera Sans, DejaVu Sans, Liberation Sans, Arial, Helvetica, sans" font-size="10.00">AstropyWarning</text>
</a>
</g>
</g>
<!-- IllegalHourWarning -->
<g id="node27" class="node"><title>IllegalHourWarning</title>
<g id="a_node27"><a xlink:href="../api/astropy.coordinates.IllegalHourWarning.html#astropy.coordinates.IllegalHourWarning" xlink:title="Raised when an hour value is 24.">
<polygon fill="none" stroke="black" stroke-width="0.5" points="302,-388.5 198,-388.5 198,-369.5 302,-369.5 302,-388.5"/>
<text text-anchor="middle" x="250" y="-376.5" font-family="Vera Sans, DejaVu Sans, Liberation Sans, Arial, Helvetica, sans" font-size="10.00">IllegalHourWarning</text>
</a>
</g>
</g>
<!-- AstropyWarning&#45;&gt;IllegalHourWarning -->
<g id="edge20" class="edge"><title>AstropyWarning&#45;&gt;IllegalHourWarning</title>
<path fill="none" stroke="black" stroke-width="0.5" d="M110.767,-351.051C137.165,-356.388 170.656,-363.16 198.061,-368.701"/>
<polygon fill="black" stroke="black" stroke-width="0.5" points="197.857,-370.445 203.105,-369.721 198.551,-367.014 197.857,-370.445"/>
</g>
<!-- IllegalMinuteWarning -->
<g id="node29" class="node"><title>IllegalMinuteWarning</title>
<g id="a_node29"><a xlink:href="../api/astropy.coordinates.IllegalMinuteWarning.html#astropy.coordinates.IllegalMinuteWarning" xlink:title="Raised when a minute value is 60.">
<polygon fill="none" stroke="black" stroke-width="0.5" points="306.5,-351.5 193.5,-351.5 193.5,-332.5 306.5,-332.5 306.5,-351.5"/>
<text text-anchor="middle" x="250" y="-339.5" font-family="Vera Sans, DejaVu Sans, Liberation Sans, Arial, Helvetica, sans" font-size="10.00">IllegalMinuteWarning</text>
</a>
</g>
</g>
<!-- AstropyWarning&#45;&gt;IllegalMinuteWarning -->
<g id="edge22" class="edge"><title>AstropyWarning&#45;&gt;IllegalMinuteWarning</title>
<path fill="none" stroke="black" stroke-width="0.5" d="M110.767,-342C134.079,-342 162.924,-342 188.223,-342"/>
<polygon fill="black" stroke="black" stroke-width="0.5" points="188.233,-343.75 193.233,-342 188.233,-340.25 188.233,-343.75"/>
</g>
<!-- IllegalSecondWarning -->
<g id="node31" class="node"><title>IllegalSecondWarning</title>
<g id="a_node31"><a xlink:href="../api/astropy.coordinates.IllegalSecondWarning.html#astropy.coordinates.IllegalSecondWarning" xlink:title="Raised when a second value is 60.">
<polygon fill="none" stroke="black" stroke-width="0.5" points="308.5,-314.5 191.5,-314.5 191.5,-295.5 308.5,-295.5 308.5,-314.5"/>
<text text-anchor="middle" x="250" y="-302.5" font-family="Vera Sans, DejaVu Sans, Liberation Sans, Arial, Helvetica, sans" font-size="10.00">IllegalSecondWarning</text>
</a>
</g>
</g>
<!-- AstropyWarning&#45;&gt;IllegalSecondWarning -->
<g id="edge24" class="edge"><title>AstropyWarning&#45;&gt;IllegalSecondWarning</title>
<path fill="none" stroke="black" stroke-width="0.5" d="M110.767,-332.949C137.165,-327.612 170.656,-320.84 198.061,-315.299"/>
<polygon fill="black" stroke="black" stroke-width="0.5" points="198.551,-316.986 203.105,-314.279 197.857,-313.555 198.551,-316.986"/>
</g>
<!-- BaseRepresentation -->
<g id="node6" class="node"><title>BaseRepresentation</title>
<g id="a_node6"><a xlink:href="../api/astropy.coordinates.BaseRepresentation.html#astropy.coordinates.BaseRepresentation" xlink:title="Base Representation object, for representing a point in a 3D coordinate">
<polygon fill="none" stroke="black" stroke-width="0.5" points="121.5,-499.5 8.5,-499.5 8.5,-480.5 121.5,-480.5 121.5,-499.5"/>
<text text-anchor="middle" x="65" y="-487.5" font-family="Vera Sans, DejaVu Sans, Liberation Sans, Arial, Helvetica, sans" font-size="10.00">BaseRepresentation</text>
</a>
</g>
</g>
<!-- CartesianRepresentation -->
<g id="node10" class="node"><title>CartesianRepresentation</title>
<g id="a_node10"><a xlink:href="../api/astropy.coordinates.CartesianRepresentation.html#astropy.coordinates.CartesianRepresentation" xlink:title="Representation of points in 3D cartesian coordinates.">
<polygon fill="none" stroke="black" stroke-width="0.5" points="317,-573.5 183,-573.5 183,-554.5 317,-554.5 317,-573.5"/>
<text text-anchor="middle" x="250" y="-561.5" font-family="Vera Sans, DejaVu Sans, Liberation Sans, Arial, Helvetica, sans" font-size="10.00">CartesianRepresentation</text>
</a>
</g>
</g>
<!-- BaseRepresentation&#45;&gt;CartesianRepresentation -->
<g id="edge6" class="edge"><title>BaseRepresentation&#45;&gt;CartesianRepresentation</title>
<path fill="none" stroke="black" stroke-width="0.5" d="M79.9667,-499.327C98.765,-511.488 133.597,-532.657 166,-545 174.625,-548.285 183.98,-551.098 193.196,-553.474"/>
<polygon fill="black" stroke="black" stroke-width="0.5" points="193.021,-555.234 198.297,-554.749 193.87,-551.839 193.021,-555.234"/>
</g>
<!-- CylindricalRepresentation -->
<g id="node14" class="node"><title>CylindricalRepresentation</title>
<g id="a_node14"><a xlink:href="../api/astropy.coordinates.CylindricalRepresentation.html#astropy.coordinates.CylindricalRepresentation" xlink:title="Representation of points in 3D cylindrical coordinates.">
<polygon fill="none" stroke="black" stroke-width="0.5" points="318.5,-536.5 181.5,-536.5 181.5,-517.5 318.5,-517.5 318.5,-536.5"/>
<text text-anchor="middle" x="250" y="-524.5" font-family="Vera Sans, DejaVu Sans, Liberation Sans, Arial, Helvetica, sans" font-size="10.00">CylindricalRepresentation</text>
</a>
</g>
</g>
<!-- BaseRepresentation&#45;&gt;CylindricalRepresentation -->
<g id="edge8" class="edge"><title>BaseRepresentation&#45;&gt;CylindricalRepresentation</title>
<path fill="none" stroke="black" stroke-width="0.5" d="M112.179,-499.337C138.394,-504.637 171.25,-511.28 198.194,-516.728"/>
<polygon fill="black" stroke="black" stroke-width="0.5" points="197.906,-518.455 203.153,-517.73 198.599,-515.024 197.906,-518.455"/>
</g>
<!-- PhysicsSphericalRepresentation -->
<g id="node34" class="node"><title>PhysicsSphericalRepresentation</title>
<g id="a_node34"><a xlink:href="../api/astropy.coordinates.PhysicsSphericalRepresentation.html#astropy.coordinates.PhysicsSphericalRepresentation" xlink:title="Representation of points in 3D spherical coordinates (using the physics">
<polygon fill="none" stroke="black" stroke-width="0.5" points="334,-499.5 166,-499.5 166,-480.5 334,-480.5 334,-499.5"/>
<text text-anchor="middle" x="250" y="-487.5" font-family="Vera Sans, DejaVu Sans, Liberation Sans, Arial, Helvetica, sans" font-size="10.00">PhysicsSphericalRepresentation</text>
</a>
</g>
</g>
<!-- BaseRepresentation&#45;&gt;PhysicsSphericalRepresentation -->
<g id="edge27" class="edge"><title>BaseRepresentation&#45;&gt;PhysicsSphericalRepresentation</title>
<path fill="none" stroke="black" stroke-width="0.5" d="M121.9,-490C134.149,-490 147.406,-490 160.578,-490"/>
<polygon fill="black" stroke="black" stroke-width="0.5" points="160.817,-491.75 165.817,-490 160.817,-488.25 160.817,-491.75"/>
</g>
<!-- SphericalRepresentation -->
<g id="node38" class="node"><title>SphericalRepresentation</title>
<g id="a_node38"><a xlink:href="../api/astropy.coordinates.SphericalRepresentation.html#astropy.coordinates.SphericalRepresentation" xlink:title="Representation of points in 3D spherical coordinates.">
<polygon fill="none" stroke="black" stroke-width="0.5" points="316.5,-462.5 183.5,-462.5 183.5,-443.5 316.5,-443.5 316.5,-462.5"/>
<text text-anchor="middle" x="250" y="-450.5" font-family="Vera Sans, DejaVu Sans, Liberation Sans, Arial, Helvetica, sans" font-size="10.00">SphericalRepresentation</text>
</a>
</g>
</g>
<!-- BaseRepresentation&#45;&gt;SphericalRepresentation -->
<g id="edge30" class="edge"><title>BaseRepresentation&#45;&gt;SphericalRepresentation</title>
<path fill="none" stroke="black" stroke-width="0.5" d="M112.179,-480.663C138.394,-475.363 171.25,-468.72 198.194,-463.272"/>
<polygon fill="black" stroke="black" stroke-width="0.5" points="198.599,-464.976 203.153,-462.27 197.906,-461.545 198.599,-464.976"/>
</g>
<!-- UnitSphericalRepresentation -->
<g id="node42" class="node"><title>UnitSphericalRepresentation</title>
<g id="a_node42"><a xlink:href="../api/astropy.coordinates.UnitSphericalRepresentation.html#astropy.coordinates.UnitSphericalRepresentation" xlink:title="Representation of points on a unit sphere.">
<polygon fill="none" stroke="black" stroke-width="0.5" points="326,-425.5 174,-425.5 174,-406.5 326,-406.5 326,-425.5"/>
<text text-anchor="middle" x="250" y="-413.5" font-family="Vera Sans, DejaVu Sans, Liberation Sans, Arial, Helvetica, sans" font-size="10.00">UnitSphericalRepresentation</text>
</a>
</g>
</g>
<!-- BaseRepresentation&#45;&gt;UnitSphericalRepresentation -->
<g id="edge33" class="edge"><title>BaseRepresentation&#45;&gt;UnitSphericalRepresentation</title>
<path fill="none" stroke="black" stroke-width="0.5" d="M79.5985,-480.645C98.2653,-468.221 133.25,-446.403 166,-434 173.537,-431.146 181.638,-428.69 189.72,-426.592"/>
<polygon fill="black" stroke="black" stroke-width="0.5" points="190.321,-428.246 194.745,-425.332 189.469,-424.851 190.321,-428.246"/>
</g>
<!-- BoundsError -->
<g id="node7" class="node"><title>BoundsError</title>
<g id="a_node7"><a xlink:href="../api/astropy.coordinates.BoundsError.html#astropy.coordinates.BoundsError" xlink:title="Raised when an angle is outside of its user&#45;specified bounds.">
<polygon fill="none" stroke="black" stroke-width="0.5" points="288,-721.5 212,-721.5 212,-702.5 288,-702.5 288,-721.5"/>
<text text-anchor="middle" x="250" y="-709.5" font-family="Vera Sans, DejaVu Sans, Liberation Sans, Arial, Helvetica, sans" font-size="10.00">BoundsError</text>
</a>
</g>
</g>
<!-- RangeError -->
<g id="node8" class="node"><title>RangeError</title>
<g id="a_node8"><a xlink:href="../api/astropy.coordinates.RangeError.html#astropy.coordinates.RangeError" xlink:title="Raised when some part of an angle is out of its valid range.">
<polygon fill="none" stroke="black" stroke-width="0.5" points="100,-665.5 30,-665.5 30,-646.5 100,-646.5 100,-665.5"/>
<text text-anchor="middle" x="65" y="-653.5" font-family="Vera Sans, DejaVu Sans, Liberation Sans, Arial, Helvetica, sans" font-size="10.00">RangeError</text>
</a>
</g>
</g>
<!-- RangeError&#45;&gt;BoundsError -->
<g id="edge3" class="edge"><title>RangeError&#45;&gt;BoundsError</title>
<path fill="none" stroke="black" stroke-width="0.5" d="M88.7516,-665.378C108.837,-673.425 139.035,-684.962 166,-693 179.132,-696.914 193.636,-700.485 206.797,-703.448"/>
<polygon fill="black" stroke="black" stroke-width="0.5" points="206.7,-705.219 211.96,-704.595 207.459,-701.802 206.7,-705.219"/>
</g>
<!-- IllegalHourError -->
<g id="node26" class="node"><title>IllegalHourError</title>
<g id="a_node26"><a xlink:href="../api/astropy.coordinates.IllegalHourError.html#astropy.coordinates.IllegalHourError" xlink:title="Raised when an hour value is not in the range [0,24).">
<polygon fill="none" stroke="black" stroke-width="0.5" points="295,-684.5 205,-684.5 205,-665.5 295,-665.5 295,-684.5"/>
<text text-anchor="middle" x="250" y="-672.5" font-family="Vera Sans, DejaVu Sans, Liberation Sans, Arial, Helvetica, sans" font-size="10.00">IllegalHourError</text>
</a>
</g>
</g>
<!-- RangeError&#45;&gt;IllegalHourError -->
<g id="edge19" class="edge"><title>RangeError&#45;&gt;IllegalHourError</title>
<path fill="none" stroke="black" stroke-width="0.5" d="M100.421,-659.574C128.315,-662.47 167.993,-666.589 199.33,-669.843"/>
<polygon fill="black" stroke="black" stroke-width="0.5" points="199.527,-671.623 204.681,-670.399 199.888,-668.141 199.527,-671.623"/>
</g>
<!-- IllegalMinuteError -->
<g id="node28" class="node"><title>IllegalMinuteError</title>
<g id="a_node28"><a xlink:href="../api/astropy.coordinates.IllegalMinuteError.html#astropy.coordinates.IllegalMinuteError" xlink:title="Raised when an minute value is not in the range [0,60].">
<polygon fill="none" stroke="black" stroke-width="0.5" points="299.5,-647.5 200.5,-647.5 200.5,-628.5 299.5,-628.5 299.5,-647.5"/>
<text text-anchor="middle" x="250" y="-635.5" font-family="Vera Sans, DejaVu Sans, Liberation Sans, Arial, Helvetica, sans" font-size="10.00">IllegalMinuteError</text>
</a>
</g>
</g>
<!-- RangeError&#45;&gt;IllegalMinuteError -->
<g id="edge21" class="edge"><title>RangeError&#45;&gt;IllegalMinuteError</title>
<path fill="none" stroke="black" stroke-width="0.5" d="M100.421,-652.614C127.043,-649.996 164.398,-646.322 194.991,-643.312"/>
<polygon fill="black" stroke="black" stroke-width="0.5" points="195.425,-645.028 200.23,-642.797 195.082,-641.545 195.425,-645.028"/>
</g>
<!-- IllegalSecondError -->
<g id="node30" class="node"><title>IllegalSecondError</title>
<g id="a_node30"><a xlink:href="../api/astropy.coordinates.IllegalSecondError.html#astropy.coordinates.IllegalSecondError" xlink:title="Raised when an second value (time) is not in the range [0,60].">
<polygon fill="none" stroke="black" stroke-width="0.5" points="301.5,-610.5 198.5,-610.5 198.5,-591.5 301.5,-591.5 301.5,-610.5"/>
<text text-anchor="middle" x="250" y="-598.5" font-family="Vera Sans, DejaVu Sans, Liberation Sans, Arial, Helvetica, sans" font-size="10.00">IllegalSecondError</text>
</a>
</g>
</g>
<!-- RangeError&#45;&gt;IllegalSecondError -->
<g id="edge23" class="edge"><title>RangeError&#45;&gt;IllegalSecondError</title>
<path fill="none" stroke="black" stroke-width="0.5" d="M88.3342,-646.705C108.403,-638.601 138.812,-626.935 166,-619 175.401,-616.256 185.512,-613.724 195.33,-611.479"/>
<polygon fill="black" stroke="black" stroke-width="0.5" points="195.939,-613.136 200.433,-610.332 195.171,-609.722 195.939,-613.136"/>
</g>
<!-- CartesianPoints&#45;&gt;CartesianPoints -->
<g id="edge4" class="edge"><title>CartesianPoints&#45;&gt;CartesianPoints</title>
<path fill="none" stroke="black" stroke-width="0.5" d="M398.429,-295.409C389.881,-303.902 395.738,-313 416,-313 432.779,-313 439.68,-306.761 436.702,-299.792"/>
<polygon fill="black" stroke="black" stroke-width="0.5" points="437.901,-298.46 433.571,-295.409 435.053,-300.495 437.901,-298.46"/>
</g>
<!-- CompositeTransform -->
<g id="node11" class="node"><title>CompositeTransform</title>
<g id="a_node11"><a xlink:href="../api/astropy.coordinates.CompositeTransform.html#astropy.coordinates.CompositeTransform" xlink:title="A transformation constructed by combining together a series of single&#45;step">
<polygon fill="none" stroke="black" stroke-width="0.5" points="308,-869.5 192,-869.5 192,-850.5 308,-850.5 308,-869.5"/>
<text text-anchor="middle" x="250" y="-857.5" font-family="Vera Sans, DejaVu Sans, Liberation Sans, Arial, Helvetica, sans" font-size="10.00">CompositeTransform</text>
</a>
</g>
</g>
<!-- CoordinateTransform -->
<g id="node12" class="node"><title>CoordinateTransform</title>
<g id="a_node12"><a xlink:href="../api/astropy.coordinates.CoordinateTransform.html#astropy.coordinates.CoordinateTransform" xlink:title="An object that transforms a coordinate from one system to another.">
<polygon fill="none" stroke="black" stroke-width="0.5" points="123,-804.5 7,-804.5 7,-785.5 123,-785.5 123,-804.5"/>
<text text-anchor="middle" x="65" y="-792.5" font-family="Vera Sans, DejaVu Sans, Liberation Sans, Arial, Helvetica, sans" font-size="10.00">CoordinateTransform</text>
</a>
</g>
</g>
<!-- CoordinateTransform&#45;&gt;CompositeTransform -->
<g id="edge7" class="edge"><title>CoordinateTransform&#45;&gt;CompositeTransform</title>
<path fill="none" stroke="black" stroke-width="0.5" d="M83.2536,-804.269C102.838,-814.471 135.97,-830.778 166,-841 175.501,-844.234 185.799,-847.089 195.805,-849.538"/>
<polygon fill="black" stroke="black" stroke-width="0.5" points="195.418,-851.245 200.689,-850.708 196.234,-847.841 195.418,-851.245"/>
</g>
<!-- DynamicMatrixTransform -->
<g id="node16" class="node"><title>DynamicMatrixTransform</title>
<g id="a_node16"><a xlink:href="../api/astropy.coordinates.DynamicMatrixTransform.html#astropy.coordinates.DynamicMatrixTransform" xlink:title="A coordinate transformation specified as a function that yields a">
<polygon fill="none" stroke="black" stroke-width="0.5" points="317.5,-832.5 182.5,-832.5 182.5,-813.5 317.5,-813.5 317.5,-832.5"/>
<text text-anchor="middle" x="250" y="-820.5" font-family="Vera Sans, DejaVu Sans, Liberation Sans, Arial, Helvetica, sans" font-size="10.00">DynamicMatrixTransform</text>
</a>
</g>
</g>
<!-- CoordinateTransform&#45;&gt;DynamicMatrixTransform -->
<g id="edge10" class="edge"><title>CoordinateTransform&#45;&gt;DynamicMatrixTransform</title>
<path fill="none" stroke="black" stroke-width="0.5" d="M123.15,-803.744C142.292,-806.673 163.781,-809.961 183.51,-812.98"/>
<polygon fill="black" stroke="black" stroke-width="0.5" points="183.278,-814.715 188.486,-813.741 183.808,-811.255 183.278,-814.715"/>
</g>
<!-- FunctionTransform -->
<g id="node22" class="node"><title>FunctionTransform</title>
<g id="a_node22"><a xlink:href="../api/astropy.coordinates.FunctionTransform.html#astropy.coordinates.FunctionTransform" xlink:title="A coordinate transformation defined by a function that accepts a">
<polygon fill="none" stroke="black" stroke-width="0.5" points="302,-795.5 198,-795.5 198,-776.5 302,-776.5 302,-795.5"/>
<text text-anchor="middle" x="250" y="-783.5" font-family="Vera Sans, DejaVu Sans, Liberation Sans, Arial, Helvetica, sans" font-size="10.00">FunctionTransform</text>
</a>
</g>
</g>
<!-- CoordinateTransform&#45;&gt;FunctionTransform -->
<g id="edge15" class="edge"><title>CoordinateTransform&#45;&gt;FunctionTransform</title>
<path fill="none" stroke="black" stroke-width="0.5" d="M123.15,-792.189C145.286,-791.101 170.56,-789.858 192.622,-788.773"/>
<polygon fill="black" stroke="black" stroke-width="0.5" points="192.955,-790.509 197.863,-788.515 192.783,-787.013 192.955,-790.509"/>
</g>
<!-- StaticMatrixTransform -->
<g id="node39" class="node"><title>StaticMatrixTransform</title>
<g id="a_node39"><a xlink:href="../api/astropy.coordinates.StaticMatrixTransform.html#astropy.coordinates.StaticMatrixTransform" xlink:title="A coordinate transformation defined as a 3 x 3 cartesian">
<polygon fill="none" stroke="black" stroke-width="0.5" points="310.5,-758.5 189.5,-758.5 189.5,-739.5 310.5,-739.5 310.5,-758.5"/>
<text text-anchor="middle" x="250" y="-746.5" font-family="Vera Sans, DejaVu Sans, Liberation Sans, Arial, Helvetica, sans" font-size="10.00">StaticMatrixTransform</text>
</a>
</g>
</g>
<!-- CoordinateTransform&#45;&gt;StaticMatrixTransform -->
<g id="edge31" class="edge"><title>CoordinateTransform&#45;&gt;StaticMatrixTransform</title>
<path fill="none" stroke="black" stroke-width="0.5" d="M97.3998,-785.691C117.038,-779.998 142.903,-772.733 166,-767 176.548,-764.382 187.903,-761.779 198.726,-759.4"/>
<polygon fill="black" stroke="black" stroke-width="0.5" points="199.145,-761.1 203.657,-758.323 198.398,-757.68 199.145,-761.1"/>
</g>
<!-- ConvertError -->
<g id="node13" class="node"><title>ConvertError</title>
<g id="a_node13"><a xlink:href="../api/astropy.coordinates.ConvertError.html#astropy.coordinates.ConvertError" xlink:title="Raised if a coordinate system cannot be converted to another">
<polygon fill="none" stroke="black" stroke-width="0.5" points="103.5,-859.5 26.5,-859.5 26.5,-840.5 103.5,-840.5 103.5,-859.5"/>
<text text-anchor="middle" x="65" y="-847.5" font-family="Vera Sans, DejaVu Sans, Liberation Sans, Arial, Helvetica, sans" font-size="10.00">ConvertError</text>
</a>
</g>
</g>
<!-- FrameAttribute -->
<g id="node21" class="node"><title>FrameAttribute</title>
<g id="a_node21"><a xlink:href="../api/astropy.coordinates.FrameAttribute.html#astropy.coordinates.FrameAttribute" xlink:title="A non&#45;mutable data descriptor to hold a frame attribute.">
<polygon fill="none" stroke="black" stroke-width="0.5" points="109.5,-906.5 20.5,-906.5 20.5,-887.5 109.5,-887.5 109.5,-906.5"/>
<text text-anchor="middle" x="65" y="-894.5" font-family="Vera Sans, DejaVu Sans, Liberation Sans, Arial, Helvetica, sans" font-size="10.00">FrameAttribute</text>
</a>
</g>
</g>
<!-- TimeFrameAttribute -->
<g id="node40" class="node"><title>TimeFrameAttribute</title>
<g id="a_node40"><a xlink:href="../api/astropy.coordinates.TimeFrameAttribute.html#astropy.coordinates.TimeFrameAttribute" xlink:title="Frame attribute descriptor for quantities that are Time objects.">
<polygon fill="none" stroke="black" stroke-width="0.5" points="306,-906.5 194,-906.5 194,-887.5 306,-887.5 306,-906.5"/>
<text text-anchor="middle" x="250" y="-894.5" font-family="Vera Sans, DejaVu Sans, Liberation Sans, Arial, Helvetica, sans" font-size="10.00">TimeFrameAttribute</text>
</a>
</g>
</g>
<!-- FrameAttribute&#45;&gt;TimeFrameAttribute -->
<g id="edge32" class="edge"><title>FrameAttribute&#45;&gt;TimeFrameAttribute</title>
<path fill="none" stroke="black" stroke-width="0.5" d="M109.833,-897C133.426,-897 162.886,-897 188.618,-897"/>
<polygon fill="black" stroke="black" stroke-width="0.5" points="188.712,-898.75 193.712,-897 188.712,-895.25 188.712,-898.75"/>
</g>
<!-- ndarray -->
<g id="node35" class="node"><title>ndarray</title>
<g id="a_node35"><a xlink:title="ndarray(shape, dtype=float, buffer=None, offset=0,">
<polygon fill="none" stroke="black" stroke-width="0.5" points="92,-277.5 38,-277.5 38,-258.5 92,-258.5 92,-277.5"/>
<text text-anchor="middle" x="65" y="-265.5" font-family="Vera Sans, DejaVu Sans, Liberation Sans, Arial, Helvetica, sans" font-size="10.00">ndarray</text>
</a>
</g>
</g>
<!-- ndarray&#45;&gt;Quantity -->
<g id="edge28" class="edge"><title>ndarray&#45;&gt;Quantity</title>
<path fill="none" stroke="black" stroke-width="0.5" d="M92.2194,-268C124.906,-268 180.784,-268 216.252,-268"/>
<polygon fill="black" stroke="black" stroke-width="0.5" points="216.332,-269.75 221.332,-268 216.332,-266.25 216.332,-269.75"/>
</g>
<!-- RepresentationMapping -->
<g id="node36" class="node"><title>RepresentationMapping</title>
<g id="a_node36"><a xlink:href="../api/astropy.coordinates.RepresentationMapping.html#astropy.coordinates.RepresentationMapping" xlink:title="This `~collections.namedtuple` is used with the">
<polygon fill="none" stroke="black" stroke-width="0.5" points="129.5,-943.5 0.5,-943.5 0.5,-924.5 129.5,-924.5 129.5,-943.5"/>
<text text-anchor="middle" x="65" y="-931.5" font-family="Vera Sans, DejaVu Sans, Liberation Sans, Arial, Helvetica, sans" font-size="10.00">RepresentationMapping</text>
</a>
</g>
</g>
<!-- RepresentationMapping&#45;&gt;RepresentationMapping -->
<g id="edge29" class="edge"><title>RepresentationMapping&#45;&gt;RepresentationMapping</title>
<path fill="none" stroke="black" stroke-width="0.5" d="M36.6403,-943.409C22.8436,-951.902 32.2969,-961 65,-961 93.6152,-961 104.43,-954.035 97.4436,-946.603"/>
<polygon fill="black" stroke="black" stroke-width="0.5" points="98.3763,-945.111 93.3597,-943.409 96.2198,-947.868 98.3763,-945.111"/>
</g>
<!-- SkyCoord -->
<g id="node37" class="node"><title>SkyCoord</title>
<g id="a_node37"><a xlink:href="../api/astropy.coordinates.SkyCoord.html#astropy.coordinates.SkyCoord" xlink:title="High&#45;level object providing a flexible interface for celestial coordinate">
<polygon fill="none" stroke="black" stroke-width="0.5" points="96,-998.5 34,-998.5 34,-979.5 96,-979.5 96,-998.5"/>
<text text-anchor="middle" x="65" y="-986.5" font-family="Vera Sans, DejaVu Sans, Liberation Sans, Arial, Helvetica, sans" font-size="10.00">SkyCoord</text>
</a>
</g>
</g>
<!-- TransformGraph -->
<g id="node41" class="node"><title>TransformGraph</title>
<g id="a_node41"><a xlink:href="../api/astropy.coordinates.TransformGraph.html#astropy.coordinates.TransformGraph" xlink:title="A graph representing the paths between coordinate frames.">
<polygon fill="none" stroke="black" stroke-width="0.5" points="111.5,-1035.5 18.5,-1035.5 18.5,-1016.5 111.5,-1016.5 111.5,-1035.5"/>
<text text-anchor="middle" x="65" y="-1023.5" font-family="Vera Sans, DejaVu Sans, Liberation Sans, Arial, Helvetica, sans" font-size="10.00">TransformGraph</text>
</a>
</g>
</g>
</g>
</svg>
