<?xml version="1.0" encoding="UTF-8" standalone="no"?>
<!DOCTYPE svg PUBLIC "-//W3C//DTD SVG 1.1//EN"
 "http://www.w3.org/Graphics/SVG/1.1/DTD/svg11.dtd">
<!-- Generated by graphviz version 2.36.0 (20140111.2315)
 -->
<!-- Title: inheritance8c2e51a893 Pages: 1 -->
<svg width="384pt" height="137pt"
 viewBox="0.00 0.00 384.00 137.00" xmlns="http://www.w3.org/2000/svg" xmlns:xlink="http://www.w3.org/1999/xlink">
<g id="graph0" class="graph" transform="scale(1 1) rotate(0) translate(4 133)">
<title>inheritance8c2e51a893</title>
<polygon fill="white" stroke="none" points="-4,4 -4,-133 380,-133 380,4 -4,4"/>
<!-- BaseVOError -->
<g id="node1" class="node"><title>BaseVOError</title>
<g id="a_node1"><a xlink:href="../../api/astropy.vo.client.exceptions.BaseVOError.html#astropy.vo.client.exceptions.BaseVOError" xlink:title="Base class for VO exceptions.">
<polygon fill="none" stroke="black" stroke-width="0.5" points="78,-91.5 0,-91.5 0,-72.5 78,-72.5 78,-91.5"/>
<text text-anchor="middle" x="39" y="-79.5" font-family="Vera Sans, DejaVu Sans, Liberation Sans, Arial, Helvetica, sans" font-size="10.00">BaseVOError</text>
</a>
</g>
</g>
<!-- ConeSearchError -->
<g id="node2" class="node"><title>ConeSearchError</title>
<g id="a_node2"><a xlink:href="../../api/astropy.vo.client.exceptions.ConeSearchError.html#astropy.vo.client.exceptions.ConeSearchError" xlink:title="General Cone Search exception.">
<polygon fill="none" stroke="black" stroke-width="0.5" points="212,-110.5 114,-110.5 114,-91.5 212,-91.5 212,-110.5"/>
<text text-anchor="middle" x="163" y="-98.5" font-family="Vera Sans, DejaVu Sans, Liberation Sans, Arial, Helvetica, sans" font-size="10.00">ConeSearchError</text>
</a>
</g>
</g>
<!-- BaseVOError&#45;&gt;ConeSearchError -->
<g id="edge1" class="edge"><title>BaseVOError&#45;&gt;ConeSearchError</title>
<path fill="none" stroke="black" stroke-width="0.5" d="M78.2668,-87.9596C87.9954,-89.4747 98.6243,-91.13 108.945,-92.7373"/>
<polygon fill="black" stroke="black" stroke-width="0.5" points="108.771,-94.4813 113.981,-93.5216 109.31,-91.0229 108.771,-94.4813"/>
</g>
<!-- VOSError -->
<g id="node4" class="node"><title>VOSError</title>
<g id="a_node4"><a xlink:href="../../api/astropy.vo.client.exceptions.VOSError.html#astropy.vo.client.exceptions.VOSError" xlink:title="General VO service exception.">
<polygon fill="none" stroke="black" stroke-width="0.5" points="193.5,-73.5 132.5,-73.5 132.5,-54.5 193.5,-54.5 193.5,-73.5"/>
<text text-anchor="middle" x="163" y="-61.5" font-family="Vera Sans, DejaVu Sans, Liberation Sans, Arial, Helvetica, sans" font-size="10.00">VOSError</text>
</a>
</g>
</g>
<!-- BaseVOError&#45;&gt;VOSError -->
<g id="edge6" class="edge"><title>BaseVOError&#45;&gt;VOSError</title>
<path fill="none" stroke="black" stroke-width="0.5" d="M78.2668,-76.3541C93.9626,-74.0383 112.002,-71.3768 127.307,-69.1186"/>
<polygon fill="black" stroke="black" stroke-width="0.5" points="127.695,-70.8305 132.386,-68.3693 127.184,-67.368 127.695,-70.8305"/>
</g>
<!-- DuplicateCatalogName -->
<g id="node3" class="node"><title>DuplicateCatalogName</title>
<g id="a_node3"><a xlink:href="../../api/astropy.vo.client.exceptions.DuplicateCatalogName.html#astropy.vo.client.exceptions.DuplicateCatalogName" xlink:title="VO catalog of the same title already exists.">
<polygon fill="none" stroke="black" stroke-width="0.5" points="376,-129.5 248,-129.5 248,-110.5 376,-110.5 376,-129.5"/>
<text text-anchor="middle" x="312" y="-117.5" font-family="Vera Sans, DejaVu Sans, Liberation Sans, Arial, Helvetica, sans" font-size="10.00">DuplicateCatalogName</text>
</a>
</g>
</g>
<!-- VOSError&#45;&gt;DuplicateCatalogName -->
<g id="edge2" class="edge"><title>VOSError&#45;&gt;DuplicateCatalogName</title>
<path fill="none" stroke="black" stroke-width="0.5" d="M188.59,-73.2601C196.156,-76.2357 204.472,-79.6357 212,-83 228.332,-90.2988 231.376,-94.3934 248,-101 255.473,-103.97 263.599,-106.743 271.455,-109.203"/>
<polygon fill="black" stroke="black" stroke-width="0.5" points="271.01,-110.897 276.303,-110.693 272.038,-107.551 271.01,-110.897"/>
</g>
<!-- DuplicateCatalogURL -->
<g id="node5" class="node"><title>DuplicateCatalogURL</title>
<g id="a_node5"><a xlink:href="../../api/astropy.vo.client.exceptions.DuplicateCatalogURL.html#astropy.vo.client.exceptions.DuplicateCatalogURL" xlink:title="VO catalog of the same access URL already exists.">
<polygon fill="none" stroke="black" stroke-width="0.5" points="370.5,-92.5 253.5,-92.5 253.5,-73.5 370.5,-73.5 370.5,-92.5"/>
<text text-anchor="middle" x="312" y="-80.5" font-family="Vera Sans, DejaVu Sans, Liberation Sans, Arial, Helvetica, sans" font-size="10.00">DuplicateCatalogURL</text>
</a>
</g>
</g>
<!-- VOSError&#45;&gt;DuplicateCatalogURL -->
<g id="edge3" class="edge"><title>VOSError&#45;&gt;DuplicateCatalogURL</title>
<path fill="none" stroke="black" stroke-width="0.5" d="M193.748,-67.8449C209.391,-69.8669 229.192,-72.4262 248.048,-74.8633"/>
<polygon fill="black" stroke="black" stroke-width="0.5" points="248.154,-76.6415 253.337,-75.5469 248.602,-73.1704 248.154,-76.6415"/>
</g>
<!-- InvalidAccessURL -->
<g id="node6" class="node"><title>InvalidAccessURL</title>
<g id="a_node6"><a xlink:href="../../api/astropy.vo.client.exceptions.InvalidAccessURL.html#astropy.vo.client.exceptions.InvalidAccessURL" xlink:title="Invalid access URL.">
<polygon fill="none" stroke="black" stroke-width="0.5" points="361.5,-55.5 262.5,-55.5 262.5,-36.5 361.5,-36.5 361.5,-55.5"/>
<text text-anchor="middle" x="312" y="-43.5" font-family="Vera Sans, DejaVu Sans, Liberation Sans, Arial, Helvetica, sans" font-size="10.00">InvalidAccessURL</text>
</a>
</g>
</g>
<!-- VOSError&#45;&gt;InvalidAccessURL -->
<g id="edge4" class="edge"><title>VOSError&#45;&gt;InvalidAccessURL</title>
<path fill="none" stroke="black" stroke-width="0.5" d="M193.748,-60.3574C212,-58.1225 235.911,-55.1946 257.377,-52.5661"/>
<polygon fill="black" stroke="black" stroke-width="0.5" points="257.738,-54.2851 262.488,-51.9402 257.312,-50.811 257.738,-54.2851"/>
</g>
<!-- MissingCatalog -->
<g id="node7" class="node"><title>MissingCatalog</title>
<g id="a_node7"><a xlink:href="../../api/astropy.vo.client.exceptions.MissingCatalog.html#astropy.vo.client.exceptions.MissingCatalog" xlink:title="VO catalog is missing.">
<polygon fill="none" stroke="black" stroke-width="0.5" points="356.5,-18.5 267.5,-18.5 267.5,0.5 356.5,0.5 356.5,-18.5"/>
<text text-anchor="middle" x="312" y="-6.5" font-family="Vera Sans, DejaVu Sans, Liberation Sans, Arial, Helvetica, sans" font-size="10.00">MissingCatalog</text>
</a>
</g>
</g>
<!-- VOSError&#45;&gt;MissingCatalog -->
<g id="edge5" class="edge"><title>VOSError&#45;&gt;MissingCatalog</title>
<path fill="none" stroke="black" stroke-width="0.5" d="M184.113,-54.6256C200.973,-46.9514 225.784,-36.0819 248,-28 255.913,-25.1215 264.491,-22.3256 272.696,-19.8033"/>
<polygon fill="black" stroke="black" stroke-width="0.5" points="273.471,-21.3969 277.747,-18.2699 272.454,-18.0478 273.471,-21.3969"/>
</g>
</g>
</svg>
