<?xml version="1.0" encoding="UTF-8" standalone="no"?>
<!DOCTYPE svg PUBLIC "-//W3C//DTD SVG 1.1//EN"
 "http://www.w3.org/Graphics/SVG/1.1/DTD/svg11.dtd">
<!-- Generated by graphviz version 2.36.0 (20140111.2315)
 -->
<!-- Title: inheritance447b6afb60 Pages: 1 -->
<svg width="444pt" height="581pt"
 viewBox="0.00 0.00 444.00 581.00" xmlns="http://www.w3.org/2000/svg" xmlns:xlink="http://www.w3.org/1999/xlink">
<g id="graph0" class="graph" transform="scale(1 1) rotate(0) translate(4 577)">
<title>inheritance447b6afb60</title>
<polygon fill="white" stroke="none" points="-4,4 -4,-577 440,-577 440,4 -4,4"/>
<!-- AffineTransformation2D -->
<g id="node1" class="node"><title>AffineTransformation2D</title>
<g id="a_node1"><a xlink:href="../api/astropy.modeling.projections.AffineTransformation2D.html#astropy.modeling.projections.AffineTransformation2D" xlink:title="Perform an affine transformation in 2 dimensions.">
<polygon fill="none" stroke="black" stroke-width="0.5" points="218,-332.5 90,-332.5 90,-313.5 218,-313.5 218,-332.5"/>
<text text-anchor="middle" x="154" y="-320.5" font-family="Vera Sans, DejaVu Sans, Liberation Sans, Arial, Helvetica, sans" font-size="10.00">AffineTransformation2D</text>
</a>
</g>
</g>
<!-- Model -->
<g id="node2" class="node"><title>Model</title>
<g id="a_node2"><a xlink:href="../api/astropy.modeling.Model.html#astropy.modeling.Model" xlink:title="Base class for all models.">
<polygon fill="none" stroke="black" stroke-width="0.5" points="54,-313.5 0,-313.5 0,-294.5 54,-294.5 54,-313.5"/>
<text text-anchor="middle" x="27" y="-301.5" font-family="Vera Sans, DejaVu Sans, Liberation Sans, Arial, Helvetica, sans" font-size="10.00">Model</text>
</a>
</g>
</g>
<!-- Model&#45;&gt;AffineTransformation2D -->
<g id="edge1" class="edge"><title>Model&#45;&gt;AffineTransformation2D</title>
<path fill="none" stroke="black" stroke-width="0.5" d="M54.2041,-307.983C63.9135,-309.459 75.4113,-311.207 87.0688,-312.978"/>
<polygon fill="black" stroke="black" stroke-width="0.5" points="86.8636,-314.717 92.0698,-313.739 87.3896,-311.257 86.8636,-314.717"/>
</g>
<!-- Projection -->
<g id="node4" class="node"><title>Projection</title>
<g id="a_node4"><a xlink:title="Base class for all sky projections.">
<polygon fill="none" stroke="black" stroke-width="0.5" points="186,-295.5 122,-295.5 122,-276.5 186,-276.5 186,-295.5"/>
<text text-anchor="middle" x="154" y="-283.5" font-family="Vera Sans, DejaVu Sans, Liberation Sans, Arial, Helvetica, sans" font-size="10.00">Projection</text>
</a>
</g>
</g>
<!-- Model&#45;&gt;Projection -->
<g id="edge11" class="edge"><title>Model&#45;&gt;Projection</title>
<path fill="none" stroke="black" stroke-width="0.5" d="M54.2041,-300.227C72.4192,-297.604 96.9288,-294.074 116.978,-291.187"/>
<polygon fill="black" stroke="black" stroke-width="0.5" points="117.274,-292.913 121.973,-290.468 116.775,-289.448 117.274,-292.913"/>
</g>
<!-- Cylindrical -->
<g id="node3" class="node"><title>Cylindrical</title>
<g id="a_node3"><a xlink:title="Base class for Cylindrical projections.">
<polygon fill="none" stroke="black" stroke-width="0.5" points="319.5,-425.5 254.5,-425.5 254.5,-406.5 319.5,-406.5 319.5,-425.5"/>
<text text-anchor="middle" x="287" y="-413.5" font-family="Vera Sans, DejaVu Sans, Liberation Sans, Arial, Helvetica, sans" font-size="10.00">Cylindrical</text>
</a>
</g>
</g>
<!-- Pix2Sky_CAR -->
<g id="node7" class="node"><title>Pix2Sky_CAR</title>
<g id="a_node7"><a xlink:href="../api/astropy.modeling.projections.Pix2Sky_CAR.html#astropy.modeling.projections.Pix2Sky_CAR" xlink:title="CAR: Plate carree projection &#45; pixel to sky.">
<polygon fill="none" stroke="black" stroke-width="0.5" points="435,-573.5 357,-573.5 357,-554.5 435,-554.5 435,-573.5"/>
<text text-anchor="middle" x="396" y="-561.5" font-family="Vera Sans, DejaVu Sans, Liberation Sans, Arial, Helvetica, sans" font-size="10.00">Pix2Sky_CAR</text>
</a>
</g>
</g>
<!-- Cylindrical&#45;&gt;Pix2Sky_CAR -->
<g id="edge4" class="edge"><title>Cylindrical&#45;&gt;Pix2Sky_CAR</title>
<path fill="none" stroke="black" stroke-width="0.5" d="M290.686,-425.357C297.749,-448.485 318.905,-509.065 356,-545 358.752,-547.666 361.951,-550.023 365.309,-552.088"/>
<polygon fill="black" stroke="black" stroke-width="0.5" points="364.749,-553.782 369.962,-554.725 366.475,-550.737 364.749,-553.782"/>
</g>
<!-- Pix2Sky_CEA -->
<g id="node8" class="node"><title>Pix2Sky_CEA</title>
<g id="a_node8"><a xlink:href="../api/astropy.modeling.projections.Pix2Sky_CEA.html#astropy.modeling.projections.Pix2Sky_CEA" xlink:title="CEA : Cylindrical equal area projection &#45; pixel to sky.">
<polygon fill="none" stroke="black" stroke-width="0.5" points="435,-536.5 357,-536.5 357,-517.5 435,-517.5 435,-536.5"/>
<text text-anchor="middle" x="396" y="-524.5" font-family="Vera Sans, DejaVu Sans, Liberation Sans, Arial, Helvetica, sans" font-size="10.00">Pix2Sky_CEA</text>
</a>
</g>
</g>
<!-- Cylindrical&#45;&gt;Pix2Sky_CEA -->
<g id="edge5" class="edge"><title>Cylindrical&#45;&gt;Pix2Sky_CEA</title>
<path fill="none" stroke="black" stroke-width="0.5" d="M292.973,-425.519C302.845,-443.645 326.529,-483.487 356,-508 359.246,-510.7 362.941,-513.129 366.732,-515.276"/>
<polygon fill="black" stroke="black" stroke-width="0.5" points="365.971,-516.853 371.206,-517.665 367.62,-513.766 365.971,-516.853"/>
</g>
<!-- Pix2Sky_CYP -->
<g id="node9" class="node"><title>Pix2Sky_CYP</title>
<g id="a_node9"><a xlink:href="../api/astropy.modeling.projections.Pix2Sky_CYP.html#astropy.modeling.projections.Pix2Sky_CYP" xlink:title="CYP : Cylindrical perspective &#45; pixel to sky.">
<polygon fill="none" stroke="black" stroke-width="0.5" points="434.5,-499.5 357.5,-499.5 357.5,-480.5 434.5,-480.5 434.5,-499.5"/>
<text text-anchor="middle" x="396" y="-487.5" font-family="Vera Sans, DejaVu Sans, Liberation Sans, Arial, Helvetica, sans" font-size="10.00">Pix2Sky_CYP</text>
</a>
</g>
</g>
<!-- Cylindrical&#45;&gt;Pix2Sky_CYP -->
<g id="edge6" class="edge"><title>Cylindrical&#45;&gt;Pix2Sky_CYP</title>
<path fill="none" stroke="black" stroke-width="0.5" d="M298.043,-425.35C310.844,-436.971 333.967,-456.979 356,-471 360.013,-473.554 364.42,-476.004 368.781,-478.246"/>
<polygon fill="black" stroke="black" stroke-width="0.5" points="368.221,-479.922 373.476,-480.592 369.786,-476.792 368.221,-479.922"/>
</g>
<!-- Pix2Sky_MER -->
<g id="node10" class="node"><title>Pix2Sky_MER</title>
<g id="a_node10"><a xlink:href="../api/astropy.modeling.projections.Pix2Sky_MER.html#astropy.modeling.projections.Pix2Sky_MER" xlink:title="MER: Mercator &#45; pixel to sky.">
<polygon fill="none" stroke="black" stroke-width="0.5" points="435.5,-462.5 356.5,-462.5 356.5,-443.5 435.5,-443.5 435.5,-462.5"/>
<text text-anchor="middle" x="396" y="-450.5" font-family="Vera Sans, DejaVu Sans, Liberation Sans, Arial, Helvetica, sans" font-size="10.00">Pix2Sky_MER</text>
</a>
</g>
</g>
<!-- Cylindrical&#45;&gt;Pix2Sky_MER -->
<g id="edge7" class="edge"><title>Cylindrical&#45;&gt;Pix2Sky_MER</title>
<path fill="none" stroke="black" stroke-width="0.5" d="M315.001,-425.337C329.574,-430.376 347.656,-436.629 362.941,-441.914"/>
<polygon fill="black" stroke="black" stroke-width="0.5" points="362.711,-443.686 368.008,-443.666 363.854,-440.378 362.711,-443.686"/>
</g>
<!-- Sky2Pix_CAR -->
<g id="node15" class="node"><title>Sky2Pix_CAR</title>
<g id="a_node15"><a xlink:href="../api/astropy.modeling.projections.Sky2Pix_CAR.html#astropy.modeling.projections.Sky2Pix_CAR" xlink:title="CAR: Plate carree projection &#45; sky to pixel.">
<polygon fill="none" stroke="black" stroke-width="0.5" points="435,-425.5 357,-425.5 357,-406.5 435,-406.5 435,-425.5"/>
<text text-anchor="middle" x="396" y="-413.5" font-family="Vera Sans, DejaVu Sans, Liberation Sans, Arial, Helvetica, sans" font-size="10.00">Sky2Pix_CAR</text>
</a>
</g>
</g>
<!-- Cylindrical&#45;&gt;Sky2Pix_CAR -->
<g id="edge13" class="edge"><title>Cylindrical&#45;&gt;Sky2Pix_CAR</title>
<path fill="none" stroke="black" stroke-width="0.5" d="M319.525,-416C329.59,-416 340.912,-416 351.665,-416"/>
<polygon fill="black" stroke="black" stroke-width="0.5" points="351.89,-417.75 356.89,-416 351.89,-414.25 351.89,-417.75"/>
</g>
<!-- Sky2Pix_CEA -->
<g id="node16" class="node"><title>Sky2Pix_CEA</title>
<g id="a_node16"><a xlink:href="../api/astropy.modeling.projections.Sky2Pix_CEA.html#astropy.modeling.projections.Sky2Pix_CEA" xlink:title="CEA: Cylindrical equal area projection &#45; sky to pixel.">
<polygon fill="none" stroke="black" stroke-width="0.5" points="435,-388.5 357,-388.5 357,-369.5 435,-369.5 435,-388.5"/>
<text text-anchor="middle" x="396" y="-376.5" font-family="Vera Sans, DejaVu Sans, Liberation Sans, Arial, Helvetica, sans" font-size="10.00">Sky2Pix_CEA</text>
</a>
</g>
</g>
<!-- Cylindrical&#45;&gt;Sky2Pix_CEA -->
<g id="edge14" class="edge"><title>Cylindrical&#45;&gt;Sky2Pix_CEA</title>
<path fill="none" stroke="black" stroke-width="0.5" d="M315.001,-406.663C329.574,-401.624 347.656,-395.371 362.941,-390.086"/>
<polygon fill="black" stroke="black" stroke-width="0.5" points="363.854,-391.622 368.008,-388.334 362.711,-388.314 363.854,-391.622"/>
</g>
<!-- Sky2Pix_CYP -->
<g id="node17" class="node"><title>Sky2Pix_CYP</title>
<g id="a_node17"><a xlink:href="../api/astropy.modeling.projections.Sky2Pix_CYP.html#astropy.modeling.projections.Sky2Pix_CYP" xlink:title="CYP : Cylindrical Perspective &#45; sky to pixel.">
<polygon fill="none" stroke="black" stroke-width="0.5" points="434.5,-351.5 357.5,-351.5 357.5,-332.5 434.5,-332.5 434.5,-351.5"/>
<text text-anchor="middle" x="396" y="-339.5" font-family="Vera Sans, DejaVu Sans, Liberation Sans, Arial, Helvetica, sans" font-size="10.00">Sky2Pix_CYP</text>
</a>
</g>
</g>
<!-- Cylindrical&#45;&gt;Sky2Pix_CYP -->
<g id="edge15" class="edge"><title>Cylindrical&#45;&gt;Sky2Pix_CYP</title>
<path fill="none" stroke="black" stroke-width="0.5" d="M298.043,-406.65C310.844,-395.029 333.967,-375.021 356,-361 360.013,-358.446 364.42,-355.996 368.781,-353.754"/>
<polygon fill="black" stroke="black" stroke-width="0.5" points="369.786,-355.208 373.476,-351.408 368.221,-352.078 369.786,-355.208"/>
</g>
<!-- Sky2Pix_MER -->
<g id="node18" class="node"><title>Sky2Pix_MER</title>
<g id="a_node18"><a xlink:href="../api/astropy.modeling.projections.Sky2Pix_MER.html#astropy.modeling.projections.Sky2Pix_MER" xlink:title="MER: Mercator &#45; sky to pixel.">
<polygon fill="none" stroke="black" stroke-width="0.5" points="435.5,-314.5 356.5,-314.5 356.5,-295.5 435.5,-295.5 435.5,-314.5"/>
<text text-anchor="middle" x="396" y="-302.5" font-family="Vera Sans, DejaVu Sans, Liberation Sans, Arial, Helvetica, sans" font-size="10.00">Sky2Pix_MER</text>
</a>
</g>
</g>
<!-- Cylindrical&#45;&gt;Sky2Pix_MER -->
<g id="edge16" class="edge"><title>Cylindrical&#45;&gt;Sky2Pix_MER</title>
<path fill="none" stroke="black" stroke-width="0.5" d="M292.973,-406.481C302.845,-388.355 326.529,-348.513 356,-324 359.246,-321.3 362.941,-318.871 366.732,-316.724"/>
<polygon fill="black" stroke="black" stroke-width="0.5" points="367.62,-318.234 371.206,-314.335 365.971,-315.147 367.62,-318.234"/>
</g>
<!-- Projection&#45;&gt;Cylindrical -->
<g id="edge2" class="edge"><title>Projection&#45;&gt;Cylindrical</title>
<path fill="none" stroke="black" stroke-width="0.5" d="M186.271,-290.711C197.13,-293.509 208.864,-297.953 218,-305 251.439,-330.793 272.293,-378.075 281.117,-401.73"/>
<polygon fill="black" stroke="black" stroke-width="0.5" points="279.561,-402.571 282.913,-406.673 282.85,-401.376 279.561,-402.571"/>
</g>
<!-- Zenithal -->
<g id="node6" class="node"><title>Zenithal</title>
<g id="a_node6"><a xlink:title="Base class for all Zenithal projections.">
<polygon fill="none" stroke="black" stroke-width="0.5" points="315,-166.5 259,-166.5 259,-147.5 315,-147.5 315,-166.5"/>
<text text-anchor="middle" x="287" y="-154.5" font-family="Vera Sans, DejaVu Sans, Liberation Sans, Arial, Helvetica, sans" font-size="10.00">Zenithal</text>
</a>
</g>
</g>
<!-- Projection&#45;&gt;Zenithal -->
<g id="edge20" class="edge"><title>Projection&#45;&gt;Zenithal</title>
<path fill="none" stroke="black" stroke-width="0.5" d="M164.421,-276.723C187.347,-254.147 246.102,-196.289 272.637,-170.159"/>
<polygon fill="black" stroke="black" stroke-width="0.5" points="273.976,-171.297 276.311,-166.541 271.52,-168.803 273.976,-171.297"/>
</g>
<!-- Pix2Sky_AZP -->
<g id="node5" class="node"><title>Pix2Sky_AZP</title>
<g id="a_node5"><a xlink:href="../api/astropy.modeling.projections.Pix2Sky_AZP.html#astropy.modeling.projections.Pix2Sky_AZP" xlink:title="AZP : Zenital perspective projection &#45; pixel to sky.">
<polygon fill="none" stroke="black" stroke-width="0.5" points="435.5,-277.5 356.5,-277.5 356.5,-258.5 435.5,-258.5 435.5,-277.5"/>
<text text-anchor="middle" x="396" y="-265.5" font-family="Vera Sans, DejaVu Sans, Liberation Sans, Arial, Helvetica, sans" font-size="10.00">Pix2Sky_AZP</text>
</a>
</g>
</g>
<!-- Zenithal&#45;&gt;Pix2Sky_AZP -->
<g id="edge3" class="edge"><title>Zenithal&#45;&gt;Pix2Sky_AZP</title>
<path fill="none" stroke="black" stroke-width="0.5" d="M292.973,-166.519C302.845,-184.645 326.529,-224.487 356,-249 359.246,-251.7 362.941,-254.129 366.732,-256.276"/>
<polygon fill="black" stroke="black" stroke-width="0.5" points="365.971,-257.853 371.206,-258.665 367.62,-254.766 365.971,-257.853"/>
</g>
<!-- Pix2Sky_SIN -->
<g id="node11" class="node"><title>Pix2Sky_SIN</title>
<g id="a_node11"><a xlink:href="../api/astropy.modeling.projections.Pix2Sky_SIN.html#astropy.modeling.projections.Pix2Sky_SIN" xlink:title="SIN : Slant orthographic projection &#45; pixel to sky.">
<polygon fill="none" stroke="black" stroke-width="0.5" points="433.5,-240.5 358.5,-240.5 358.5,-221.5 433.5,-221.5 433.5,-240.5"/>
<text text-anchor="middle" x="396" y="-228.5" font-family="Vera Sans, DejaVu Sans, Liberation Sans, Arial, Helvetica, sans" font-size="10.00">Pix2Sky_SIN</text>
</a>
</g>
</g>
<!-- Zenithal&#45;&gt;Pix2Sky_SIN -->
<g id="edge8" class="edge"><title>Zenithal&#45;&gt;Pix2Sky_SIN</title>
<path fill="none" stroke="black" stroke-width="0.5" d="M298.043,-166.35C310.844,-177.971 333.967,-197.979 356,-212 360.013,-214.554 364.42,-217.004 368.781,-219.246"/>
<polygon fill="black" stroke="black" stroke-width="0.5" points="368.221,-220.922 373.476,-221.592 369.786,-217.792 368.221,-220.922"/>
</g>
<!-- Pix2Sky_STG -->
<g id="node12" class="node"><title>Pix2Sky_STG</title>
<g id="a_node12"><a xlink:href="../api/astropy.modeling.projections.Pix2Sky_STG.html#astropy.modeling.projections.Pix2Sky_STG" xlink:title="STG : Stereographic Projection &#45; pixel to sky.">
<polygon fill="none" stroke="black" stroke-width="0.5" points="435,-203.5 357,-203.5 357,-184.5 435,-184.5 435,-203.5"/>
<text text-anchor="middle" x="396" y="-191.5" font-family="Vera Sans, DejaVu Sans, Liberation Sans, Arial, Helvetica, sans" font-size="10.00">Pix2Sky_STG</text>
</a>
</g>
</g>
<!-- Zenithal&#45;&gt;Pix2Sky_STG -->
<g id="edge9" class="edge"><title>Zenithal&#45;&gt;Pix2Sky_STG</title>
<path fill="none" stroke="black" stroke-width="0.5" d="M315.001,-166.337C329.574,-171.376 347.656,-177.629 362.941,-182.914"/>
<polygon fill="black" stroke="black" stroke-width="0.5" points="362.711,-184.686 368.008,-184.666 363.854,-181.378 362.711,-184.686"/>
</g>
<!-- Pix2Sky_TAN -->
<g id="node13" class="node"><title>Pix2Sky_TAN</title>
<g id="a_node13"><a xlink:href="../api/astropy.modeling.projections.Pix2Sky_TAN.html#astropy.modeling.projections.Pix2Sky_TAN" xlink:title="TAN : Gnomonic projection &#45; pixel to sky.">
<polygon fill="none" stroke="black" stroke-width="0.5" points="434.5,-166.5 357.5,-166.5 357.5,-147.5 434.5,-147.5 434.5,-166.5"/>
<text text-anchor="middle" x="396" y="-154.5" font-family="Vera Sans, DejaVu Sans, Liberation Sans, Arial, Helvetica, sans" font-size="10.00">Pix2Sky_TAN</text>
</a>
</g>
</g>
<!-- Zenithal&#45;&gt;Pix2Sky_TAN -->
<g id="edge10" class="edge"><title>Zenithal&#45;&gt;Pix2Sky_TAN</title>
<path fill="none" stroke="black" stroke-width="0.5" d="M315.001,-157C326.16,-157 339.377,-157 351.82,-157"/>
<polygon fill="black" stroke="black" stroke-width="0.5" points="352.097,-158.75 357.097,-157 352.097,-155.25 352.097,-158.75"/>
</g>
<!-- Sky2Pix_AZP -->
<g id="node14" class="node"><title>Sky2Pix_AZP</title>
<g id="a_node14"><a xlink:href="../api/astropy.modeling.projections.Sky2Pix_AZP.html#astropy.modeling.projections.Sky2Pix_AZP" xlink:title="AZP : Zenital perspective projection &#45; sky to pixel.">
<polygon fill="none" stroke="black" stroke-width="0.5" points="435.5,-129.5 356.5,-129.5 356.5,-110.5 435.5,-110.5 435.5,-129.5"/>
<text text-anchor="middle" x="396" y="-117.5" font-family="Vera Sans, DejaVu Sans, Liberation Sans, Arial, Helvetica, sans" font-size="10.00">Sky2Pix_AZP</text>
</a>
</g>
</g>
<!-- Zenithal&#45;&gt;Sky2Pix_AZP -->
<g id="edge12" class="edge"><title>Zenithal&#45;&gt;Sky2Pix_AZP</title>
<path fill="none" stroke="black" stroke-width="0.5" d="M315.001,-147.663C329.574,-142.624 347.656,-136.371 362.941,-131.086"/>
<polygon fill="black" stroke="black" stroke-width="0.5" points="363.854,-132.622 368.008,-129.334 362.711,-129.314 363.854,-132.622"/>
</g>
<!-- Sky2Pix_SIN -->
<g id="node19" class="node"><title>Sky2Pix_SIN</title>
<g id="a_node19"><a xlink:href="../api/astropy.modeling.projections.Sky2Pix_SIN.html#astropy.modeling.projections.Sky2Pix_SIN" xlink:title="SIN : Slant othographic projection &#45; sky to pixel.">
<polygon fill="none" stroke="black" stroke-width="0.5" points="433.5,-92.5 358.5,-92.5 358.5,-73.5 433.5,-73.5 433.5,-92.5"/>
<text text-anchor="middle" x="396" y="-80.5" font-family="Vera Sans, DejaVu Sans, Liberation Sans, Arial, Helvetica, sans" font-size="10.00">Sky2Pix_SIN</text>
</a>
</g>
</g>
<!-- Zenithal&#45;&gt;Sky2Pix_SIN -->
<g id="edge17" class="edge"><title>Zenithal&#45;&gt;Sky2Pix_SIN</title>
<path fill="none" stroke="black" stroke-width="0.5" d="M298.043,-147.65C310.844,-136.029 333.967,-116.021 356,-102 360.013,-99.4463 364.42,-96.9962 368.781,-94.7541"/>
<polygon fill="black" stroke="black" stroke-width="0.5" points="369.786,-96.2084 373.476,-92.4076 368.221,-93.0777 369.786,-96.2084"/>
</g>
<!-- Sky2Pix_STG -->
<g id="node20" class="node"><title>Sky2Pix_STG</title>
<g id="a_node20"><a xlink:href="../api/astropy.modeling.projections.Sky2Pix_STG.html#astropy.modeling.projections.Sky2Pix_STG" xlink:title="STG : Stereographic Projection &#45; sky to pixel.">
<polygon fill="none" stroke="black" stroke-width="0.5" points="435,-55.5 357,-55.5 357,-36.5 435,-36.5 435,-55.5"/>
<text text-anchor="middle" x="396" y="-43.5" font-family="Vera Sans, DejaVu Sans, Liberation Sans, Arial, Helvetica, sans" font-size="10.00">Sky2Pix_STG</text>
</a>
</g>
</g>
<!-- Zenithal&#45;&gt;Sky2Pix_STG -->
<g id="edge18" class="edge"><title>Zenithal&#45;&gt;Sky2Pix_STG</title>
<path fill="none" stroke="black" stroke-width="0.5" d="M292.973,-147.481C302.845,-129.355 326.529,-89.5129 356,-65 359.246,-62.2999 362.941,-59.8712 366.732,-57.7245"/>
<polygon fill="black" stroke="black" stroke-width="0.5" points="367.62,-59.2342 371.206,-55.3347 365.971,-56.147 367.62,-59.2342"/>
</g>
<!-- Sky2Pix_TAN -->
<g id="node21" class="node"><title>Sky2Pix_TAN</title>
<g id="a_node21"><a xlink:href="../api/astropy.modeling.projections.Sky2Pix_TAN.html#astropy.modeling.projections.Sky2Pix_TAN" xlink:title="TAN : Gnomonic Projection &#45; sky to pixel.">
<polygon fill="none" stroke="black" stroke-width="0.5" points="434.5,-18.5 357.5,-18.5 357.5,0.5 434.5,0.5 434.5,-18.5"/>
<text text-anchor="middle" x="396" y="-6.5" font-family="Vera Sans, DejaVu Sans, Liberation Sans, Arial, Helvetica, sans" font-size="10.00">Sky2Pix_TAN</text>
</a>
</g>
</g>
<!-- Zenithal&#45;&gt;Sky2Pix_TAN -->
<g id="edge19" class="edge"><title>Zenithal&#45;&gt;Sky2Pix_TAN</title>
<path fill="none" stroke="black" stroke-width="0.5" d="M290.686,-147.643C297.749,-124.515 318.905,-63.9347 356,-28 358.752,-25.334 361.951,-22.9772 365.309,-20.9121"/>
<polygon fill="black" stroke="black" stroke-width="0.5" points="366.475,-22.263 369.962,-18.2751 364.749,-19.218 366.475,-22.263"/>
</g>
</g>
</svg>
