<?xml version="1.0" encoding="UTF-8" standalone="no"?>
<!DOCTYPE svg PUBLIC "-//W3C//DTD SVG 1.1//EN"
 "http://www.w3.org/Graphics/SVG/1.1/DTD/svg11.dtd">
<!-- Generated by graphviz version 2.36.0 (20140111.2315)
 -->
<!-- Title: inheritance54d1987e0c Pages: 1 -->
<svg width="412pt" height="433pt"
 viewBox="0.00 0.00 412.00 433.00" xmlns="http://www.w3.org/2000/svg" xmlns:xlink="http://www.w3.org/1999/xlink">
<g id="graph0" class="graph" transform="scale(1 1) rotate(0) translate(4 429)">
<title>inheritance54d1987e0c</title>
<polygon fill="white" stroke="none" points="-4,4 -4,-429 408,-429 408,4 -4,4"/>
<!-- AstropyWarning -->
<g id="node1" class="node"><title>AstropyWarning</title>
<g id="a_node1"><a xlink:href="../api/astropy.utils.exceptions.AstropyWarning.html#astropy.utils.exceptions.AstropyWarning" xlink:title="The base warning class from which all Astropy warnings should inherit.">
<polygon fill="none" stroke="black" stroke-width="0.5" points="106.5,-18.5 15.5,-18.5 15.5,0.5 106.5,0.5 106.5,-18.5"/>
<text text-anchor="middle" x="61" y="-6.5" font-family="Vera Sans, DejaVu Sans, Liberation Sans, Arial, Helvetica, sans" font-size="10.00">AstropyWarning</text>
</a>
</g>
</g>
<!-- FITSFixedWarning -->
<g id="node3" class="node"><title>FITSFixedWarning</title>
<g id="a_node3"><a xlink:href="../api/astropy.wcs.FITSFixedWarning.html#astropy.wcs.FITSFixedWarning" xlink:title="The warning raised when the contents of the FITS header have been">
<polygon fill="none" stroke="black" stroke-width="0.5" points="330,-18.5 232,-18.5 232,0.5 330,0.5 330,-18.5"/>
<text text-anchor="middle" x="281" y="-6.5" font-family="Vera Sans, DejaVu Sans, Liberation Sans, Arial, Helvetica, sans" font-size="10.00">FITSFixedWarning</text>
</a>
</g>
</g>
<!-- AstropyWarning&#45;&gt;FITSFixedWarning -->
<g id="edge1" class="edge"><title>AstropyWarning&#45;&gt;FITSFixedWarning</title>
<path fill="none" stroke="black" stroke-width="0.5" d="M106.642,-9C141.31,-9 189.512,-9 226.291,-9"/>
<polygon fill="black" stroke="black" stroke-width="0.5" points="226.631,-10.7501 231.631,-9 226.631,-7.25009 226.631,-10.7501"/>
</g>
<!-- DistortionLookupTable -->
<g id="node2" class="node"><title>DistortionLookupTable</title>
<g id="a_node2"><a xlink:href="../api/astropy.wcs.DistortionLookupTable.html#astropy.wcs.DistortionLookupTable" xlink:title="DistortionLookupTable(*table*, *crpix*, *crval*, *cdelt*)">
<polygon fill="none" stroke="black" stroke-width="0.5" points="122,-110.5 -7.10543e-15,-110.5 -7.10543e-15,-91.5 122,-91.5 122,-110.5"/>
<text text-anchor="middle" x="61" y="-98.5" font-family="Vera Sans, DejaVu Sans, Liberation Sans, Arial, Helvetica, sans" font-size="10.00">DistortionLookupTable</text>
</a>
</g>
</g>
<!-- InconsistentAxisTypesError -->
<g id="node4" class="node"><title>InconsistentAxisTypesError</title>
<g id="a_node4"><a xlink:href="../api/astropy.wcs.InconsistentAxisTypesError.html#astropy.wcs.InconsistentAxisTypesError" xlink:title="InconsistentAxisTypesError">
<polygon fill="none" stroke="black" stroke-width="0.5" points="352.5,-351.5 209.5,-351.5 209.5,-332.5 352.5,-332.5 352.5,-351.5"/>
<text text-anchor="middle" x="281" y="-339.5" font-family="Vera Sans, DejaVu Sans, Liberation Sans, Arial, Helvetica, sans" font-size="10.00">InconsistentAxisTypesError</text>
</a>
</g>
</g>
<!-- WcsError -->
<g id="node5" class="node"><title>WcsError</title>
<g id="a_node5"><a xlink:href="../api/astropy.wcs.WcsError.html#astropy.wcs.WcsError" xlink:title="WcsError">
<polygon fill="none" stroke="black" stroke-width="0.5" points="90.5,-203.5 31.5,-203.5 31.5,-184.5 90.5,-184.5 90.5,-203.5"/>
<text text-anchor="middle" x="61" y="-191.5" font-family="Vera Sans, DejaVu Sans, Liberation Sans, Arial, Helvetica, sans" font-size="10.00">WcsError</text>
</a>
</g>
</g>
<!-- WcsError&#45;&gt;InconsistentAxisTypesError -->
<g id="edge2" class="edge"><title>WcsError&#45;&gt;InconsistentAxisTypesError</title>
<path fill="none" stroke="black" stroke-width="0.5" d="M84.1787,-203.335C96.7267,-209.58 111.883,-218.881 122,-231 150.138,-264.707 123.752,-295.523 158,-323 171.107,-333.516 187.626,-339.373 204.239,-342.439"/>
<polygon fill="black" stroke="black" stroke-width="0.5" points="204.174,-344.202 209.394,-343.302 204.752,-340.75 204.174,-344.202"/>
</g>
<!-- InvalidCoordinateError -->
<g id="node6" class="node"><title>InvalidCoordinateError</title>
<g id="a_node6"><a xlink:href="../api/astropy.wcs.InvalidCoordinateError.html#astropy.wcs.InvalidCoordinateError" xlink:title="InvalidCoordinateError">
<polygon fill="none" stroke="black" stroke-width="0.5" points="342,-314.5 220,-314.5 220,-295.5 342,-295.5 342,-314.5"/>
<text text-anchor="middle" x="281" y="-302.5" font-family="Vera Sans, DejaVu Sans, Liberation Sans, Arial, Helvetica, sans" font-size="10.00">InvalidCoordinateError</text>
</a>
</g>
</g>
<!-- WcsError&#45;&gt;InvalidCoordinateError -->
<g id="edge3" class="edge"><title>WcsError&#45;&gt;InvalidCoordinateError</title>
<path fill="none" stroke="black" stroke-width="0.5" d="M81.607,-203.261C94.1231,-209.817 110.161,-219.476 122,-231 142.935,-251.378 133.449,-270.164 158,-286 174.63,-296.727 195.132,-302.188 214.551,-304.786"/>
<polygon fill="black" stroke="black" stroke-width="0.5" points="214.821,-306.581 219.995,-305.445 215.241,-303.107 214.821,-306.581"/>
</g>
<!-- InvalidSubimageSpecificationError -->
<g id="node7" class="node"><title>InvalidSubimageSpecificationError</title>
<g id="a_node7"><a xlink:href="../api/astropy.wcs.InvalidSubimageSpecificationError.html#astropy.wcs.InvalidSubimageSpecificationError" xlink:title="InvalidSubimageSpecificationError">
<polygon fill="none" stroke="black" stroke-width="0.5" points="370.5,-277.5 191.5,-277.5 191.5,-258.5 370.5,-258.5 370.5,-277.5"/>
<text text-anchor="middle" x="281" y="-265.5" font-family="Vera Sans, DejaVu Sans, Liberation Sans, Arial, Helvetica, sans" font-size="10.00">InvalidSubimageSpecificationError</text>
</a>
</g>
</g>
<!-- WcsError&#45;&gt;InvalidSubimageSpecificationError -->
<g id="edge4" class="edge"><title>WcsError&#45;&gt;InvalidSubimageSpecificationError</title>
<path fill="none" stroke="black" stroke-width="0.5" d="M76.9208,-203.447C99.4854,-217.577 141.415,-243.182 158,-249 167.998,-252.507 178.684,-255.369 189.419,-257.703"/>
<polygon fill="black" stroke="black" stroke-width="0.5" points="189.099,-259.424 194.352,-258.738 189.818,-255.998 189.099,-259.424"/>
</g>
<!-- InvalidTabularParametersError -->
<g id="node8" class="node"><title>InvalidTabularParametersError</title>
<g id="a_node8"><a xlink:href="../api/astropy.wcs.InvalidTabularParametersError.html#astropy.wcs.InvalidTabularParametersError" xlink:title="InvalidTabularParametersError">
<polygon fill="none" stroke="black" stroke-width="0.5" points="360.5,-240.5 201.5,-240.5 201.5,-221.5 360.5,-221.5 360.5,-240.5"/>
<text text-anchor="middle" x="281" y="-228.5" font-family="Vera Sans, DejaVu Sans, Liberation Sans, Arial, Helvetica, sans" font-size="10.00">InvalidTabularParametersError</text>
</a>
</g>
</g>
<!-- WcsError&#45;&gt;InvalidTabularParametersError -->
<g id="edge5" class="edge"><title>WcsError&#45;&gt;InvalidTabularParametersError</title>
<path fill="none" stroke="black" stroke-width="0.5" d="M90.523,-199.587C109.597,-203.264 135.27,-208.1 158,-212 175.767,-215.048 195.025,-218.144 212.879,-220.927"/>
<polygon fill="black" stroke="black" stroke-width="0.5" points="212.666,-222.665 217.875,-221.704 213.203,-219.207 212.666,-222.665"/>
</g>
<!-- InvalidTransformError -->
<g id="node9" class="node"><title>InvalidTransformError</title>
<g id="a_node9"><a xlink:href="../api/astropy.wcs.InvalidTransformError.html#astropy.wcs.InvalidTransformError" xlink:title="InvalidTransformError">
<polygon fill="none" stroke="black" stroke-width="0.5" points="339.5,-203.5 222.5,-203.5 222.5,-184.5 339.5,-184.5 339.5,-203.5"/>
<text text-anchor="middle" x="281" y="-191.5" font-family="Vera Sans, DejaVu Sans, Liberation Sans, Arial, Helvetica, sans" font-size="10.00">InvalidTransformError</text>
</a>
</g>
</g>
<!-- WcsError&#45;&gt;InvalidTransformError -->
<g id="edge6" class="edge"><title>WcsError&#45;&gt;InvalidTransformError</title>
<path fill="none" stroke="black" stroke-width="0.5" d="M90.9487,-194C123.002,-194 175.639,-194 217.243,-194"/>
<polygon fill="black" stroke="black" stroke-width="0.5" points="217.26,-195.75 222.259,-194 217.259,-192.25 217.26,-195.75"/>
</g>
<!-- NoSolutionError -->
<g id="node10" class="node"><title>NoSolutionError</title>
<g id="a_node10"><a xlink:href="../api/astropy.wcs.NoSolutionError.html#astropy.wcs.NoSolutionError" xlink:title="NoSolutionError">
<polygon fill="none" stroke="black" stroke-width="0.5" points="327,-166.5 235,-166.5 235,-147.5 327,-147.5 327,-166.5"/>
<text text-anchor="middle" x="281" y="-154.5" font-family="Vera Sans, DejaVu Sans, Liberation Sans, Arial, Helvetica, sans" font-size="10.00">NoSolutionError</text>
</a>
</g>
</g>
<!-- WcsError&#45;&gt;NoSolutionError -->
<g id="edge7" class="edge"><title>WcsError&#45;&gt;NoSolutionError</title>
<path fill="none" stroke="black" stroke-width="0.5" d="M90.9182,-187.893C109.937,-183.972 135.398,-178.902 158,-175 181.438,-170.954 207.509,-167.03 229.514,-163.884"/>
<polygon fill="black" stroke="black" stroke-width="0.5" points="230.021,-165.579 234.724,-163.142 229.528,-162.114 230.021,-165.579"/>
</g>
<!-- NoWcsKeywordsFoundError -->
<g id="node11" class="node"><title>NoWcsKeywordsFoundError</title>
<g id="a_node11"><a xlink:href="../api/astropy.wcs.NoWcsKeywordsFoundError.html#astropy.wcs.NoWcsKeywordsFoundError" xlink:title="NoWcsKeywordsFoundError">
<polygon fill="none" stroke="black" stroke-width="0.5" points="354,-129.5 208,-129.5 208,-110.5 354,-110.5 354,-129.5"/>
<text text-anchor="middle" x="281" y="-117.5" font-family="Vera Sans, DejaVu Sans, Liberation Sans, Arial, Helvetica, sans" font-size="10.00">NoWcsKeywordsFoundError</text>
</a>
</g>
</g>
<!-- WcsError&#45;&gt;NoWcsKeywordsFoundError -->
<g id="edge8" class="edge"><title>WcsError&#45;&gt;NoWcsKeywordsFoundError</title>
<path fill="none" stroke="black" stroke-width="0.5" d="M74.2792,-184.737C91.838,-172 125.59,-149.366 158,-138 172.158,-133.035 187.707,-129.439 202.824,-126.836"/>
<polygon fill="black" stroke="black" stroke-width="0.5" points="203.285,-128.533 207.932,-125.99 202.713,-125.08 203.285,-128.533"/>
</g>
<!-- NonseparableSubimageCoordinateSystemError -->
<g id="node12" class="node"><title>NonseparableSubimageCoordinateSystemError</title>
<g id="a_node12"><a xlink:href="../api/astropy.wcs.NonseparableSubimageCoordinateSystemError.html#astropy.wcs.NonseparableSubimageCoordinateSystemError" xlink:title="NonseparableSubimageCoordinateSystemError">
<polygon fill="none" stroke="black" stroke-width="0.5" points="403.5,-92.5 158.5,-92.5 158.5,-73.5 403.5,-73.5 403.5,-92.5"/>
<text text-anchor="middle" x="281" y="-80.5" font-family="Vera Sans, DejaVu Sans, Liberation Sans, Arial, Helvetica, sans" font-size="10.00">NonseparableSubimageCoordinateSystemError</text>
</a>
</g>
</g>
<!-- WcsError&#45;&gt;NonseparableSubimageCoordinateSystemError -->
<g id="edge9" class="edge"><title>WcsError&#45;&gt;NonseparableSubimageCoordinateSystemError</title>
<path fill="none" stroke="black" stroke-width="0.5" d="M68.4134,-184.678C82.2514,-165.389 116.998,-121.213 158,-101 163.551,-98.2636 169.404,-95.9156 175.42,-93.9033"/>
<polygon fill="black" stroke="black" stroke-width="0.5" points="176.27,-95.4695 180.508,-92.2907 175.213,-92.133 176.27,-95.4695"/>
</g>
<!-- SingularMatrixError -->
<g id="node13" class="node"><title>SingularMatrixError</title>
<g id="a_node13"><a xlink:href="../api/astropy.wcs.SingularMatrixError.html#astropy.wcs.SingularMatrixError" xlink:title="SingularMatrixError">
<polygon fill="none" stroke="black" stroke-width="0.5" points="335,-55.5 227,-55.5 227,-36.5 335,-36.5 335,-55.5"/>
<text text-anchor="middle" x="281" y="-43.5" font-family="Vera Sans, DejaVu Sans, Liberation Sans, Arial, Helvetica, sans" font-size="10.00">SingularMatrixError</text>
</a>
</g>
</g>
<!-- WcsError&#45;&gt;SingularMatrixError -->
<g id="edge10" class="edge"><title>WcsError&#45;&gt;SingularMatrixError</title>
<path fill="none" stroke="black" stroke-width="0.5" d="M70.0673,-184.52C81.8787,-170.509 104.386,-143.303 122,-119 139.145,-95.3444 133.386,-79.7374 158,-64 176.703,-52.0419 200.27,-46.8177 221.692,-44.8342"/>
<polygon fill="black" stroke="black" stroke-width="0.5" points="221.958,-46.5684 226.799,-44.4178 221.673,-43.08 221.958,-46.5684"/>
</g>
<!-- Sip -->
<g id="node14" class="node"><title>Sip</title>
<g id="a_node14"><a xlink:href="../api/astropy.wcs.Sip.html#astropy.wcs.Sip" xlink:title="Sip(*a, b, ap, bp, crpix*)">
<polygon fill="none" stroke="black" stroke-width="0.5" points="88,-258.5 34,-258.5 34,-239.5 88,-239.5 88,-258.5"/>
<text text-anchor="middle" x="61" y="-246.5" font-family="Vera Sans, DejaVu Sans, Liberation Sans, Arial, Helvetica, sans" font-size="10.00">Sip</text>
</a>
</g>
</g>
<!-- Tabprm -->
<g id="node15" class="node"><title>Tabprm</title>
<g id="a_node15"><a xlink:href="../api/astropy.wcs.Tabprm.html#astropy.wcs.Tabprm" xlink:title="A class to store the information related to tabular coordinates,">
<polygon fill="none" stroke="black" stroke-width="0.5" points="88,-332.5 34,-332.5 34,-313.5 88,-313.5 88,-332.5"/>
<text text-anchor="middle" x="61" y="-320.5" font-family="Vera Sans, DejaVu Sans, Liberation Sans, Arial, Helvetica, sans" font-size="10.00">Tabprm</text>
</a>
</g>
</g>
<!-- WCS -->
<g id="node16" class="node"><title>WCS</title>
<g id="a_node16"><a xlink:href="../api/astropy.wcs.WCS.html#astropy.wcs.WCS" xlink:title="WCS objects perform standard WCS transformations, and correct for">
<polygon fill="none" stroke="black" stroke-width="0.5" points="308,-388.5 254,-388.5 254,-369.5 308,-369.5 308,-388.5"/>
<text text-anchor="middle" x="281" y="-376.5" font-family="Vera Sans, DejaVu Sans, Liberation Sans, Arial, Helvetica, sans" font-size="10.00">WCS</text>
</a>
</g>
</g>
<!-- WCSBase -->
<g id="node17" class="node"><title>WCSBase</title>
<g id="a_node17"><a xlink:href="../api/astropy.wcs.WCSBase.html#astropy.wcs.WCSBase" xlink:title="Wcs(*sip, cpdis, wcsprm, det2im*)">
<polygon fill="none" stroke="black" stroke-width="0.5" points="92,-388.5 30,-388.5 30,-369.5 92,-369.5 92,-388.5"/>
<text text-anchor="middle" x="61" y="-376.5" font-family="Vera Sans, DejaVu Sans, Liberation Sans, Arial, Helvetica, sans" font-size="10.00">WCSBase</text>
</a>
</g>
</g>
<!-- WCSBase&#45;&gt;WCS -->
<g id="edge11" class="edge"><title>WCSBase&#45;&gt;WCS</title>
<path fill="none" stroke="black" stroke-width="0.5" d="M92.312,-379C133.487,-379 206.74,-379 248.515,-379"/>
<polygon fill="black" stroke="black" stroke-width="0.5" points="248.697,-380.75 253.697,-379 248.697,-377.25 248.697,-380.75"/>
</g>
<!-- Wcsprm -->
<g id="node18" class="node"><title>Wcsprm</title>
<g id="a_node18"><a xlink:href="../api/astropy.wcs.Wcsprm.html#astropy.wcs.Wcsprm" xlink:title="Wcsprm(header=None, key=&#39; &#39;, relax=False, naxis=2, keysel=0, colsel=None)">
<polygon fill="none" stroke="black" stroke-width="0.5" points="88.5,-425.5 33.5,-425.5 33.5,-406.5 88.5,-406.5 88.5,-425.5"/>
<text text-anchor="middle" x="61" y="-413.5" font-family="Vera Sans, DejaVu Sans, Liberation Sans, Arial, Helvetica, sans" font-size="10.00">Wcsprm</text>
</a>
</g>
</g>
</g>
</svg>
